SplineFontDB: 3.0
FontName: Jost-SemiItalic
FullName: Jost* 600 Semi Italic
FamilyName: Jost* Semi
Weight: Semi
Copyright: This typeface is licensed under the SIL open font license.
UComments: "2018-6-8: Created with FontForge (http://fontforge.org)"
Version: 003.400
ItalicAngle: -10
UnderlinePosition: -100
UnderlineWidth: 50
Ascent: 800
Descent: 200
InvalidEm: 0
LayerCount: 2
Layer: 0 0 "Back" 1
Layer: 1 0 "Fore" 0
XUID: [1021 69 1495626776 760146]
FSType: 0
OS2Version: 0
OS2_WeightWidthSlopeOnly: 0
OS2_UseTypoMetrics: 0
CreationTime: 1528480336
ModificationTime: 1577673792
PfmFamily: 17
TTFWeight: 600
TTFWidth: 5
LineGap: 100
VLineGap: 0
OS2TypoAscent: 825
OS2TypoAOffset: 0
OS2TypoDescent: -225
OS2TypoDOffset: 0
OS2TypoLinegap: 100
OS2WinAscent: 900
OS2WinAOffset: 0
OS2WinDescent: 300
OS2WinDOffset: 0
HheadAscent: 1030
HheadAOffset: 0
HheadDescent: -350
HheadDOffset: 0
OS2CapHeight: 700
OS2XHeight: 460
OS2Vendor: 'PfEd'
Lookup: 1 0 0 "alt a" { "alt a"  } ['ss01' ('DFLT' <'dflt' > 'latn' <'dflt' > ) ]
Lookup: 1 0 0 "Tabular Numbers lookup" { "Tabular Numbers lookup"  } ['tnum' ('DFLT' <'dflt' > 'grek' <'dflt' > 'latn' <'dflt' > ) ]
Lookup: 258 0 0 "Lets get our kern on" { "kernin like nobodys business" [150,0,4] } ['kern' ('DFLT' <'dflt' > 'latn' <'dflt' > ) ]
MarkAttachClasses: 1
DEI: 91125
KernClass2: 16 14 "kernin like nobodys business"
 43 slash seven V W Wcircumflex uni040E uni0423
 175 quotedbl quotesingle asterisk grave dieresis ordfeminine macron degree acute ordmasculine circumflex breve dotaccent ring tilde quoteleft quoteright quotedblleft quotedblright
 25 nine question F P uni0420
 131 A L backslash Agrave Aacute Acircumflex Atilde Adieresis Aring Amacron Abreve Aogonek Lacute uni013B Lslash uni0410 uni0414 uni041C
 58 three eight B C germandbls uni0411 uni0412 uni0417 uni0421
 29 K X Z uni0416 uni041A uni0425

StartChar: H
Encoding: 72 72 0
Width: 741
VWidth: 0
Flags: HMW
LayerCount: 2
Fore
SplineSet
143.5 307.5 m 1
 165.5 438 l 1
 668 438 l 1
 646 307.5 l 1
 143.5 307.5 l 1
620.5 700 m 1
 764 700 l 1
 643 0 l 1
 502 0 l 1
 620.5 700 l 1
164.5 700 m 1
 307.5 700 l 1
 187 0 l 1
 46 0 l 1
 164.5 700 l 1
EndSplineSet
EndChar

StartChar: O
Encoding: 79 79 1
Width: 787
VWidth: 0
Flags: HMW
LayerCount: 2
Fore
SplineSet
216 350 m 0
 197.5 232 254.5 121.5 383 120.5 c 0
 513.5 119.5 615.5 225 637 350 c 0
 656 468 600.5 578.5 470 579.5 c 0
 339.5 580.5 237 475 216 350 c 0
66 350 m 0
 97 554 274 714 484 714 c 0
 692 714 815.5 546.5 787 350 c 0
 756 146 581.5 -18.5 368 -18 c 0
 157.5 -17.5 37.5 153.5 66 350 c 0
EndSplineSet
EndChar

StartChar: I
Encoding: 73 73 2
Width: 288
VWidth: 0
Flags: HMW
LayerCount: 2
Fore
SplineSet
164.5 700 m 1
 309.5 700 l 1
 189 0 l 1
 46 0 l 1
 164.5 700 l 1
EndSplineSet
EndChar

StartChar: C
Encoding: 67 67 3
Width: 674
VWidth: 0
Flags: HMW
LayerCount: 2
Fore
SplineSet
220 350 m 0
 200.5 228 271 126 394 124.5 c 0
 487.5 123.5 562.5 168 621 219 c 1
 597 58 l 1
 533.5 13.5 465.5 -14 373 -14 c 0
 163 -13 37 151 66 350 c 0
 97.5 557 274 713 488 714 c 0
 576 714 637.5 688.5 694 641 c 1
 669 480 l 1
 626.5 538 566 575.5 479.5 575.5 c 0
 354.5 575 242 478.5 220 350 c 0
EndSplineSet
EndChar

StartChar: E
Encoding: 69 69 4
Width: 569
VWidth: 0
Flags: HMW
LayerCount: 2
Fore
SplineSet
135 0 m 1
 156 122 l 1
 502 122 l 1
 481 0 l 1
 135 0 l 1
234 578 m 1
 255 700 l 1
 600.5 700 l 1
 579.5 578 l 1
 234 578 l 1
189 312 m 1
 209 431 l 1
 535 431 l 1
 514 312 l 1
 189 312 l 1
164.5 700 m 1
 303 700 l 1
 183 0 l 1
 46 0 l 1
 164.5 700 l 1
EndSplineSet
EndChar

StartChar: F
Encoding: 70 70 6
Width: 521
VWidth: 0
Flags: HMW
LayerCount: 2
Fore
SplineSet
233.5 574 m 1
 255 700 l 1
 561.5 700 l 1
 540 574 l 1
 233.5 574 l 1
186 298.5 m 1
 207 418 l 1
 504 418 l 1
 483 298 l 1
 186 298.5 l 1
164.5 700 m 1
 303 700 l 1
 183 0 l 1
 46 0 l 1
 164.5 700 l 1
EndSplineSet
EndChar

StartChar: G
Encoding: 71 71 7
Width: 778
VWidth: 0
Flags: HMW
LayerCount: 2
Fore
SplineSet
419 260 m 1
 439.5 374 l 1
 775 374 l 1
 748 167 607.5 -18 374.5 -18 c 0
 162 -18 36.5 149.5 66 350 c 0
 98 559 276.5 714 492.5 714 c 0
 621.5 714 715.5 653.5 770.5 553 c 1
 640.5 482.5 l 1
 611.5 544.5 559 585.5 479 585.5 c 0
 348 585.5 236.5 483.5 214.5 350 c 0
 195 223.5 257.5 110.5 389.5 110.5 c 0
 500 110.5 568 177 608.5 260 c 1
 419 260 l 1
EndSplineSet
EndChar

StartChar: T
Encoding: 84 84 8
Width: 516
VWidth: 0
Flags: HMW
LayerCount: 2
Fore
SplineSet
74 570 m 1
 97 700 l 1
 605.5 700 l 1
 582.5 570 l 1
 400 570 l 1
 302 0 l 1
 160 0 l 1
 257.5 570 l 1
 74 570 l 1
EndSplineSet
EndChar

StartChar: L
Encoding: 76 76 9
Width: 489
VWidth: 0
Flags: HMW
LayerCount: 2
Fore
SplineSet
165 700 m 1
 307.5 700 l 1
 209 126 l 1
 480 126 l 1
 458 0 l 1
 45 0 l 1
 165 700 l 1
EndSplineSet
EndChar

StartChar: D
Encoding: 68 68 10
Width: 695
VWidth: 0
Flags: HMW
LayerCount: 2
Fore
SplineSet
164.5 700 m 1
 311 700 l 1
 191 0 l 1
 46 0 l 1
 164.5 700 l 1
282 0 m 2
 134.5 0 l 1
 157.5 131 l 1
 292 131 l 2
 420.5 131 526.5 211 549.5 350 c 0
 570.5 483.5 500.5 569.5 375 569.5 c 2
 232 569.5 l 1
 255 700 l 1
 393 700 l 2
 604 700 725.5 550 695.5 350 c 0
 663.5 143.5 498 0 282 0 c 2
EndSplineSet
EndChar

StartChar: Q
Encoding: 81 81 11
Width: 816
VWidth: 0
Flags: HMW
LayerCount: 2
Fore
SplineSet
216 350 m 0
 197 226 261.5 113 392 112 c 0
 522 111 625.5 211 647.5 336 c 0
 667 456 609.5 578.5 472 579.5 c 0
 341.5 580.5 237.5 475.5 216 350 c 0
66 350 m 0
 97 554 276.5 714.5 486.5 714 c 0
 694.5 713.5 815.5 546 787 350 c 0
 756 146 583.5 -18.5 370 -18 c 0
 159.5 -17.5 37.5 153.5 66 350 c 0
378.5 300 m 1
 525.5 300 l 1
 790 -8 l 1
 639 -8 l 1
 378.5 300 l 1
EndSplineSet
EndChar

StartChar: A
Encoding: 65 65 12
Width: 690
VWidth: 0
Flags: HMW
LayerCount: 2
Fore
SplineSet
167 158 m 1
 203 271.5 l 1
 531 271.5 l 1
 528 158 l 1
 167 158 l 1
400 472 m 1
 259 230.5 l 1
 257 198.5 l 1
 134 0 l 1
 -29.5 0 l 1
 444.5 744 l 1
 663 0 l 1
 506.5 0 l 1
 454 192.5 l 1
 460 229 l 1
 400 472 l 1
EndSplineSet
EndChar

StartChar: R
Encoding: 82 82 13
Width: 601
VWidth: 0
Flags: HMW
LayerCount: 2
Fore
SplineSet
258 326 m 1
 403.5 326 l 1
 569 0 l 1
 406.5 0 l 1
 258 326 l 1
164.5 700 m 1
 307.5 700 l 1
 187 0 l 1
 46 0 l 1
 164.5 700 l 1
230 576 m 1
 251 700 l 1
 391 700 l 2
 539 700 630.5 609.5 612.5 476 c 0
 593.5 340 475.5 254 323 254 c 2
 173.5 254 l 1
 194 368 l 1
 325.5 368 l 2
 395.5 368 453.5 407 465.5 472.5 c 0
 476.5 535.5 436 576 369 576 c 2
 230 576 l 1
EndSplineSet
EndChar

StartChar: V
Encoding: 86 86 14
Width: 690
VWidth: 0
Flags: HMW
LayerCount: 2
Fore
SplineSet
364.5 247.5 m 1
 617 699.5 l 1
 785 699.5 l 1
 323 -44 l 1
 92.5 700 l 1
 253 700 l 1
 364.5 247.5 l 1
EndSplineSet
EndChar

StartChar: M
Encoding: 77 77 15
Width: 840
VWidth: 0
Flags: HMW
LayerCount: 2
Fore
SplineSet
266.5 390.5 m 1
 155 0 l 1
 5 0 l 1
 233 735.5 l 1
 440 286 l 1
 805.5 739.5 l 1
 780 0 l 1
 632.5 0 l 1
 655.5 385.5 l 1
 406 63.5 l 1
 266.5 390.5 l 1
EndSplineSet
EndChar

StartChar: W
Encoding: 87 87 16
Width: 1011
VWidth: 0
Flags: HMW
LayerCount: 2
Fore
SplineSet
718.5 261.5 m 1
 931 700 l 1
 1099 699.5 l 1
 698 -41 l 1
 554.5 416 l 1
 268 -41.5 l 1
 97 700 l 1
 260.5 700 l 1
 335.5 263 l 1
 601.5 737.5 l 1
 718.5 261.5 l 1
EndSplineSet
EndChar

StartChar: N
Encoding: 78 78 17
Width: 763
VWidth: 0
Flags: HMW
LayerCount: 2
Fore
SplineSet
647.5 700 m 1
 785 700 l 1
 659.5 -33.5 l 1
 258 433 l 1
 183 0 l 1
 45 0 l 1
 170 733.5 l 1
 572.5 267 l 1
 647.5 700 l 1
EndSplineSet
EndChar

StartChar: a
Encoding: 97 97 18
Width: 584
VWidth: 0
Flags: HMW
LayerCount: 2
Fore
SplineSet
452 460 m 1
 579 460 l 1
 499.5 0 l 1
 374 0 l 1
 452 460 l 1
42.5 230 m 0
 61 366.5 171 471 295.5 470 c 0
 419 469 467 354.5 451 230 c 0
 433 98.5 344.5 -9.5 222 -9.5 c 0
 97 -9.5 25.5 99 42.5 230 c 0
176 230 m 0
 166 161 200 99.5 270 98.5 c 0
 334 97.5 398.5 157 410.5 230 c 0
 420 299 384.5 359.5 322 361.5 c 0
 251 363.5 188 303 176 230 c 0
EndSplineSet
Substitution2: "alt a" a.alt
EndChar

StartChar: X
Encoding: 88 88 19
Width: 627
VWidth: 0
Flags: HMW
LayerCount: 2
Fore
SplineSet
525 699.5 m 1
 702 699.5 l 1
 436 359 l 1
 603.5 0 l 1
 434.5 0 l 1
 339.5 248 l 1
 162 0 l 1
 -15 0 l 1
 274 365 l 1
 121.5 700 l 1
 291 700 l 1
 372.5 482 l 1
 525 699.5 l 1
EndSplineSet
EndChar

StartChar: K
Encoding: 75 75 20
Width: 639
VWidth: 0
Flags: HMW
LayerCount: 2
Fore
SplineSet
164.5 700 m 1
 311.5 700 l 1
 191 0 l 1
 46 0 l 1
 164.5 700 l 1
547.5 699.5 m 1
 721 699.5 l 1
 379 369 l 1
 610 0 l 1
 444 0 l 1
 212.5 371.5 l 1
 547.5 699.5 l 1
EndSplineSet
EndChar

StartChar: Y
Encoding: 89 89 21
Width: 611
VWidth: 0
Flags: HMW
LayerCount: 2
Fore
SplineSet
541 699.5 m 1
 707 699.5 l 1
 400 286.5 l 1
 351 0 l 1
 206 0 l 1
 258 293 l 1
 94.5 700 l 1
 253 700 l 1
 348.5 421 l 1
 541 699.5 l 1
EndSplineSet
EndChar

StartChar: B
Encoding: 66 66 22
Width: 613
VWidth: 0
Flags: HMW
LayerCount: 2
Fore
SplineSet
211 354.5 m 1
 222 420 l 1
 329.5 420 l 2
 386.5 420 435.5 451.5 445 504 c 0
 454 554.5 419 585 364.5 585.5 c 2
 288 586 l 1
 206 114 l 1
 291 114 l 2
 360 115 423 148.5 435 218 c 0
 446 283 397.5 314.5 332.5 315.5 c 2
 204 316 l 1
 218 394 l 1
 351 394 l 2
 476 393 596 333.5 577 199 c 0
 557 61.5 435.5 0 292 0 c 2
 45 0 l 1
 165 700 l 1
 389 700 l 2
 510 700 611.5 642 593.5 522.5 c 0
 575.5 410.5 462.5 355.5 338 354.5 c 2
 211 354.5 l 1
EndSplineSet
EndChar

StartChar: Z
Encoding: 90 90 23
Width: 579
VWidth: 0
Flags: HMW
LayerCount: 2
Fore
SplineSet
117 570 m 1
 140 700 l 1
 660 699.5 l 1
 230.5 126.5 l 1
 530.5 126 l 1
 508.5 0 l 1
 -20.5 0 l 1
 407 569 l 1
 117 570 l 1
EndSplineSet
EndChar

StartChar: o
Encoding: 111 111 24
Width: 558
VWidth: 0
Flags: HMW
LayerCount: 2
Fore
SplineSet
49 230 m 0
 67 368.5 188.5 470 331 470 c 0
 471.5 470 565 365 547 230 c 0
 529 91.5 407.5 -10 265 -10 c 0
 125 -10 31 95 49 230 c 0
180 230 m 0
 170 163 205.5 101.5 274.5 100.5 c 0
 344.5 99.5 405 159 416 230 c 0
 426 297 390 359 321 360 c 0
 251 361 191 301 180 230 c 0
EndSplineSet
EndChar

StartChar: J
Encoding: 74 74 25
Width: 293
VWidth: 0
Flags: HMW
LayerCount: 2
Fore
SplineSet
-112 -76 m 1
 -94 -95 -69.5 -110.5 -40 -109.5 c 0
 -2.5 -108.5 33.5 -76.5 40.5 -26 c 2
 165 700 l 1
 315 700 l 1
 186.5 -56.5 l 2
 167.5 -173 72 -234 -43.5 -233 c 0
 -107.5 -233 -163.5 -206 -202 -177 c 1
 -112 -76 l 1
EndSplineSet
EndChar

StartChar: t
Encoding: 116 116 26
Width: 285
VWidth: 0
Flags: HMW
LayerCount: 2
Fore
SplineSet
56.5 460 m 1
 335 460 l 1
 315.5 350 l 1
 36.5 350 l 1
 56.5 460 l 1
159 620 m 1
 284 620 l 1
 177 0 l 1
 54 0 l 1
 159 620 l 1
EndSplineSet
EndChar

StartChar: d
Encoding: 100 100 27
Width: 584
VWidth: 0
Flags: HMW
LayerCount: 2
Fore
SplineSet
504 780 m 1
 633.5 780 l 1
 499 0 l 1
 371.5 0 l 1
 504 780 l 1
42.5 230 m 0
 61 366.5 171 471 295.5 470 c 0
 419 469 467 354.5 451 230 c 0
 433 98.5 344.5 -9.5 222 -9.5 c 0
 97 -9.5 25.5 99 42.5 230 c 0
176 230 m 0
 166 161 200 99.5 270 98.5 c 0
 334 97.5 398.5 157 410.5 230 c 0
 420 299 384.5 359.5 322 361.5 c 0
 251 363.5 188 303 176 230 c 0
EndSplineSet
EndChar

StartChar: l
Encoding: 108 108 28
Width: 250
VWidth: 0
Flags: HMW
LayerCount: 2
Fore
SplineSet
167 780 m 1
 296.5 780 l 1
 162 0 l 1
 34.5 0 l 1
 167 780 l 1
EndSplineSet
EndChar

StartChar: i
Encoding: 105 105 29
Width: 262
VWidth: 0
Flags: HMW
LayerCount: 2
Fore
SplineSet
136 638 m 0
 136 680 170 711 214 711 c 0
 258 711 291.5 680 291.5 638 c 0
 291.5 596 258 564 214 564 c 0
 170 564 136 596 136 638 c 0
119.5 460 m 1
 246 460 l 1
 167 0 l 1
 42 0 l 1
 119.5 460 l 1
EndSplineSet
EndChar

StartChar: r
Encoding: 114 114 30
Width: 380
VWidth: 0
Flags: HMW
LayerCount: 2
Fore
SplineSet
239 460 m 1
 160 0 l 1
 33 0 l 1
 113 460 l 1
 239 460 l 1
351 324 m 1
 335 338 320.5 348.5 297.5 349 c 0
 244 350 210.5 298 201.5 243.5 c 1
 175 281 l 1
 192 375 265 469 345 470 c 0
 377.5 470 405 455.5 425 432.5 c 1
 351 324 l 1
EndSplineSet
EndChar

StartChar: c
Encoding: 99 99 31
Width: 470
VWidth: 0
Flags: HMW
LayerCount: 2
Fore
SplineSet
175 230 m 0
 164 158.5 206 99 279 97.5 c 0
 340 96.5 396.5 129 431.5 169 c 1
 413.5 36.5 l 1
 374 7.5 322.5 -10 261 -10 c 0
 119.5 -10 25 94.5 43 230 c 0
 62 369.5 183.5 470 328 470 c 0
 387.5 470 435 452.5 471 424 c 1
 452.5 290 l 1
 429 334.5 381 362.5 327 362.5 c 0
 250 362.5 187 303 175 230 c 0
EndSplineSet
EndChar

StartChar: b
Encoding: 98 98 32
Width: 584
VWidth: 0
Flags: HMW
LayerCount: 2
Fore
SplineSet
294 780 m 1
 160 0 l 1
 31 0 l 1
 165 780 l 1
 294 780 l 1
566 230 m 0
 547.5 93.5 438 -11 313.5 -10 c 0
 190 -9 142.5 105.5 158.5 230 c 0
 176.5 361.5 264.5 469.5 387 469.5 c 0
 512 469.5 583 361 566 230 c 0
433.5 230 m 0
 443.5 299 409 360.5 339 361.5 c 0
 275 362.5 211 303 199 230 c 0
 189.5 161 224.5 100.5 287 98.5 c 0
 358 96.5 421.5 157 433.5 230 c 0
EndSplineSet
EndChar

StartChar: p
Encoding: 112 112 33
Width: 584
VWidth: 0
Flags: HMW
LayerCount: 2
Fore
SplineSet
123 -220 m 1
 -7 -220 l 1
 110.5 460 l 1
 238 460 l 1
 123 -220 l 1
566 230 m 0
 547 91 438 -15 312.5 -14 c 0
 185.5 -13 147 105.5 163 230 c 0
 181 361.5 262 473 387.5 473.5 c 0
 513.5 474 583 363.5 566 230 c 0
433.5 230 m 0
 443.5 299.5 407 356.5 338 357.5 c 0
 275 358.5 210 303 199 230 c 0
 189.5 161 226 104.5 288 102.5 c 0
 358 100.5 422 157 433.5 230 c 0
EndSplineSet
EndChar

StartChar: q
Encoding: 113 113 34
Width: 584
VWidth: 0
Flags: HMW
LayerCount: 2
Fore
SplineSet
333 -220 m 1
 450 460 l 1
 579 460 l 1
 462 -220 l 1
 333 -220 l 1
42.5 230 m 0
 61.5 369 170.5 475 296 474 c 0
 423 473 463 354.5 447 230 c 0
 429 98.5 347 -13 221.5 -13.5 c 0
 95.5 -14 25.5 96.5 42.5 230 c 0
176 230 m 0
 166 160.5 201.5 103.5 270.5 102.5 c 0
 333.5 101.5 399.5 157 410.5 230 c 0
 420 299 383 355.5 321 357.5 c 0
 251 359.5 187.5 303 176 230 c 0
EndSplineSet
EndChar

StartChar: h
Encoding: 104 104 35
Width: 538
VWidth: 0
Flags: HMW
LayerCount: 2
Fore
SplineSet
296.5 780 m 1
 162 0 l 1
 33.5 0 l 1
 167.5 780 l 1
 296.5 780 l 1
372 280 m 2
 378 328.5 370 370.5 317 373 c 0
 262 375.5 222.5 330.5 210 281 c 1
 183 281 l 1
 202 381.5 264.5 474.5 374 474.5 c 0
 481.5 474.5 515.5 398.5 502 298 c 1
 450.5 0 l 1
 323 0 l 1
 372 280 l 2
EndSplineSet
EndChar

StartChar: n
Encoding: 110 110 36
Width: 542
VWidth: 0
Flags: HMW
LayerCount: 2
Fore
SplineSet
372 280 m 2
 378 328 370 373 315 373 c 0
 261 373 219 335.5 211 282.5 c 2
 162 0 l 1
 33 0 l 1
 113 460 l 1
 241.5 460 l 1
 230.5 394 l 1
 262.5 441 310 470 373 470 c 0
 480.5 470 520 392 505 294 c 2
 455 0 l 1
 323 0 l 1
 372 280 l 2
EndSplineSet
EndChar

StartChar: m
Encoding: 109 109 37
Width: 783
VWidth: 0
Flags: HMW
LayerCount: 2
Fore
SplineSet
746 294 m 2
 696 0 l 1
 567 0 l 1
 617 280 l 2
 622.5 327 618 373 570.5 373 c 0
 520.5 373 482.5 335.5 474.5 281 c 2
 426.5 0 l 1
 298 0 l 1
 347.5 280 l 2
 352.5 327.5 349.5 373 302 373 c 0
 253.5 373 216 337.5 208 284 c 2
 158 0 l 1
 33 0 l 1
 113 460 l 1
 237 460 l 1
 227 396.5 l 1
 257.5 441.5 301.5 470 361 470 c 0
 430 470 465 438 476.5 388 c 1
 512.5 437.5 565.5 470 630 470 c 0
 734.5 470 758 390.5 746 294 c 2
EndSplineSet
EndChar

StartChar: k
Encoding: 107 107 38
Width: 519
VWidth: 0
Flags: HMW
LayerCount: 2
Fore
SplineSet
164 780 m 1
 289.5 780 l 1
 155.5 0 l 1
 32 0 l 1
 164 780 l 1
393 459.5 m 1
 552.5 459.5 l 1
 322 265 l 1
 487 0 l 1
 340.5 0 l 1
 172 273.5 l 1
 393 459.5 l 1
EndSplineSet
EndChar

StartChar: u
Encoding: 117 117 39
Width: 542
VWidth: 0
Flags: HMW
LayerCount: 2
Fore
SplineSet
196.5 180 m 2
 190.5 132 197 87 250 87 c 0
 304 87 347 122 356 177 c 2
 405.5 460 l 1
 534.5 460 l 1
 455 0 l 1
 326 0 l 1
 337 66 l 1
 304 19 257.5 -10 194.5 -10 c 0
 87.5 -10 48.5 68 62.5 166 c 1
 113 460 l 1
 245.5 460 l 1
 196.5 180 l 2
EndSplineSet
EndChar

StartChar: e
Encoding: 101 101 40
Width: 538
VWidth: 0
Flags: HMW
LayerCount: 2
Fore
SplineSet
264.5 -10 m 0
 132 -10 44.5 69 44.5 200 c 0
 44.5 349.5 160.5 470 324.5 470 c 0
 456.5 470 531 395.5 531 267 c 0
 531 245 525 219 520 202 c 1
 114 202 l 1
 114 281 l 1
 420 281 l 1
 385 235 l 1
 392 249.5 399 265.5 399 280.5 c 0
 399 341.5 371.5 378 313 378 c 0
 232 378 183.5 312 174.5 216 c 0
 166.5 140.5 201 89 272 89 c 0
 326 89 368 115.5 396 156 c 1
 506.5 120 l 1
 458.5 38.5 376.5 -10 264.5 -10 c 0
EndSplineSet
EndChar

StartChar: g
Encoding: 103 103 41
Width: 580
VWidth: 0
Flags: HMW
LayerCount: 2
Fore
SplineSet
6.5 -32 m 1
 130 -32.5 l 1
 130 -89.5 160.5 -128 225 -128.5 c 0
 298 -129.5 360 -71.5 372 10 c 2
 450 460 l 1
 574.5 460 l 1
 497.5 10 l 2
 474 -143 367 -235.5 224 -236 c 0
 79 -236.5 2.5 -154.5 6.5 -32 c 1
43.5 234.5 m 0
 62 371 171.5 471 295.5 470 c 0
 419 469 468 359 452 234 c 0
 434 102.5 346 -1 223.5 -1 c 0
 99.5 -1 26.5 103 43.5 234.5 c 0
176 234 m 0
 166 164.5 202 108 271 107 c 0
 334 106 401 162 412 235 c 0
 421.5 304 384 360.5 322 361.5 c 0
 249.5 362.5 187.5 307 176 234 c 0
EndSplineSet
EndChar

StartChar: f
Encoding: 102 102 42
Width: 316
VWidth: 0
Flags: HMW
LayerCount: 2
Fore
SplineSet
74 460 m 1
 357.5 460 l 1
 338 350 l 1
 54 350 l 1
 74 460 l 1
378 650 m 1
 367 666 355 675.5 337 675.5 c 0
 303 675.5 281 641 275.5 600 c 2
 172 0 l 1
 47 0 l 1
 154 630.5 l 2
 170 726.5 235 794.5 338 793.5 c 0
 389.5 793.5 421.5 770.5 446 745.5 c 1
 378 650 l 1
EndSplineSet
EndChar

StartChar: s
Encoding: 115 115 43
Width: 427
VWidth: 0
Flags: HMW
LayerCount: 2
Fore
SplineSet
90 157.5 m 1
 135 111.5 178.5 81 226.5 83 c 0
 258.5 83 282.5 103.5 283.5 129.5 c 0
 285 165.5 245 184 198 201 c 0
 140 223 82.5 260 86.5 338 c 0
 92 426 171 470 257 470 c 0
 331.5 470 392 437 436 395 c 1
 374.5 315.5 l 1
 343.5 349.5 302 377.5 259.5 377.5 c 0
 228 377.5 205.5 362 204.5 339.5 c 0
 201.5 305 246.5 292.5 292.5 273.5 c 0
 359.5 246 413.5 212.5 410 132.5 c 0
 405 42.5 334.5 -16 234 -16 c 0
 140 -16 67.5 28 19 78.5 c 1
 90 157.5 l 1
EndSplineSet
EndChar

StartChar: y
Encoding: 121 121 44
Width: 481
VWidth: 0
Flags: HMW
LayerCount: 2
Fore
SplineSet
544 459.5 m 1
 135 -219.5 l 1
 0 -219.5 l 1
 162 49.5 l 1
 46 460 l 1
 183.5 460 l 1
 266 94 l 1
 202 96 l 1
 406 459.5 l 1
 544 459.5 l 1
EndSplineSet
EndChar

StartChar: w
Encoding: 119 119 45
Width: 714
VWidth: 0
Flags: HMW
LayerCount: 2
Fore
SplineSet
49 460 m 1
 181 460 l 1
 235.5 209 l 1
 412 497.5 l 1
 491.5 207 l 1
 634 459.5 l 1
 773.5 459.5 l 1
 467 -33 l 1
 375 259 l 1
 184 -33 l 1
 49 460 l 1
EndSplineSet
EndChar

StartChar: v
Encoding: 118 118 46
Width: 485
VWidth: 0
Flags: HMW
LayerCount: 2
Fore
SplineSet
52 460 m 1
 188.5 460 l 1
 254.5 187 l 1
 405 459.5 l 1
 546 459.5 l 1
 219.5 -50 l 1
 52 460 l 1
EndSplineSet
EndChar

StartChar: x
Encoding: 120 120 47
Width: 483
VWidth: 0
Flags: HMW
LayerCount: 2
Fore
SplineSet
385 460 m 1
 531 460 l 1
 328.5 232 l 1
 465 0 l 1
 328 0 l 1
 249 148 l 1
 130.5 0 l 1
 -21 0 l 1
 194.5 243 l 1
 65 460 l 1
 206.5 460 l 1
 276.5 328.5 l 1
 385 460 l 1
EndSplineSet
EndChar

StartChar: z
Encoding: 122 122 48
Width: 487
VWidth: 0
Flags: HMW
LayerCount: 2
Fore
SplineSet
289 341.5 m 1
 82 341.5 l 1
 103 460 l 1
 529.5 460 l 1
 231.5 118.5 l 1
 441 118.5 l 1
 420 0 l 1
 -16 0 l 1
 289 341.5 l 1
EndSplineSet
EndChar

StartChar: j
Encoding: 106 106 49
Width: 256
VWidth: 0
Flags: HMW
LayerCount: 2
Fore
SplineSet
129 638 m 0
 129 680 163 710.5 207 710.5 c 0
 251 710.5 285 680 285 638 c 0
 285 596 251 564 207 564 c 0
 163 564 129 596 129 638 c 0
-72.5 -88.5 m 1
 -62.5 -102.5 -48 -114.5 -30 -114.5 c 0
 4 -115.5 24 -78.5 29 -39 c 2
 115 460 l 1
 240.5 460 l 1
 150.5 -69 l 2
 134.5 -162.5 73.5 -234 -29.5 -233 c 0
 -80.5 -233 -115 -211 -141 -184 c 1
 -72.5 -88.5 l 1
EndSplineSet
EndChar

StartChar: P
Encoding: 80 80 50
Width: 582
VWidth: 0
Flags: HMW
LayerCount: 2
Fore
SplineSet
164.5 700 m 1
 307.5 700 l 1
 187 0 l 1
 46 0 l 1
 164.5 700 l 1
230 578 m 1
 251 700 l 1
 382 700 l 1
 530.5 699 619.5 613 603 476 c 0
 586 336.5 467.5 255 314.5 254 c 1
 173.5 254 l 1
 195.5 376 l 1
 326.5 376 l 1
 396 377 454 411.5 466 477 c 0
 477 540 435.5 577.5 369 578 c 2
 230 578 l 1
EndSplineSet
EndChar

StartChar: U
Encoding: 85 85 51
Width: 658
VWidth: 0
Flags: HMW
LayerCount: 2
Fore
SplineSet
160.5 700 m 1
 302 700 l 1
 221.5 238 l 2
 212.5 169 237.5 108.5 316.5 107.5 c 0
 402.5 106.5 449.5 165.5 462 238.5 c 1
 542 700 l 1
 684 700 l 1
 604 230 l 2
 579 76.5 465.5 -23 302.5 -23 c 0
 151.5 -23 59 79.5 80.5 230 c 1
 160.5 700 l 1
EndSplineSet
EndChar

StartChar: S
Encoding: 83 83 52
Width: 583
VWidth: 0
Flags: HMW
LayerCount: 2
Fore
SplineSet
141.5 236 m 1
 175.5 161 220 107.5 295.5 107.5 c 0
 360.5 107.5 405 150 408 200 c 0
 412 260 357.5 281 287 312 c 0
 217.5 343 125.5 401 132.5 515 c 0
 141.5 633 249 714 383 714 c 0
 504.5 714 577 643 609.5 562 c 1
 494 501 l 1
 470.5 548 436.5 590.5 370.5 590.5 c 0
 315.5 590.5 280 560 277 519 c 0
 272 466 337.5 436 410 408 c 0
 493.5 374 563 313.5 557 206 c 0
 547 72 422.5 -18 287.5 -18 c 0
 163.5 -18 69.5 61 33 163 c 1
 141.5 236 l 1
EndSplineSet
EndChar

StartChar: at
Encoding: 64 64 53
Width: 747
VWidth: 0
Flags: HMW
LayerCount: 2
Fore
SplineSet
319.5 320 m 0
 314.5 283 323 249 358.5 246 c 0
 405 241 459 304 466 366 c 0
 470.5 404.5 459.5 437.5 424.5 440 c 0
 375.5 444 326.5 375 319.5 320 c 0
214 314.5 m 0
 227.5 430.5 318 532 413 530 c 0
 493 528 519.5 443 510.5 369.5 c 0
 497 253.5 418.5 156 321 156.5 c 0
 237.5 157 204 230 214 314.5 c 0
49.5 320 m 0
 82.5 535.5 266 719 493.5 718 c 0
 693.5 717 791 552 765 390 c 0
 748 248 651 142.5 543 146 c 0
 473.5 148 447.5 204.5 457.5 266.5 c 1
 450.5 288 l 1
 515.5 520 l 1
 617.5 520 l 1
 550 302 l 2
 547.5 294 544.5 285 543.5 276 c 0
 541.5 257 542 237 563 234 c 0
 604 224 660.5 310 667.5 390 c 0
 688 510.5 634 628 487 629 c 0
 308 630 175 487.5 147 320 c 0
 124.5 180.5 188 71 343 69 c 0
 412.5 68 476 84.5 537.5 114 c 1
 562 33 l 1
 495 -0.5 421 -21 327.5 -20.5 c 0
 118 -19 21.5 133.5 49.5 320 c 0
EndSplineSet
EndChar

StartChar: period
Encoding: 46 46 54
Width: 305
VWidth: 0
Flags: HMW
LayerCount: 2
Fore
SplineSet
56.5 60 m 0
 56.5 104 90.5 140.5 138.5 140.5 c 0
 186.5 140.5 220.5 104 220.5 60 c 0
 220.5 16 186.5 -21.5 138.5 -21.5 c 0
 90.5 -21.5 56.5 16 56.5 60 c 0
EndSplineSet
EndChar

StartChar: comma
Encoding: 44 44 55
Width: 308
VWidth: 0
Flags: HMW
LayerCount: 2
Fore
SplineSet
114 109 m 1
 240 76 l 1
 80 -171 l 1
 -16 -147.5 l 1
 114 109 l 1
EndSplineSet
EndChar

StartChar: colon
Encoding: 58 58 56
Width: 305
VWidth: 0
Flags: HMW
LayerCount: 2
Fore
SplineSet
54 60 m 0
 54 104 88 140.5 136 140.5 c 0
 184 140.5 218 104 218 60 c 0
 218 16 184 -21.5 136 -21.5 c 0
 88 -21.5 54 16 54 60 c 0
118 435 m 0
 118 479 152 516 200 516 c 0
 248 516 282 479 282 435 c 0
 282 391 248 354 200 354 c 0
 152 354 118 391 118 435 c 0
EndSplineSet
EndChar

StartChar: semicolon
Encoding: 59 59 57
Width: 362
VWidth: 0
Flags: HMW
LayerCount: 2
Fore
SplineSet
161.5 430.5 m 0
 161.5 474.5 195.5 511.5 243.5 511.5 c 0
 291.5 511.5 326 474.5 326 430.5 c 0
 326 386.5 291.5 350 243.5 350 c 0
 195.5 350 161.5 386.5 161.5 430.5 c 0
129 109 m 1
 254.5 76 l 1
 94.5 -171 l 1
 0 -147.5 l 1
 129 109 l 1
EndSplineSet
EndChar

StartChar: quotedbl
Encoding: 34 34 58
Width: 487
VWidth: 0
Flags: HMW
LayerCount: 2
Fore
SplineSet
198 700 m 1
 340 699.5 l 1
 192 387 l 1
 105.5 387 l 1
 198 700 l 1
394 700 m 1
 536 699.5 l 1
 388 387 l 1
 301.5 387 l 1
 394 700 l 1
EndSplineSet
EndChar

StartChar: exclam
Encoding: 33 33 59
Width: 320
VWidth: 0
Flags: HMW
LayerCount: 2
Fore
SplineSet
173 700 m 1
 333 700 l 1
 223.5 222 l 1
 120 222 l 1
 173 700 l 1
61 56 m 0
 61 100 96 132 144 132 c 0
 192 132 226 100 226 56 c 0
 226 12 192 -22 144 -22 c 0
 96 -22 61 12 61 56 c 0
EndSplineSet
EndChar

StartChar: quotesingle
Encoding: 39 39 60
Width: 290
VWidth: 0
Flags: HMW
LayerCount: 2
Fore
SplineSet
198 700 m 1
 340 699.5 l 1
 192 387 l 1
 105.5 387 l 1
 198 700 l 1
EndSplineSet
EndChar

StartChar: numbersign
Encoding: 35 35 61
Width: 628
VWidth: 0
Flags: HMW
LayerCount: 2
Fore
SplineSet
117.5 421 m 1
 134.5 524 l 1
 659 524 l 1
 641.5 420 l 1
 499 420 l 1
 475 424 l 1
 280.5 424 l 1
 258 420 l 1
 117.5 421 l 1
36.5 180 m 1
 54.5 284 l 1
 185.5 284 l 1
 211 280 l 1
 425 280 l 1
 452 284 l 1
 579 284 l 1
 562 180 l 1
 36.5 180 l 1
543.5 699.5 m 1
 660 699.5 l 1
 374.5 0 l 1
 259.5 0 l 1
 351 225 l 1
 365.5 248.5 l 1
 451 458 l 1
 457 484 l 1
 543.5 699.5 l 1
319 700 m 1
 435.5 699.5 l 1
 347.5 486 l 1
 333 459 l 1
 247 249.5 l 1
 242.5 226 l 1
 150 0 l 1
 35.5 0 l 1
 319 700 l 1
EndSplineSet
EndChar

StartChar: hyphen
Encoding: 45 45 62
Width: 211
VWidth: 0
Flags: HMW
LayerCount: 2
Fore
SplineSet
7.5 180 m 1
 27.5 294 l 1
 233 294 l 1
 213 180 l 1
 7.5 180 l 1
EndSplineSet
EndChar

StartChar: dollar
Encoding: 36 36 63
Width: 590
VWidth: 0
Flags: HMW
LayerCount: 2
Fore
SplineSet
361.5 818 m 1
 469 818 l 1
 438 646 l 1
 339 646 l 1
 361.5 818 l 1
249 57.5 m 1
 347.5 57.5 l 1
 325 -112 l 1
 217.5 -112 l 1
 249 57.5 l 1
495 496.5 m 1
 473.5 549.5 444 596.5 385 597.5 c 0
 331 598.5 293 569 285 525 c 0
 273 459 353.5 435 419 408 c 0
 506.5 372 576 303 563 193.5 c 0
 545.5 65.5 432 -11 290 -10 c 0
 171 -9 83 70.5 47.5 173 c 1
 158.5 244 l 1
 189.5 168 226.5 109 305 109 c 0
 363.5 109 405.5 140 414 191 c 0
 425 257 355 285.5 290 313 c 0
 212 347 125.5 411 139.5 527 c 0
 155.5 633 267.5 710 391.5 710 c 0
 508.5 710 576 644 610 561 c 1
 495 496.5 l 1
EndSplineSet
EndChar

StartChar: bar
Encoding: 124 124 64
Width: 318
VWidth: 0
Flags: HMW
LayerCount: 2
Fore
SplineSet
200 784.5 m 1
 327.5 784.5 l 1
 174 -214.5 l 1
 46 -214.5 l 1
 200 784.5 l 1
EndSplineSet
EndChar

StartChar: zero
Encoding: 48 48 65
Width: 623
VWidth: 0
Flags: HMW
LayerCount: 2
Fore
SplineSet
208 350 m 0
 197 247 201.5 116.5 301 114.5 c 0
 401 112.5 466 234 482 350 c 0
 493 453 488.5 583.5 389 585.5 c 0
 289 587.5 224 466 208 350 c 0
70 350 m 0
 97 543.5 221.5 712 402.5 712 c 0
 587.5 712 642.5 532 620 350 c 0
 593 156 471.5 -12.5 288 -12 c 0
 106 -11.5 47.5 169 70 350 c 0
EndSplineSet
Substitution2: "Tabular Numbers lookup" uniFF10
EndChar

StartChar: one
Encoding: 49 49 66
Width: 476
VWidth: 0
Flags: HMW
LayerCount: 2
Fore
SplineSet
128 516 m 1
 152 647 l 1
 464.5 713 l 1
 341.5 0 l 1
 203.5 0 l 1
 299.5 559 l 1
 128 516 l 1
EndSplineSet
Substitution2: "Tabular Numbers lookup" uniFF11
EndChar

StartChar: two
Encoding: 50 50 67
Width: 610
VWidth: 0
Flags: HMW
LayerCount: 2
Fore
SplineSet
0 0 m 1
 358.5 332 l 2
 410 381 459 427 468 488 c 0
 475 538 444.5 585.5 382.5 586.5 c 0
 306.5 588.5 260 520.5 246 447 c 1
 106 447 l 1
 130.5 591.5 233 713.5 398 713 c 0
 542 713 631.5 607.5 614.5 496.5 c 0
 603.5 419.5 552.5 354.5 491 303 c 2
 290 133 l 1
 571.5 132 l 1
 551 0 l 1
 0 0 l 1
EndSplineSet
Substitution2: "Tabular Numbers lookup" uniFF12
EndChar

StartChar: four
Encoding: 52 52 68
Width: 643
VWidth: 0
Flags: HMW
LayerCount: 2
Fore
SplineSet
8.5 130 m 1
 493 699 l 1
 593.5 700 l 1
 473.5 0 l 1
 327 0 l 1
 357 176 l 1
 372 186.5 l 1
 419.5 465 l 1
 225 237 l 1
 460.5 237 l 1
 480 252 l 1
 624 252 l 1
 602.5 129 l 1
 8.5 130 l 1
EndSplineSet
Substitution2: "Tabular Numbers lookup" uniFF14
EndChar

StartChar: slash
Encoding: 47 47 69
Width: 562
VWidth: 0
Flags: HMW
LayerCount: 2
Fore
SplineSet
516 699.5 m 1
 645 699.5 l 1
 91 -149.5 l 1
 -40.5 -149 l 1
 516 699.5 l 1
EndSplineSet
EndChar

StartChar: backslash
Encoding: 92 92 70
Width: 520
VWidth: 0
Flags: HMW
LayerCount: 2
Fore
SplineSet
107 700 m 1
 231 700 l 1
 478 0 l 1
 356 0 l 1
 107 700 l 1
EndSplineSet
EndChar

StartChar: eight
Encoding: 56 56 71
Width: 584
VWidth: 0
Flags: HMW
LayerCount: 2
Fore
SplineSet
138 531.5 m 0
 155 642.5 265 714 383 714 c 0
 497 714 590 641 574 530.5 c 0
 557.5 413.5 442.5 346.5 329 346.5 c 0
 218.5 346.5 121.5 415.5 138 531.5 c 0
269 516.5 m 0
 262 471 288 429 335.5 428 c 0
 386.5 427 431 469.5 439 517.5 c 0
 446 563 422 605 372 606 c 0
 319 607 277 564.5 269 516.5 c 0
55.5 190.5 m 0
 74 323.5 208 394 328.5 394 c 0
 444 394 558.5 321.5 540 189.5 c 0
 521.5 67.5 396.5 -14 267.5 -14 c 0
 143.5 -14 37.5 69.5 55.5 190.5 c 0
198.5 210.5 m 0
 189.5 152.5 223.5 105.5 280 104.5 c 0
 340 103.5 395 150.5 405 211.5 c 0
 413 263.5 378.5 314 323 315 c 0
 264 316 208.5 265.5 198.5 210.5 c 0
EndSplineSet
Substitution2: "Tabular Numbers lookup" uniFF18
EndChar

StartChar: nine
Encoding: 57 57 72
Width: 621
VWidth: 0
Flags: HMW
LayerCount: 2
Fore
SplineSet
490 459.5 m 0
 500.5 528.5 461.5 589 388.5 590 c 0
 314.5 591 250.5 531.5 239.5 459 c 0
 229 390 268.5 327.5 341.5 326.5 c 0
 415.5 325.5 479 386.5 490 459.5 c 0
287 2.5 m 1
 103 2.5 l 1
 362.5 265 l 1
 392 273.5 l 1
 358 245 323 232.5 278 232.5 c 0
 163 233.5 87 338 101 459 c 0
 120.5 613 250.5 714 400.5 714 c 0
 548 714 648.5 609.5 629 459 c 0
 619.5 389 579.5 329 534.5 279 c 2
 287 2.5 l 1
EndSplineSet
Substitution2: "Tabular Numbers lookup" uniFF19
EndChar

StartChar: three
Encoding: 51 51 73
Width: 580
VWidth: 0
Flags: HMW
LayerCount: 2
Fore
SplineSet
296 341.5 m 1
 305 410 l 1
 376 415 442 450.5 451 512 c 0
 457 556.5 434 593 382.5 594 c 0
 325.5 595 285 552 271.5 504 c 1
 139.5 505 l 1
 161.5 623 258.5 712 393 712 c 0
 520 712 608 630 592 520 c 0
 573 394.5 435.5 344.5 296 341.5 c 1
282.5 -14 m 0
 135.5 -14 54 87 64 211 c 1
 202.5 210.5 l 1
 199.5 148.5 233.5 106.5 298 105.5 c 0
 360 104.5 413.5 143.5 422.5 204.5 c 0
 435.5 277.5 371 308.5 291 312 c 1
 302 388 l 1
 446 385 581 333 561 188.5 c 0
 543.5 64 424.5 -14 282.5 -14 c 0
EndSplineSet
Substitution2: "Tabular Numbers lookup" uniFF13
EndChar

StartChar: five
Encoding: 53 53 74
Width: 601
VWidth: 0
Flags: HMW
LayerCount: 2
Fore
SplineSet
582 225.5 m 0
 562 74 425.5 -12 286 -12 c 0
 172.5 -12 93 35 34.5 97 c 1
 115 207 l 1
 155 157 210.5 120.5 272.5 120 c 0
 354 120 420.5 164 431.5 238.5 c 0
 442 309.5 385.5 353 315.5 354.5 c 0
 251.5 356.5 187 339 119.5 307 c 1
 271 700 l 1
 645.5 700 l 1
 625.5 574 l 1
 359 575 l 1
 292 432 l 1
 328 448 367 456.5 407.5 456.5 c 0
 527.5 455.5 597 350.5 582 225.5 c 0
EndSplineSet
Substitution2: "Tabular Numbers lookup" uniFF15
EndChar

StartChar: six
Encoding: 54 54 75
Width: 621
VWidth: 0
Flags: HMW
LayerCount: 2
Fore
SplineSet
205.5 240.5 m 0
 195 171.5 234.5 111 307.5 110 c 0
 381.5 109 446 168.5 457 241 c 0
 467.5 310 428 372.5 355 373.5 c 0
 281 374.5 216.5 313.5 205.5 240.5 c 0
410 697.5 m 1
 593 697.5 l 1
 334 435 l 1
 304.5 426.5 l 1
 338.5 455 373 467.5 418 467.5 c 0
 533 466.5 609.5 362 595.5 241 c 0
 576 87 446 -14 296 -14 c 0
 148.5 -14 48 90.5 67.5 241 c 0
 77 311 116 371 161 421 c 2
 410 697.5 l 1
EndSplineSet
Substitution2: "Tabular Numbers lookup" uniFF16
EndChar

StartChar: seven
Encoding: 55 55 76
Width: 561
VWidth: 0
Flags: HMW
LayerCount: 2
Fore
SplineSet
97 566 m 1
 119 700 l 1
 653 699.5 l 1
 217.5 0 l 1
 62 0 l 1
 421.5 565.5 l 1
 97 566 l 1
EndSplineSet
Substitution2: "Tabular Numbers lookup" uniFF17
EndChar

StartChar: plus
Encoding: 43 43 77
Width: 636
VWidth: 0
Flags: HMW
LayerCount: 2
Fore
SplineSet
69.5 202 m 1
 91.5 328 l 1
 605 328 l 1
 583 202 l 1
 69.5 202 l 1
314.5 528 m 1
 449 528 l 1
 358 2 l 1
 225.5 2 l 1
 314.5 528 l 1
EndSplineSet
EndChar

StartChar: equal
Encoding: 61 61 78
Width: 603
VWidth: 0
Flags: HMW
LayerCount: 2
Fore
SplineSet
46 101 m 1
 65.5 215 l 1
 559 215 l 1
 539 101 l 1
 46 101 l 1
78 290 m 1
 98 404 l 1
 591 404 l 1
 572 290 l 1
 78 290 l 1
EndSplineSet
EndChar

StartChar: percent
Encoding: 37 37 79
Width: 842
VWidth: 0
Flags: HMW
LayerCount: 2
Fore
SplineSet
89 539.5 m 0
 103 635 189 716 291 716 c 0
 392 716 454 631.5 441 538.5 c 0
 427 443 341 362 239 362 c 0
 138 362 76 446.5 89 539.5 c 0
195 538.5 m 0
 190 503.5 209.5 465.5 252 464.5 c 0
 293 463.5 327.5 502 333.5 539.5 c 0
 338.5 574.5 321 612.5 278.5 613.5 c 0
 237.5 614.5 201 576 195 538.5 c 0
468.5 161.5 m 0
 482.5 257 567.5 338 669.5 338 c 0
 770.5 338 832 253.5 819 160.5 c 0
 805 65 719.5 -16 617.5 -16 c 0
 516.5 -16 455.5 68.5 468.5 161.5 c 0
575 160.5 m 0
 570 125.5 589 88 629.5 87 c 0
 670.5 86 706 121.5 713 161.5 c 0
 718 196.5 699 235 658.5 236 c 0
 617.5 237 582 200.5 575 160.5 c 0
695 699.5 m 1
 830 699.5 l 1
 213 0 l 1
 80 0 l 1
 695 699.5 l 1
EndSplineSet
EndChar

StartChar: ampersand
Encoding: 38 38 80
Width: 706
VWidth: 0
Flags: HMW
LayerCount: 2
Fore
SplineSet
258.5 376 m 2
 222 426.5 177.5 479.5 186 548 c 0
 199 643 294 714.5 406 714.5 c 0
 513.5 714.5 583 638.5 571 549.5 c 0
 558 459.5 477 407.5 383 352 c 0
 310.5 310.5 199.5 284 185.5 196.5 c 0
 176.5 140.5 217.5 102 280.5 100 c 0
 411.5 95 531 224 619 333 c 1
 700 265.5 l 1
 592.5 136.5 445.5 -14 255 -12 c 0
 135 -11 33 65.5 49 186 c 0
 67.5 332 223.5 376 315.5 419 c 0
 379 450 442.5 489 450.5 540 c 0
 455 575 434.5 607.5 392 608.5 c 0
 348.5 609.5 316 578 310 540 c 0
 302 495 339.5 454 375.5 408 c 2
 672 0 l 1
 530 0 l 1
 258.5 376 l 2
EndSplineSet
EndChar

StartChar: question
Encoding: 63 63 81
Width: 587
VWidth: 0
Flags: HMW
LayerCount: 2
Fore
SplineSet
464.5 500 m 0
 474.5 562 435.5 602.5 367 603.5 c 0
 302 604.5 244.5 567 203 519 c 1
 122.5 592 l 1
 193.5 664.5 275.5 717 388 716 c 0
 513 715 611.5 625.5 593 499.5 c 0
 574 379.5 464.5 306 352.5 286 c 1
 329.5 192 l 1
 226 192 l 1
 235.5 369 l 1
 264 369 l 1
 365 371 449.5 428.5 464.5 500 c 0
171 54 m 0
 171 94.5 206.5 127.5 252.5 127.5 c 0
 298.5 127.5 333.5 94 333.5 54 c 0
 333.5 13 298.5 -21 252.5 -21 c 0
 206.5 -21 171 13 171 54 c 0
EndSplineSet
EndChar

StartChar: parenleft
Encoding: 40 40 82
Width: 321
VWidth: 0
Flags: HMW
LayerCount: 2
Fore
SplineSet
288 779 m 1
 407 779 l 1
 319.5 628.5 256.5 463 228.5 290 c 0
 203.5 126 210.5 -42.5 257 -200.5 c 1
 142 -200.5 l 1
 87 -43.5 75 125 99 290 c 0
 126 464 190 632 288 779 c 1
EndSplineSet
EndChar

StartChar: parenright
Encoding: 41 41 83
Width: 321
VWidth: 0
Flags: HMW
LayerCount: 2
Fore
SplineSet
89 -199 m 1
 -29.5 -199 l 1
 58 -48.5 120.5 117 148.5 290 c 0
 173.5 454 166.5 622.5 120 780.5 c 1
 235 780.5 l 1
 290 623.5 302.5 455 278.5 290 c 0
 251.5 116 187 -52 89 -199 c 1
EndSplineSet
EndChar

StartChar: asterisk
Encoding: 42 42 84
Width: 574
VWidth: 0
Flags: HMW
LayerCount: 2
Fore
SplineSet
550 602 m 1
 567 489 l 1
 346.5 444 l 1
 335.5 509 l 1
 550 602 l 1
492 329 m 1
 386.5 260 l 1
 312 459 l 1
 368 496 l 1
 492 329 l 1
227 262 m 1
 141.5 334 l 1
 316 495.5 l 1
 365 454.5 l 1
 227 262 l 1
120 491 m 1
 172 601 l 1
 358.5 506.5 l 1
 328.5 445 l 1
 120 491 l 1
321 700 m 1
 439 699.5 l 1
 375 477 l 1
 309 477 l 1
 321 700 l 1
EndSplineSet
EndChar

StartChar: less
Encoding: 60 60 85
Width: 621
VWidth: 0
Flags: HMW
LayerCount: 2
Fore
SplineSet
266.5 262 m 1
 554.5 128 l 1
 533 5 l 1
 72.5 221 l 1
 87.5 305 l 1
 622.5 522 l 1
 598.5 388.5 l 1
 266.5 262 l 1
EndSplineSet
EndChar

StartChar: greater
Encoding: 62 62 86
Width: 621
VWidth: 0
Flags: HMW
LayerCount: 2
Fore
SplineSet
390 262 m 1
 102 396 l 1
 123.5 519 l 1
 583.5 302 l 1
 569.5 219 l 1
 34 2 l 1
 57.5 135 l 1
 390 262 l 1
EndSplineSet
EndChar

StartChar: bracketleft
Encoding: 91 91 87
Width: 332
VWidth: 0
Flags: HMW
LayerCount: 2
Fore
SplineSet
303.5 666 m 1
 184 -106 l 1
 282.5 -106 l 1
 264 -220 l 1
 38.5 -220 l 1
 193 780 l 1
 419 780 l 1
 401 666 l 1
 303.5 666 l 1
EndSplineSet
EndChar

StartChar: bracketright
Encoding: 93 93 88
Width: 332
VWidth: 0
Flags: HMW
LayerCount: 2
Fore
SplineSet
82.5 -106 m 1
 201.5 666 l 1
 103 666 l 1
 122 780 l 1
 347 780 l 1
 193 -220 l 1
 -33 -220 l 1
 -15.5 -106 l 1
 82.5 -106 l 1
EndSplineSet
EndChar

StartChar: asciicircum
Encoding: 94 94 89
Width: 494
VWidth: 0
Flags: HMW
LayerCount: 2
Fore
SplineSet
324 590.5 m 1
 214 452 l 1
 92.5 452 l 1
 302.5 709.5 l 1
 376 710 l 1
 497.5 451 l 1
 384.5 451 l 1
 324 590.5 l 1
EndSplineSet
EndChar

StartChar: underscore
Encoding: 95 95 90
Width: 505
VWidth: 0
Flags: HMW
LayerCount: 2
Fore
SplineSet
-53 -147 m 1
 -39 -64 l 1
 470 -64 l 1
 455.5 -147 l 1
 -53 -147 l 1
EndSplineSet
EndChar

StartChar: grave
Encoding: 96 96 91
Width: 363
VWidth: 0
Flags: HMW
LayerCount: 2
Fore
SplineSet
142 657.5 m 1
 247.5 704.5 l 1
 371 542.5 l 1
 296.5 506 l 1
 142 657.5 l 1
EndSplineSet
EndChar

StartChar: braceleft
Encoding: 123 123 92
Width: 360
VWidth: 0
Flags: HMW
LayerCount: 2
Fore
SplineSet
313 624.5 m 2
 292.5 490 l 2
 275.5 392.5 250 291 127 280.5 c 1
 129 300 l 1
 249 286.5 243.5 179.5 230 90 c 2
 208 -45.5 l 2
 203.5 -72.5 216.5 -94 246 -94.5 c 2
 281.5 -94.5 l 1
 266 -200 l 1
 188.5 -200 l 2
 114.5 -199.5 57.5 -146.5 68.5 -60 c 2
 98 132 l 2
 105 194 99 221 60 242 c 1
 73.5 337.5 l 1
 116.5 355 136 384.5 145 448 c 2
 175 640.5 l 2
 188 729 257 779 333 780 c 1
 416.5 780 l 1
 401 675.5 l 1
 368.5 675.5 l 2
 337.5 675.5 318 653.5 313 624.5 c 2
EndSplineSet
EndChar

StartChar: braceright
Encoding: 125 125 93
Width: 360
VWidth: 0
Flags: HMW
LayerCount: 2
Fore
SplineSet
108 -45 m 2
 129 90 l 2
 146 187.5 171.5 289 294.5 299.5 c 1
 291.5 280 l 1
 171.5 293.5 178.5 400.5 192 490 c 2
 213 625.5 l 2
 217.5 652.5 204 674 175 674.5 c 2
 140 674.5 l 1
 155.5 780 l 1
 232.5 780 l 2
 306.5 779 364 726.5 353 640 c 2
 323 448 l 2
 316 386 322.5 359 361.5 338 c 1
 348 242.5 l 1
 305 225 285 195.5 276 132 c 2
 247 -60.5 l 2
 234.5 -149 164.5 -199 88.5 -200 c 1
 4.5 -200 l 1
 20 -95.5 l 1
 53 -95.5 l 2
 84 -95.5 103 -74 108 -45 c 2
EndSplineSet
EndChar

StartChar: asciitilde
Encoding: 126 126 94
Width: 558
VWidth: 0
Flags: HMW
LayerCount: 2
Fore
SplineSet
158 167 m 1
 54 172 l 1
 53 179.5 54 188.5 55 197 c 0
 59 228 71.5 258.5 94 284 c 0
 123.5 317.5 166 340 220 340 c 0
 262 340 296 320.5 334 291.5 c 0
 356 274.5 377 258 397 258 c 0
 420 258 436 278.5 440 300 c 0
 442 310 441 322.5 439 332.5 c 1
 545 326 l 1
 546 317 546.5 307.5 545.5 298 c 0
 541.5 268 529.5 235.5 507.5 210 c 0
 480.5 178 443.5 158.5 397.5 159 c 0
 358.5 159.5 325 180.5 286.5 208.5 c 0
 262.5 227.5 237 243 211.5 242 c 0
 181.5 241 162 219 157 194 c 0
 155 184.5 156.5 175.5 158 167 c 1
EndSplineSet
EndChar

StartChar: exclamdown
Encoding: 161 161 95
Width: 320
VWidth: 0
Flags: HMW
LayerCount: 2
Fore
SplineSet
172.5 -234 m 1
 13 -234 l 1
 123.5 244 l 1
 226 244 l 1
 172.5 -234 l 1
284 410 m 0
 279 368 237 333.5 193 334.5 c 0
 148 335.5 117 369 122.5 412 c 0
 127.5 454 170 488 214 487 c 0
 259 486 289.5 453 284 410 c 0
EndSplineSet
EndChar

StartChar: cent
Encoding: 162 162 96
Width: 562
VWidth: 0
Flags: HMW
LayerCount: 2
Fore
SplineSet
220 38 m 1
 316.5 38 l 1
 296 -112 l 1
 188 -112 l 1
 220 38 l 1
199 230 m 0
 187.5 158 229.5 99 302 97.5 c 0
 366 96.5 420 130.5 455.5 169 c 1
 435 36 l 1
 395.5 7.5 342 -10 282.5 -10 c 0
 141 -9.5 49.5 95 69 230 c 0
 90 369.5 211.5 469.5 356.5 470 c 0
 414 470 463 453.5 499 424 c 1
 478.5 290 l 1
 456 333.5 414 362.5 355 362.5 c 0
 281 362.5 212 304 199 230 c 0
306.5 578 m 1
 415 578 l 1
 383 428 l 1
 286.5 428 l 1
 306.5 578 l 1
EndSplineSet
EndChar

StartChar: sterling
Encoding: 163 163 97
Width: 583
VWidth: 0
Flags: HMW
LayerCount: 2
Fore
SplineSet
100.5 370 m 1
 465 370 l 1
 448 278 l 1
 83.5 278 l 1
 100.5 370 l 1
481 471 m 1
 483.5 527 471 589.5 398 590.5 c 0
 344.5 591.5 294 557.5 284 502 c 0
 268 416 346.5 363 335 267.5 c 0
 319 159.5 209 77.5 121 51 c 1
 166 122 l 1
 512 122 l 1
 490 0 l 1
 27 0 l 1
 118 92 193 168.5 211 275 c 0
 224 364 140 417.5 152 520.5 c 0
 168.5 637 284 710.5 405.5 709.5 c 0
 535.5 708.5 605.5 609.5 602 514 c 1
 481 471 l 1
EndSplineSet
EndChar

StartChar: currency
Encoding: 164 164 98
Width: 559
VWidth: 0
Flags: HMW
LayerCount: 2
Fore
SplineSet
84 504.5 m 1
 150 562 l 1
 230.5 459.5 l 1
 167 406.5 l 1
 84 504.5 l 1
66 38.5 m 1
 15.5 100.5 l 1
 126.5 194 l 1
 175.5 134.5 l 1
 66 38.5 l 1
483.5 406 m 1
 433.5 466.5 l 1
 544 562 l 1
 593 500.5 l 1
 483.5 406 l 1
377.5 138.5 m 1
 443 194 l 1
 523 93.5 l 1
 460 39 l 1
 377.5 138.5 l 1
73 300 m 0
 92 432.5 206.5 540 342 540 c 0
 476 540 555 427.5 537 300 c 0
 518 167.5 404 60 268.5 60 c 0
 134.5 60 55 172.5 73 300 c 0
191 300 m 0
 181 237 214 180.5 281 179.5 c 0
 349 178.5 407.5 233 418.5 300 c 0
 428.5 363 396 419.5 329 420.5 c 0
 261 421.5 202 367 191 300 c 0
EndSplineSet
EndChar

StartChar: yen
Encoding: 165 165 99
Width: 622
VWidth: 0
Flags: HMW
LayerCount: 2
Fore
SplineSet
62.5 272.5 m 1
 78.5 365 l 1
 613 365 l 1
 597 272 l 1
 62.5 272.5 l 1
36.5 122.5 m 1
 52.5 215 l 1
 587.5 215 l 1
 571.5 122 l 1
 36.5 122.5 l 1
547 699.5 m 1
 712 699.5 l 1
 407 289 l 1
 358 0 l 1
 212 0 l 1
 264 294 l 1
 100 700 l 1
 258 700 l 1
 353.5 421 l 1
 547 699.5 l 1
EndSplineSet
EndChar

StartChar: brokenbar
Encoding: 166 166 100
Width: 318
VWidth: 0
Flags: HMW
LayerCount: 2
Fore
SplineSet
188 694.5 m 1
 315.5 694.5 l 1
 271 438 l 1
 143 438 l 1
 188 694.5 l 1
242 262 m 1
 197 5.5 l 1
 69 5.5 l 1
 114 262 l 1
 242 262 l 1
EndSplineSet
EndChar

StartChar: section
Encoding: 167 167 101
Width: 510
VWidth: 0
Flags: HMW
LayerCount: 2
Fore
SplineSet
434 559 m 1
 411 588.5 376.5 608.5 341.5 608.5 c 0
 312.5 608.5 280.5 596.5 277 573.5 c 0
 272 542.5 328 529 365 515.5 c 0
 430.5 492 483.5 444 474.5 375 c 0
 459.5 271.5 355.5 236 255 233 c 1
 262 272 l 1
 302.5 281 345 308 352 350 c 0
 360.5 402.5 301.5 421 257 441 c 0
 199 467 145.5 508.5 155.5 582 c 0
 168 670 261 719 345.5 719.5 c 0
 418 720 483.5 688.5 512 638.5 c 1
 434 559 l 1
113.5 169 m 1
 142.5 122.5 187 91 236.5 91.5 c 0
 271 91.5 303 106.5 308 133.5 c 0
 314 170.5 265 185 225 200 c 0
 159 223 95 268 105 342.5 c 0
 120 439.5 224 476 327.5 479 c 1
 322 445 l 1
 280 429.5 237.5 410.5 230 368.5 c 0
 220 309.5 288.5 295 333 274.5 c 0
 393.5 246.5 444.5 200.5 435.5 129.5 c 0
 422.5 31 324 -18 228.5 -18 c 0
 135.5 -18 68 26.5 34 91 c 1
 113.5 169 l 1
EndSplineSet
EndChar

StartChar: dieresis
Encoding: 168 168 102
Width: 483
VWidth: 0
Flags: HMW
LayerCount: 2
Fore
SplineSet
358 641 m 0
 362 680 403.5 715 444.5 714 c 0
 486 713 516.5 679 512 639 c 0
 508 600 467.5 566 426.5 567 c 0
 385 568 353.5 601 358 641 c 0
135 641 m 0
 139 680 180 715 221 714 c 0
 262.5 713 292.5 679 288 639 c 0
 284 600 243.5 566 202.5 567 c 0
 161 568 130.5 601 135 641 c 0
EndSplineSet
EndChar

StartChar: copyright
Encoding: 169 169 103
Width: 776
VWidth: 0
Flags: HMW
LayerCount: 2
Fore
SplineSet
303 350 m 0
 292 276 334.5 216 409.5 215 c 0
 465.5 214 510.5 241 545.5 271 c 1
 532.5 174 l 1
 494.5 148 454.5 131.5 399.5 131.5 c 0
 274 131.5 194 229.5 210 350 c 0
 226 474 331.5 567.5 459.5 568.5 c 0
 513 568.5 550.5 553 585.5 525 c 1
 571.5 428 l 1
 544.5 461 510.5 486 458.5 486 c 0
 381.5 486 315 428 303 350 c 0
129.5 350 m 0
 105.5 189 202 41.5 373.5 40.5 c 0
 548 39.5 694.5 181 720.5 350 c 0
 744.5 511 648 658.5 476.5 659.5 c 0
 302 660.5 155.5 519 129.5 350 c 0
74 350 m 0
 101 550 272 710.5 476 710 c 0
 677 709.5 800 542.5 775 350 c 0
 748 150 577.5 -10.5 373.5 -10 c 0
 172.5 -9.5 49 157.5 74 350 c 0
EndSplineSet
EndChar

StartChar: registered
Encoding: 174 174 104
Width: 776
VWidth: 0
Flags: HMW
LayerCount: 2
Fore
SplineSet
392 336.5 m 1
 470.5 336.5 l 1
 567.5 150 l 1
 469.5 150 l 1
 392 336.5 l 1
322 570 m 1
 407.5 570 l 1
 343 150 l 1
 257 150 l 1
 322 570 l 1
362 496 m 1
 373 569.5 l 1
 457.5 570 l 1
 544 568 603.5 518.5 593.5 440 c 0
 582.5 359 512.5 309.5 423 307.5 c 1
 332 307 l 1
 343 374.5 l 1
 422.5 375 l 1
 463 377 500 397.5 506 436.5 c 0
 511 474 484 494 445.5 496 c 1
 362 496 l 1
129.5 350 m 0
 105.5 189 202 41.5 373.5 40.5 c 0
 548 39.5 694.5 181 720.5 350 c 0
 744.5 511 648 658.5 476.5 659.5 c 0
 302 660.5 155.5 519 129.5 350 c 0
74 350 m 0
 101 549.5 272 710.5 476 710 c 0
 677 709.5 800 542.5 775 350 c 0
 748 150.5 577.5 -10.5 373.5 -10 c 0
 172.5 -9.5 49 157.5 74 350 c 0
EndSplineSet
EndChar

StartChar: ordfeminine
Encoding: 170 170 105
Width: 252
VWidth: 0
Flags: HMW
LayerCount: 2
Fore
SplineSet
145 529.5 m 0
 143 513.5 155 502 175 501 c 0
 206 500 230.5 520.5 240 551.5 c 1
 243 523.5 l 1
 231 483.5 198.5 454.5 150.5 455.5 c 0
 106.5 456.5 74 485.5 80 530 c 0
 87 576 138.5 606 187.5 606 c 0
 220.5 606 245.5 592.5 261 579.5 c 1
 256 548 l 1
 239 560 221.5 568.5 198 568 c 0
 174 568 148 551 145 529.5 c 0
143 631 m 1
 126.5 679 l 1
 154 691 188 705 226 705 c 0
 278 705 318 680 314 631.5 c 1
 285 460 l 1
 223 460.5 l 1
 252 618 l 1
 250 637.5 241 649 218 651 c 0
 189 653 159.5 640 143 631 c 1
EndSplineSet
EndChar

StartChar: ordmasculine
Encoding: 186 186 106
Width: 269
VWidth: 0
Flags: HMW
LayerCount: 2
Fore
SplineSet
90 581 m 0
 99.5 649 159.5 699.5 230.5 699.5 c 0
 301.5 699.5 348.5 647 339.5 579 c 0
 330 510.5 268 460.5 197 460.5 c 0
 126 460.5 81 513 90 581 c 0
154.5 580 m 0
 149.5 547.5 167 517 200 516 c 0
 234 515 268 545 273.5 580 c 0
 278.5 612.5 260.5 643.5 227.5 644.5 c 0
 193.5 645.5 160 615 154.5 580 c 0
EndSplineSet
EndChar

StartChar: guillemotleft
Encoding: 171 171 107
Width: 515
VWidth: 0
Flags: HMW
LayerCount: 2
Fore
SplineSet
340.5 256.5 m 1
 453.5 62.5 l 1
 368 6 l 1
 232 259 l 1
 448 503 l 1
 519 442 l 1
 340.5 256.5 l 1
156 256.5 m 1
 269 62.5 l 1
 182 6 l 1
 47 259 l 1
 262 503 l 1
 334.5 442 l 1
 156 256.5 l 1
EndSplineSet
EndChar

StartChar: guillemotright
Encoding: 187 187 108
Width: 515
VWidth: 0
Flags: HMW
LayerCount: 2
Fore
SplineSet
208 253.5 m 1
 95 447.5 l 1
 181 504 l 1
 317 251 l 1
 102 7 l 1
 30 68 l 1
 208 253.5 l 1
393.5 253.5 m 1
 280 447.5 l 1
 366.5 504 l 1
 502.5 251 l 1
 286.5 7 l 1
 214 68 l 1
 393.5 253.5 l 1
EndSplineSet
EndChar

StartChar: uni00AD
Encoding: 173 173 109
Width: 203
VWidth: 0
Flags: HMW
LayerCount: 2
Fore
SplineSet
12.5 200.5 m 1
 24.5 275 l 1
 220.5 275 l 1
 208.5 200.5 l 1
 12.5 200.5 l 1
EndSplineSet
EndChar

StartChar: logicalnot
Encoding: 172 172 110
Width: 621
VWidth: 0
Flags: HMW
LayerCount: 2
Fore
SplineSet
83.5 280 m 1
 102.5 394 l 1
 601 394 l 1
 563 175.5 l 1
 467 175.5 l 1
 487 280 l 1
 83.5 280 l 1
EndSplineSet
EndChar

StartChar: macron
Encoding: 175 175 111
Width: 508
VWidth: 0
Flags: HMW
LayerCount: 2
Fore
SplineSet
149 580 m 1
 167 694 l 1
 524 694 l 1
 506 580 l 1
 149 580 l 1
EndSplineSet
EndChar

StartChar: degree
Encoding: 176 176 112
Width: 281
VWidth: 0
Flags: HMW
LayerCount: 2
Fore
SplineSet
91 598.5 m 0
 100.5 666.5 162.5 719.5 233.5 719.5 c 0
 304.5 719.5 350.5 665 341.5 597 c 0
 332 528.5 270.5 476.5 199 476.5 c 0
 128 476.5 82 530.5 91 598.5 c 0
154 597.5 m 0
 149 564.5 168.5 534 202.5 533 c 0
 238 532 271.5 562.5 277.5 598 c 0
 282.5 631 264 662.5 230 663.5 c 0
 194.5 664.5 160 633 154 597.5 c 0
EndSplineSet
EndChar

StartChar: plusminus
Encoding: 177 177 113
Width: 608
VWidth: 0
Flags: HMW
LayerCount: 2
Fore
SplineSet
46.5 4 m 1
 63.5 119 l 1
 550 119 l 1
 532 4 l 1
 46.5 4 l 1
97 336 m 1
 115.5 456 l 1
 602 456 l 1
 583 336 l 1
 97 336 l 1
317.5 620 m 1
 449.5 620 l 1
 379.5 172 l 1
 249 172 l 1
 317.5 620 l 1
EndSplineSet
EndChar

StartChar: uni00B2
Encoding: 178 178 114
Width: 377
VWidth: 0
Flags: HMW
LayerCount: 2
Fore
SplineSet
43 283 m 1
 261 482 l 2
 292 511 323.5 538.5 329.5 575.5 c 0
 333.5 603.5 319.5 632.5 283 634.5 c 0
 237 637.5 207 593.5 197 551 c 1
 111.5 551 l 1
 129.5 636.5 191 711 291 710 c 0
 378 710 429 644.5 418 576.5 c 0
 411 531 379.5 494 343 463.5 c 2
 221 362 l 1
 388 361 l 1
 374 282 l 1
 43 283 l 1
EndSplineSet
EndChar

StartChar: uni00B3
Encoding: 179 179 115
Width: 338
VWidth: 0
Flags: HMW
LayerCount: 2
Fore
SplineSet
201 485 m 1
 208 526 l 1
 250.5 530 290.5 550 297.5 588 c 0
 301.5 614 287 635.5 257 636.5 c 0
 223 637.5 198 610.5 189 583 c 1
 109 584 l 1
 125.5 653 181 707 262.5 707 c 0
 339 707 391.5 657 381 591.5 c 0
 368.5 516.5 285 488 201 485 c 1
192 271.5 m 0
 102 271.5 56 332.5 60 407 c 1
 143.5 406.5 l 1
 143.5 369.5 160.5 344.5 199 343.5 c 0
 235.5 342.5 270.5 367 275.5 403 c 0
 283.5 447 245 464.5 197 468 c 1
 204 512.5 l 1
 290.5 509.5 372.5 480 359.5 393 c 0
 348.5 319.5 276 271.5 192 271.5 c 0
EndSplineSet
EndChar

StartChar: acute
Encoding: 180 180 116
Width: 363
VWidth: 0
Flags: HMW
LayerCount: 2
Fore
SplineSet
389 653 m 1
 193 506.5 l 1
 123.5 547 l 1
 292 703.5 l 1
 389 653 l 1
EndSplineSet
EndChar

StartChar: mu
Encoding: 181 181 117
Width: 551
VWidth: 0
Flags: HMW
LayerCount: 2
Fore
SplineSet
245.5 460 m 1
 196.5 191 l 2
 189.5 141.5 205.5 104 257 104 c 0
 311 104 351 141.5 360 195.5 c 2
 408 460 l 1
 533.5 460 l 1
 456 0 l 1
 326 0 l 1
 335 54.5 l 1
 307 18 269 -5.5 226 -5.5 c 0
 201 -5.5 181 -0.5 161 15 c 1
 104 -320 l 1
 -20 -320 l 1
 113 460 l 1
 245.5 460 l 1
EndSplineSet
EndChar

StartChar: paragraph
Encoding: 182 182 118
Width: 623
VWidth: 0
Flags: HMW
LayerCount: 2
Fore
SplineSet
298 271 m 1
 177.5 278.5 94 357 113 485.5 c 0
 134 620 243 700 371 700 c 2
 660 700 l 1
 503 -220 l 1
 390.5 -220 l 1
 533 616 l 1
 469 616 l 1
 326 -220 l 1
 214 -220 l 1
 298 271 l 1
EndSplineSet
EndChar

StartChar: periodcentered
Encoding: 183 183 119
Width: 305
VWidth: 0
Flags: HMW
LayerCount: 2
Fore
SplineSet
90 261 m 0
 95.5 303 137 341.5 182 340.5 c 0
 227.5 339.5 256.5 301 251 259 c 0
 245.5 217 204 178 159 179 c 0
 113.5 180 84.5 219 90 261 c 0
EndSplineSet
EndChar

StartChar: uni00B9
Encoding: 185 185 120
Width: 463
VWidth: 0
Flags: HMW
LayerCount: 2
Fore
SplineSet
206 584 m 1
 219 662 l 1
 409 702.5 l 1
 335 274 l 1
 251 274 l 1
 308 609 l 1
 206 584 l 1
EndSplineSet
EndChar

StartChar: cedilla
Encoding: 184 184 121
Width: 368
VWidth: 0
Flags: HMW
LayerCount: 2
Fore
SplineSet
164 67 m 1
 261 65 l 1
 160.5 -54 l 1
 168.5 -52 176.5 -52 185.5 -52 c 0
 228.5 -55 264 -89.5 258 -143 c 0
 250 -208 182 -245 122 -245.5 c 0
 74.5 -246.5 40 -233 1 -205.5 c 1
 49 -148 l 1
 69.5 -163 92 -172 114.5 -172 c 0
 141.5 -172 173 -158 175 -135 c 0
 177 -111.5 151 -102.5 127.5 -102 c 0
 109.5 -101 78.5 -107.5 50 -117.5 c 1
 164 67 l 1
EndSplineSet
EndChar

StartChar: questiondown
Encoding: 191 191 122
Width: 587
VWidth: 0
Flags: HMW
LayerCount: 2
Fore
SplineSet
188.5 200 m 0
 178.5 138 217.5 97.5 286 96.5 c 0
 351 95.5 409.5 133 451 181 c 1
 531.5 108 l 1
 460.5 35.5 378 -17 265.5 -16 c 0
 140.5 -15 41.5 74.5 60 200.5 c 0
 79 320.5 189 394 301 414 c 1
 323.5 508 l 1
 427.5 508 l 1
 418 331 l 1
 390 331 l 1
 289 329 203.5 271.5 188.5 200 c 0
480 645 m 0
 475 606 431.5 571.5 388.5 572.5 c 0
 344.5 573.5 313.5 607 318.5 647 c 0
 323.5 686 366 722 409 721 c 0
 453 720 485 685 480 645 c 0
EndSplineSet
EndChar

StartChar: multiply
Encoding: 215 215 123
Width: 578
VWidth: 0
Flags: HMW
LayerCount: 2
Fore
SplineSet
107 8 m 1
 39 95 l 1
 230.5 258 l 1
 94.5 422 l 1
 186 502 l 1
 316 334 l 1
 504 502 l 1
 572 415 l 1
 380.5 252 l 1
 516.5 88 l 1
 425 8 l 1
 295 176 l 1
 107 8 l 1
EndSplineSet
EndChar

StartChar: Oslash
Encoding: 216 216 124
Width: 766
VWidth: 0
Flags: HMW
LayerCount: 2
Fore
SplineSet
216 350 m 0
 197 231 254 121.5 383 120.5 c 0
 513.5 119.5 615.5 223.5 637 350 c 0
 656 469 599 578.5 470 579.5 c 0
 339.5 580.5 237.5 476.5 216 350 c 0
66 350 m 0
 97 554 272 714.5 484 714 c 0
 691.5 713.5 815.5 546.5 787 350 c 0
 756 146 580 -18.5 368 -18 c 0
 159 -17.5 37.5 154 66 350 c 0
772 753.5 m 1
 833.5 703 l 1
 76.5 -54 l 1
 16 -5 l 1
 772 753.5 l 1
EndSplineSet
EndChar

StartChar: Thorn
Encoding: 222 222 125
Width: 575
VWidth: 0
Flags: HMW
LayerCount: 2
Fore
SplineSet
168.5 700 m 1
 296.5 700 l 1
 176.5 0 l 1
 50 0 l 1
 168.5 700 l 1
204 456 m 1
 225 574 l 1
 356 574 l 1
 504 572 599 488.5 578 351.5 c 0
 557 213 441.5 134 289 132 c 1
 149 132 l 1
 169.5 248 l 1
 301 248 l 1
 376.5 250 437 282 450 352.5 c 0
 462 421.5 415.5 453.5 344 455.5 c 1
 204 456 l 1
EndSplineSet
EndChar

StartChar: divide
Encoding: 247 247 126
Width: 615
VWidth: 0
Flags: HMW
LayerCount: 2
Fore
SplineSet
288 523 m 0
 293.5 565 335 604 380 603 c 0
 425.5 602 456.5 563 451 521 c 0
 445.5 479 403 440.5 358 441.5 c 0
 312.5 442.5 282.5 481 288 523 c 0
214.5 91 m 0
 220 133 261.5 171.5 306.5 170.5 c 0
 352 169.5 382 131 376.5 89 c 0
 371 47 329 8 284 9 c 0
 238.5 10 209 49 214.5 91 c 0
49.5 249.5 m 1
 70 368 l 1
 617.5 368 l 1
 596.5 249 l 1
 49.5 249.5 l 1
EndSplineSet
EndChar

StartChar: oslash
Encoding: 248 248 127
Width: 529
VWidth: 0
Flags: HMW
LayerCount: 2
Fore
SplineSet
42.5 230 m 0
 63.5 371 185.5 470 328.5 470 c 0
 468.5 470 560.5 367.5 541 230 c 0
 520 89 398 -10 255 -10 c 0
 115 -10 23 92.5 42.5 230 c 0
165.5 230 m 0
 154 159 192 97.5 265 96.5 c 0
 339 95.5 406.5 155 418.5 230 c 0
 429.5 298.5 390.5 362.5 318 363.5 c 0
 244 364.5 178 302.5 165.5 230 c 0
493.5 503.5 m 1
 544.5 473 l 1
 78.5 -47.5 l 1
 28 -18 l 1
 493.5 503.5 l 1
EndSplineSet
EndChar

StartChar: circumflex
Encoding: 710 710 128
Width: 465
VWidth: 0
Flags: HMW
LayerCount: 2
Fore
SplineSet
317 633 m 1
 208 546 l 1
 128.5 610 l 1
 330 748 l 1
 490.5 606 l 1
 396 546 l 1
 317 633 l 1
EndSplineSet
EndChar

StartChar: ogonek
Encoding: 731 731 129
Width: 252
VWidth: 0
Flags: HMW
LayerCount: 2
Fore
SplineSet
152 -116 m 1
 176.5 -181 l 1
 154 -201 122.5 -220 78 -220 c 0
 14 -220 -32.5 -180.5 -25 -119 c 0
 -16 -50 61.5 -8.5 127.5 24.5 c 1
 167 0 l 1
 122.5 -25 75.5 -56 69.5 -96 c 0
 67.5 -118.5 76.5 -134 99.5 -136 c 0
 119.5 -137.5 138 -126.5 152 -116 c 1
EndSplineSet
EndChar

StartChar: tilde
Encoding: 732 732 130
Width: 514
VWidth: 0
Flags: HMW
LayerCount: 2
Fore
SplineSet
159 635 m 1
 179 680.5 225.5 725.5 282.5 724 c 0
 336.5 723 354 673.5 403.5 675 c 0
 430 676 452 700 472.5 725.5 c 1
 528.5 659.5 l 1
 504 622 452 577 396 579 c 0
 347.5 581 319 632 274 629.5 c 0
 239.5 627.5 227 598.5 219 580 c 1
 159 635 l 1
EndSplineSet
EndChar

StartChar: ring
Encoding: 730 730 131
Width: 303
VWidth: 0
Flags: HMW
LayerCount: 2
Fore
SplineSet
141 775 m 0
 149.5 837 209 884.5 272 884.5 c 0
 335 884.5 380.5 835.5 372 773 c 0
 363.5 711 303.5 664 240.5 664 c 0
 177.5 664 132.5 713 141 775 c 0
210 773.5 m 0
 207 749 222.5 726.5 245.5 725.5 c 0
 270 723.5 300 749.5 303 775 c 0
 306 799.5 290 822 267 823 c 0
 242.5 825 213 799 210 773.5 c 0
EndSplineSet
EndChar

StartChar: dotaccent
Encoding: 729 729 132
Width: 291
VWidth: 0
Flags: HMW
LayerCount: 2
Fore
SplineSet
179.5 807.5 m 0
 182.5 848.5 220 880 262 880 c 0
 304.5 880 337 847.5 334 806 c 0
 331 765 293 733 251 733 c 0
 208.5 733 176.5 766 179.5 807.5 c 0
EndSplineSet
EndChar

StartChar: uni2010
Encoding: 8208 8208 133
Width: 211
VWidth: 0
Flags: HMW
LayerCount: 2
Fore
SplineSet
7.5 180 m 1
 27.5 294 l 1
 233 294 l 1
 213 180 l 1
 7.5 180 l 1
EndSplineSet
EndChar

StartChar: endash
Encoding: 8211 8211 134
Width: 747
VWidth: 0
Flags: HMW
LayerCount: 2
Fore
SplineSet
71 180 m 1
 90 294 l 1
 700.5 294 l 1
 681 180 l 1
 71 180 l 1
EndSplineSet
EndChar

StartChar: figuredash
Encoding: 8210 8210 135
Width: 597
VWidth: 0
Flags: HMW
LayerCount: 2
Fore
SplineSet
71 180 m 1
 90 294 l 1
 549 294 l 1
 529 180 l 1
 71 180 l 1
EndSplineSet
EndChar

StartChar: emdash
Encoding: 8212 8212 136
Width: 897
VWidth: 0
Flags: HMW
LayerCount: 2
Fore
SplineSet
71 180 m 1
 90 294 l 1
 852.5 294 l 1
 833 180 l 1
 71 180 l 1
EndSplineSet
EndChar

StartChar: minus
Encoding: 8722 8722 137
Width: 574
VWidth: 0
Flags: HMW
LayerCount: 2
Fore
SplineSet
63 180 m 1
 82 294 l 1
 540.5 294 l 1
 520.5 180 l 1
 63 180 l 1
EndSplineSet
EndChar

StartChar: quoteright
Encoding: 8217 8217 138
Width: 304
VWidth: 0
Flags: HMW
LayerCount: 2
Fore
SplineSet
193 700 m 1
 333 699.5 l 1
 190 453 l 1
 97 453 l 1
 193 700 l 1
EndSplineSet
EndChar

StartChar: quoteleft
Encoding: 8216 8216 139
Width: 304
VWidth: 0
Flags: HMW
LayerCount: 2
Fore
SplineSet
254.5 452.5 m 1
 114.5 453 l 1
 257 699 l 1
 350.5 699 l 1
 254.5 452.5 l 1
EndSplineSet
EndChar

StartChar: quotesinglbase
Encoding: 8218 8218 140
Width: 304
VWidth: 0
Flags: HMW
LayerCount: 2
Fore
SplineSet
97 80 m 1
 236.5 79.5 l 1
 94 -167 l 1
 1 -167 l 1
 97 80 l 1
EndSplineSet
EndChar

StartChar: quotedblleft
Encoding: 8220 8220 141
Width: 519
VWidth: 0
Flags: HMW
LayerCount: 2
Fore
SplineSet
254.5 452.5 m 1
 114.5 453 l 1
 257 699 l 1
 350.5 699 l 1
 254.5 452.5 l 1
470 452.5 m 1
 330 453 l 1
 472.5 699 l 1
 566 699 l 1
 470 452.5 l 1
EndSplineSet
EndChar

StartChar: quotedblright
Encoding: 8221 8221 142
Width: 519
VWidth: 0
Flags: HMW
LayerCount: 2
Fore
SplineSet
193 700 m 1
 333 699.5 l 1
 190 453 l 1
 97 453 l 1
 193 700 l 1
408.5 700 m 1
 548.5 699.5 l 1
 405.5 453 l 1
 312 453 l 1
 408.5 700 l 1
EndSplineSet
EndChar

StartChar: perthousand
Encoding: 8240 8240 143
Width: 1262
VWidth: 0
Flags: HMW
LayerCount: 2
Fore
SplineSet
888 161.5 m 0
 902 257 988 338 1090 338 c 0
 1191 338 1252.5 253.5 1239.5 160.5 c 0
 1225.5 65 1139.5 -16 1037.5 -16 c 0
 936.5 -16 875 68.5 888 161.5 c 0
994 160.5 m 0
 989 125.5 1007.5 88.5 1048 87 c 0
 1089 85.5 1126.5 124 1132.5 161.5 c 0
 1137.5 196.5 1119.5 234.5 1079 236 c 0
 1038 237.5 1000 198 994 160.5 c 0
89 539.5 m 0
 103 635 189 716 291 716 c 0
 392 716 454 631.5 441 538.5 c 0
 427 443 341 362 239 362 c 0
 138 362 76 446.5 89 539.5 c 0
195 538.5 m 0
 190 503.5 208.5 466 249 464.5 c 0
 290 463 327.5 502 333.5 539.5 c 0
 338.5 574.5 321 612 280.5 613.5 c 0
 239.5 615 201 576 195 538.5 c 0
468.5 161.5 m 0
 482.5 257 567.5 338 669.5 338 c 0
 770.5 338 832 253.5 819 160.5 c 0
 805 65 719.5 -16 617.5 -16 c 0
 516.5 -16 455.5 68.5 468.5 161.5 c 0
575 160.5 m 0
 570 125.5 588 88.5 628.5 87 c 0
 669.5 85.5 707 124 713 161.5 c 0
 718 196.5 700 234.5 659.5 236 c 0
 618.5 237.5 581 198 575 160.5 c 0
695 699.5 m 1
 830 699.5 l 1
 213 0 l 1
 80 0 l 1
 695 699.5 l 1
EndSplineSet
EndChar

StartChar: guilsinglleft
Encoding: 8249 8249 144
Width: 339
VWidth: 0
Flags: HMW
LayerCount: 2
Fore
SplineSet
156 256.5 m 1
 269 62.5 l 1
 182 6 l 1
 47 259 l 1
 262 503 l 1
 334.5 442 l 1
 156 256.5 l 1
EndSplineSet
EndChar

StartChar: guilsinglright
Encoding: 8250 8250 145
Width: 339
VWidth: 0
Flags: HMW
LayerCount: 2
Fore
SplineSet
216.5 253.5 m 1
 103.5 447.5 l 1
 190 504 l 1
 325 251 l 1
 110.5 7 l 1
 38 68 l 1
 216.5 253.5 l 1
EndSplineSet
EndChar

StartChar: uni2031
Encoding: 8241 8241 146
Width: 1682
VWidth: 0
Flags: HMW
LayerCount: 2
Fore
SplineSet
1307.5 161.5 m 0
 1321.5 257 1407 338 1509 338 c 0
 1610 338 1672 253.5 1659 160.5 c 0
 1645 65 1559 -16 1457 -16 c 0
 1356 -16 1294.5 68.5 1307.5 161.5 c 0
1414.5 160.5 m 0
 1409.5 125.5 1427 88.5 1467.5 87 c 0
 1508.5 85.5 1546.5 124 1552.5 161.5 c 0
 1557.5 196.5 1539.5 234.5 1499 236 c 0
 1458 237.5 1420.5 198 1414.5 160.5 c 0
888 161.5 m 0
 902 257 988 338 1090 338 c 0
 1191 338 1252.5 253.5 1239.5 160.5 c 0
 1225.5 65 1139.5 -16 1037.5 -16 c 0
 936.5 -16 875 68.5 888 161.5 c 0
994 160.5 m 0
 989 125.5 1007.5 88.5 1048 87 c 0
 1089 85.5 1126.5 124 1132.5 161.5 c 0
 1137.5 196.5 1119.5 234.5 1079 236 c 0
 1038 237.5 1000 198 994 160.5 c 0
89 539.5 m 0
 103 635 189 716 291 716 c 0
 392 716 454 631.5 441 538.5 c 0
 427 443 341 362 239 362 c 0
 138 362 76 446.5 89 539.5 c 0
195 538.5 m 0
 190 503.5 208.5 466 249 464.5 c 0
 290 463 327.5 502 333.5 539.5 c 0
 338.5 574.5 321 612 280.5 613.5 c 0
 239.5 615 201 576 195 538.5 c 0
468.5 161.5 m 0
 482.5 257 567.5 338 669.5 338 c 0
 770.5 338 832 253.5 819 160.5 c 0
 805 65 719.5 -16 617.5 -16 c 0
 516.5 -16 455.5 68.5 468.5 161.5 c 0
575 160.5 m 0
 570 125.5 588 88.5 628.5 87 c 0
 669.5 85.5 707 124 713 161.5 c 0
 718 196.5 700 234.5 659.5 236 c 0
 618.5 237.5 581 198 575 160.5 c 0
695 699.5 m 1
 830 699.5 l 1
 213 0 l 1
 80 0 l 1
 695 699.5 l 1
EndSplineSet
EndChar

StartChar: uni203D
Encoding: 8253 8253 147
Width: 587
VWidth: 0
Flags: HMW
LayerCount: 2
Fore
SplineSet
471 487 m 0
 483.5 559 438.5 603 362 603.5 c 0
 296.5 604.5 241.5 570 203 519 c 1
 122.5 592 l 1
 182.5 662 272.5 717 387 716 c 0
 511.5 715 611.5 625.5 593 499.5 c 0
 572 360.5 426 288 301.5 282 c 1
 283 347.5 l 1
 372.5 353.5 455 406 471 487 c 0
263 506 m 1
 393.5 505.5 l 1
 314.5 192 l 1
 234 192 l 1
 263 506 l 1
172.5 57 m 0
 177.5 99 221.5 132.5 265.5 131.5 c 0
 310 130.5 341 97 336 55 c 0
 331 13 288.5 -22 244.5 -21 c 0
 200 -20 167.5 15 172.5 57 c 0
EndSplineSet
EndChar

StartChar: Euro
Encoding: 8364 8364 148
Width: 613
VWidth: 0
Flags: HMW
LayerCount: 2
Fore
SplineSet
79 389.5 m 1
 92 462 l 1
 573.5 462 l 1
 561 389.5 l 1
 79 389.5 l 1
48 261.5 m 1
 60.5 334 l 1
 531 334 l 1
 518.5 261.5 l 1
 48 261.5 l 1
247.5 350 m 0
 232.5 231 258 107.5 376 105.5 c 0
 434.5 104.5 489.5 131 535 166 c 1
 513.5 24 l 1
 467 0 417 -16 363.5 -16 c 0
 169.5 -16 97 169.5 121 350 c 0
 149 541.5 286.5 717 480.5 716.5 c 0
 532.5 716.5 579.5 701 623 676 c 1
 601 533 l 1
 564.5 571.5 521 595 467.5 595 c 0
 349.5 595 267 481 247.5 350 c 0
EndSplineSet
EndChar

StartChar: fraction
Encoding: 8260 8260 149
Width: 700
VWidth: 0
Flags: HMW
LayerCount: 2
Fore
SplineSet
652 699 m 1
 759 699 l 1
 135 0 l 1
 28.5 0 l 1
 652 699 l 1
EndSplineSet
EndChar

StartChar: onequarter
Encoding: 188 188 150
Width: 777
VWidth: 0
Flags: HMW
LayerCount: 2
Fore
SplineSet
697 699 m 1
 788 699 l 1
 164 0 l 1
 73.5 0 l 1
 697 699 l 1
96.5 584 m 1
 110 662 l 1
 299 702.5 l 1
 225 274 l 1
 141 274 l 1
 198 609 l 1
 96.5 584 l 1
375.5 78.5 m 1
 454.5 141 l 1
 633 142 l 1
 645 152 l 1
 747 151 l 1
 734 78 l 1
 375.5 78.5 l 1
470 99 m 1
 373 76.5 l 1
 667.5 419 l 1
 729 420 l 1
 657 0 l 1
 568 0 l 1
 585 99.5 l 1
 593.5 105.5 l 1
 622.5 275.5 l 1
 470 99 l 1
EndSplineSet
EndChar

StartChar: onehalf
Encoding: 189 189 151
Width: 845
VWidth: 0
Flags: HMW
LayerCount: 2
Fore
SplineSet
697 699 m 1
 788 699 l 1
 164 0 l 1
 73.5 0 l 1
 697 699 l 1
96.5 584 m 1
 110 662 l 1
 299 702.5 l 1
 225 274 l 1
 141 274 l 1
 198 609 l 1
 96.5 584 l 1
458 3 m 1
 676 202 l 2
 707 231 739 258.5 745 295.5 c 0
 749 323.5 734.5 352 698 354 c 0
 652 357 621.5 313.5 611.5 271 c 1
 527 271 l 1
 545 356.5 606 431 706 430 c 0
 793 430 843 364.5 832 296.5 c 0
 825 251 794 214 757.5 183.5 c 2
 636.5 82 l 1
 803 81 l 1
 789 2 l 1
 458 3 l 1
EndSplineSet
EndChar

StartChar: threequarters
Encoding: 190 190 152
Width: 835
VWidth: 0
Flags: HMW
LayerCount: 2
Fore
SplineSet
760.5 699 m 1
 850 699 l 1
 226 0 l 1
 137 0 l 1
 760.5 699 l 1
208.5 485 m 1
 214.5 526 l 1
 257 530 297.5 550 304.5 588 c 0
 308.5 614 294 635.5 264 636.5 c 0
 230 637.5 205.5 610.5 196.5 583 c 1
 115.5 584 l 1
 132 653 188 707 269.5 707 c 0
 346 707 399 657 388.5 591.5 c 0
 376 516.5 292.5 488 208.5 485 c 1
198.5 271.5 m 0
 108.5 271.5 63.5 332.5 67.5 407 c 1
 150.5 406.5 l 1
 150.5 369.5 167.5 344.5 206 343.5 c 0
 242.5 342.5 278 367 283 403 c 0
 291 447 252 464.5 204 468 c 1
 211.5 512.5 l 1
 298 509.5 379.5 480 366.5 393 c 0
 355.5 319.5 282.5 271.5 198.5 271.5 c 0
434 78.5 m 1
 513 141 l 1
 692 142 l 1
 704 152 l 1
 805.5 151 l 1
 793 78 l 1
 434 78.5 l 1
528 99 m 1
 431.5 76.5 l 1
 726.5 419 l 1
 787.5 420 l 1
 715 0 l 1
 627 0 l 1
 644 99.5 l 1
 653 105.5 l 1
 682 275.5 l 1
 528 99 l 1
EndSplineSet
EndChar

StartChar: uni2150
Encoding: 8528 8528 153
Width: 884
VWidth: 0
Flags: HMW
LayerCount: 2
Fore
SplineSet
666 699 m 1
 773 699 l 1
 149.5 0 l 1
 42 0 l 1
 666 699 l 1
96.5 584 m 1
 110 662 l 1
 299 702.5 l 1
 225 274 l 1
 141 274 l 1
 198 609 l 1
 96.5 584 l 1
573 339.5 m 1
 587 420 l 1
 909.5 419.5 l 1
 640.5 0 l 1
 546.5 0 l 1
 765.5 338.5 l 1
 573 339.5 l 1
EndSplineSet
EndChar

StartChar: uni2151
Encoding: 8529 8529 154
Width: 828
VWidth: 0
Flags: HMW
LayerCount: 2
Fore
SplineSet
661.5 699 m 1
 768 699 l 1
 145 0 l 1
 38.5 0 l 1
 661.5 699 l 1
96.5 584 m 1
 110 662 l 1
 299 702.5 l 1
 225 274 l 1
 141 274 l 1
 198 609 l 1
 96.5 584 l 1
746 278 m 0
 752 319 729.5 354.5 687 355.5 c 0
 643.5 357.5 601.5 320 595 277 c 0
 589 236 611.5 199.5 654 198 c 0
 697.5 196 739.5 235 746 278 c 0
621 4 m 1
 508 5 l 1
 666.5 160 l 1
 684.5 164 l 1
 664 148 643.5 141.5 617 141.5 c 0
 548 142.5 503 206 512 278 c 0
 524 369.5 604 430.5 693 430.5 c 0
 781.5 430.5 842.5 367 829.5 277 c 0
 823 235 799 200 772 170 c 1
 621 4 l 1
EndSplineSet
EndChar

StartChar: uni2152
Encoding: 8530 8530 155
Width: 1136
VWidth: 0
Flags: HMW
LayerCount: 2
Fore
SplineSet
661.5 699 m 1
 768 699 l 1
 145 0 l 1
 38.5 0 l 1
 661.5 699 l 1
96.5 584 m 1
 110 662 l 1
 299 702.5 l 1
 225 274 l 1
 141 274 l 1
 198 609 l 1
 96.5 584 l 1
541 310 m 1
 554.5 389.5 l 1
 743 429 l 1
 669 1.5 l 1
 586 1.5 l 1
 642.5 336 l 1
 541 310 l 1
868.5 210 m 0
 861.5 149 864 70.5 923 68.5 c 0
 983 66.5 1023 142 1033 210 c 0
 1040 271 1037 349.5 978 351.5 c 0
 918 353.5 878.5 278 868.5 210 c 0
785.5 210 m 0
 800.5 325 876 427.5 983 427.5 c 0
 1093 427.5 1129.5 319.5 1116 210 c 0
 1100.5 95 1026 -7.5 917 -7.5 c 0
 808 -7.5 772 101 785.5 210 c 0
EndSplineSet
EndChar

StartChar: onethird
Encoding: 8531 8531 156
Width: 812
VWidth: 0
Flags: HMW
LayerCount: 2
Fore
SplineSet
661.5 699 m 1
 768 699 l 1
 145 0 l 1
 38 0 l 1
 661.5 699 l 1
96.5 584 m 1
 110 662 l 1
 299 702.5 l 1
 225 274 l 1
 141 274 l 1
 198 609 l 1
 96.5 584 l 1
623.5 205 m 1
 630.5 246 l 1
 673 250 712.5 270 719.5 308 c 0
 723.5 334 710 355.5 680 356.5 c 0
 646 357.5 621 330.5 612 303 c 1
 531 304 l 1
 547.5 373 603.5 427 685 427 c 0
 761.5 427 814.5 377 804 311.5 c 0
 791.5 236.5 707.5 208 623.5 205 c 1
614 -8.5 m 0
 524 -8.5 479 52.5 483 127 c 1
 566 126.5 l 1
 566 89.5 582.5 64.5 621 63.5 c 0
 657.5 62.5 693 87 698 123 c 0
 706 167 667.5 184.5 619.5 188 c 1
 627.5 232.5 l 1
 714 229.5 794.5 200 781.5 113 c 0
 770.5 39.5 698 -8.5 614 -8.5 c 0
EndSplineSet
EndChar

StartChar: twothirds
Encoding: 8532 8532 157
Width: 940
VWidth: 0
Flags: HMW
LayerCount: 2
Fore
SplineSet
798 699 m 1
 904.5 699 l 1
 280.5 0 l 1
 174 0 l 1
 798 699 l 1
47.5 283 m 1
 266 482 l 2
 297 511 329 538.5 335 575.5 c 0
 339 603.5 324.5 632 288 634 c 0
 242 637 211 593.5 201 551 c 1
 116 551 l 1
 134 636.5 196 711 296 710 c 0
 383 710 433 644.5 422 576.5 c 0
 415 531 384.5 494 348 463.5 c 2
 226 362 l 1
 393 361 l 1
 379 282 l 1
 47.5 283 l 1
751 205 m 1
 758 246 l 1
 800.5 250 840 270 847 308 c 0
 851 334 837 355.5 807 356.5 c 0
 773 357.5 748 330.5 739 303 c 1
 658.5 304 l 1
 675 373 731 427 812.5 427 c 0
 889 427 942 377 931.5 311.5 c 0
 919 236.5 835 208 751 205 c 1
742 -8.5 m 0
 652 -8.5 606 52.5 610 127 c 1
 693.5 126.5 l 1
 693.5 89.5 710.5 64.5 749 63.5 c 0
 785.5 62.5 820.5 87 825.5 123 c 0
 833.5 167 795 184.5 747 188 c 1
 754 232.5 l 1
 840.5 229.5 923 200 910 113 c 0
 899 39.5 826 -8.5 742 -8.5 c 0
EndSplineSet
EndChar

StartChar: uni2155
Encoding: 8533 8533 158
Width: 801
VWidth: 0
Flags: HMW
LayerCount: 2
Fore
SplineSet
661.5 699 m 1
 768 699 l 1
 145 0 l 1
 38.5 0 l 1
 661.5 699 l 1
96.5 584 m 1
 110 662 l 1
 299 702.5 l 1
 225 274 l 1
 141 274 l 1
 198 609 l 1
 96.5 584 l 1
775 132.5 m 0
 763 41.5 678.5 -9 595.5 -9 c 0
 527 -9 480.5 19.5 444.5 56.5 c 1
 493 123 l 1
 518 94.5 549.5 70.5 587 70.5 c 0
 635 70.5 678.5 97.5 684.5 142 c 0
 689.5 184 657.5 208.5 617 210.5 c 0
 579 212.5 538.5 200.5 498 182 c 1
 559.5 228 l 1
 591.5 256.5 629.5 273 670.5 272 c 0
 742.5 271 785 208 775 132.5 c 0
646 342.5 m 1
 592.5 231 l 1
 492.5 177 l 1
 592 417.5 l 1
 818 418 l 1
 805 343 l 1
 646 342.5 l 1
EndSplineSet
EndChar

StartChar: uni2156
Encoding: 8534 8534 159
Width: 935
VWidth: 0
Flags: HMW
LayerCount: 2
Fore
SplineSet
798 699 m 1
 904.5 699 l 1
 280.5 0 l 1
 174 0 l 1
 798 699 l 1
47.5 283 m 1
 266 482 l 2
 297 511 329 538.5 335 575.5 c 0
 339 603.5 324.5 632 288 634 c 0
 242 637 211 593.5 201 551 c 1
 116 551 l 1
 134 636.5 196 711 296 710 c 0
 383 710 433 644.5 422 576.5 c 0
 415 531 384.5 494 348 463.5 c 2
 226 362 l 1
 393 361 l 1
 379 282 l 1
 47.5 283 l 1
903 132.5 m 0
 891 41.5 805.5 -9 722.5 -9 c 0
 654 -9 608 19.5 572 56.5 c 1
 620.5 123 l 1
 645.5 94.5 676.5 70.5 714 70.5 c 0
 762 70.5 806 97.5 812 142 c 0
 817 184 785.5 208.5 745 210.5 c 0
 707 212.5 665.5 200.5 625 182 c 1
 686.5 228 l 1
 718.5 256.5 757 273 798 272 c 0
 870 271 913 208 903 132.5 c 0
774 342.5 m 1
 720 231 l 1
 619 177 l 1
 720 417.5 l 1
 945.5 418 l 1
 932 343 l 1
 774 342.5 l 1
EndSplineSet
EndChar

StartChar: uni2157
Encoding: 8535 8535 160
Width: 873
VWidth: 0
Flags: HMW
LayerCount: 2
Fore
SplineSet
737.5 699 m 1
 844 699 l 1
 221 0 l 1
 114 0 l 1
 737.5 699 l 1
206.5 485 m 1
 212.5 526 l 1
 255 530 295 550 302 588 c 0
 306 614 292 635.5 262 636.5 c 0
 228 637.5 202.5 610.5 193.5 583 c 1
 113 584 l 1
 129.5 653 186 707 267.5 707 c 0
 344 707 397 657 386.5 591.5 c 0
 374 516.5 290.5 488 206.5 485 c 1
196 271.5 m 0
 106 271.5 61 332.5 65 407 c 1
 148 406.5 l 1
 148 369.5 165 344.5 203.5 343.5 c 0
 240 342.5 275.5 367 280.5 403 c 0
 288.5 447 250 464.5 202 468 c 1
 209.5 512.5 l 1
 296 509.5 377.5 480 364.5 393 c 0
 353.5 319.5 280 271.5 196 271.5 c 0
838.5 132.5 m 0
 826.5 41.5 742 -9 659 -9 c 0
 590.5 -9 544 19.5 508 56.5 c 1
 556 123 l 1
 581 94.5 611.5 70.5 649 70.5 c 0
 697 70.5 742 97.5 748 142 c 0
 753 184 720.5 208.5 680 210.5 c 0
 642 212.5 601.5 200.5 561 182 c 1
 622 228 l 1
 654 256.5 693 273 734 272 c 0
 806 271 848.5 208 838.5 132.5 c 0
709.5 342.5 m 1
 656 231 l 1
 555 177 l 1
 655.5 417.5 l 1
 881 418 l 1
 867.5 343 l 1
 709.5 342.5 l 1
EndSplineSet
EndChar

StartChar: uni2158
Encoding: 8536 8536 161
Width: 941
VWidth: 0
Flags: HMW
LayerCount: 2
Fore
SplineSet
788.5 699 m 1
 895.5 699 l 1
 272 0 l 1
 165.5 0 l 1
 788.5 699 l 1
55 358.5 m 1
 133.5 421 l 1
 312.5 422 l 1
 324 432 l 1
 426 431 l 1
 413 358 l 1
 55 358.5 l 1
149 379 m 1
 52 356.5 l 1
 346.5 699 l 1
 408 700 l 1
 336 280 l 1
 247.5 280 l 1
 264.5 379.5 l 1
 272.5 385.5 l 1
 302.5 555.5 l 1
 149 379 l 1
911 132.5 m 0
 899 41.5 813.5 -9.5 730.5 -9.5 c 0
 662 -9.5 616 19 580 56 c 1
 628.5 122 l 1
 653.5 93.5 684 70 721.5 70 c 0
 769.5 70 814 97 820 141.5 c 0
 825 183.5 793 208 752.5 210 c 0
 714.5 212 673.5 200.5 633 182 c 1
 694.5 228 l 1
 726.5 256.5 765 273 806 272 c 0
 878 271 921 208 911 132.5 c 0
781.5 342 m 1
 728 230.5 l 1
 627 176 l 1
 727.5 417 l 1
 953 417.5 l 1
 939.5 342.5 l 1
 781.5 342 l 1
EndSplineSet
EndChar

StartChar: uni2159
Encoding: 8537 8537 162
Width: 804
VWidth: 0
Flags: HMW
LayerCount: 2
Fore
SplineSet
674.5 699 m 1
 781 699 l 1
 157.5 0 l 1
 50.5 0 l 1
 674.5 699 l 1
96.5 584 m 1
 110 662 l 1
 299 702.5 l 1
 225 274 l 1
 141 274 l 1
 198 609 l 1
 96.5 584 l 1
544 142 m 0
 538 101 560 65.5 602.5 64.5 c 0
 646 62.5 687.5 100 694 143 c 0
 700 184 678 220 635.5 222 c 0
 592 224 550.5 185 544 142 c 0
669.5 416 m 1
 781.5 415 l 1
 624 260 l 1
 606 256 l 1
 626.5 272 646.5 278.5 673 278.5 c 0
 742 278.5 787 214 778 142 c 0
 766 50.5 686.5 -10.5 597.5 -10.5 c 0
 509 -10.5 447 53 460 143 c 0
 466.5 185 490.5 220 517.5 250 c 1
 669.5 416 l 1
EndSplineSet
EndChar

StartChar: uni215A
Encoding: 8538 8538 163
Width: 881
VWidth: 0
Flags: HMW
LayerCount: 2
Fore
SplineSet
763 699 m 1
 870 699 l 1
 246.5 0 l 1
 139.5 0 l 1
 763 699 l 1
388 412.5 m 0
 376 321.5 292 271 209 271 c 0
 140.5 271 95 299.5 59 336.5 c 1
 107 403 l 1
 132 374.5 162.5 350.5 200 350.5 c 0
 248 350.5 293 377.5 299 422 c 0
 304 464 271.5 488.5 231 490.5 c 0
 193 492.5 152.5 480.5 112 462 c 1
 173 508 l 1
 205 536.5 243.5 553 284.5 552 c 0
 356.5 551 398 488 388 412.5 c 0
260 622.5 m 1
 207 511 l 1
 106 457 l 1
 206.5 697.5 l 1
 432 698 l 1
 418.5 623 l 1
 260 622.5 l 1
619.5 142 m 0
 613.5 101 636 65.5 678.5 64.5 c 0
 722 62.5 763.5 100 770 143 c 0
 776 184 754 220 711.5 222 c 0
 668 224 626 185 619.5 142 c 0
745 416 m 1
 858 415 l 1
 700.5 260 l 1
 682 256 l 1
 702.5 272 722.5 278.5 749 278.5 c 0
 818 278.5 863 214 854 142 c 0
 842 50.5 762 -10.5 673 -10.5 c 0
 584.5 -10.5 523 53 536 143 c 0
 542.5 185 566.5 220 593.5 250 c 1
 745 416 l 1
EndSplineSet
EndChar

StartChar: oneeighth
Encoding: 8539 8539 164
Width: 826
VWidth: 0
Flags: HMW
LayerCount: 2
Fore
SplineSet
674.5 699 m 1
 781 699 l 1
 157.5 0 l 1
 50.5 0 l 1
 674.5 699 l 1
96.5 584 m 1
 110 662 l 1
 299 702.5 l 1
 225 274 l 1
 141 274 l 1
 198 609 l 1
 96.5 584 l 1
548 319.5 m 0
 557 384.5 625 428.5 694.5 428.5 c 0
 762.5 428.5 820.5 384.5 811 318.5 c 0
 802 249.5 731.5 208 664 208 c 0
 597.5 208 539 250.5 548 319.5 c 0
627.5 309.5 m 0
 624 282.5 638.5 257.5 666.5 256.5 c 0
 695.5 255.5 725 283 729 311 c 0
 732.5 338 719 362.5 690 363.5 c 0
 660 364.5 632 338.5 627.5 309.5 c 0
498 115 m 0
 508 193.5 590.5 236.5 661.5 236.5 c 0
 731 236.5 802 192 791 113 c 0
 781 41 703 -8.5 627 -8.5 c 0
 552.5 -8.5 487.5 43 498 115 c 0
584.5 126 m 0
 579.5 91.5 600 64 633 63 c 0
 667 62 703.5 90.5 708.5 127 c 0
 713 158 692.5 188 660 189 c 0
 626 190 590 158.5 584.5 126 c 0
EndSplineSet
EndChar

StartChar: threeeighths
Encoding: 8540 8540 165
Width: 893
VWidth: 0
Flags: HMW
LayerCount: 2
Fore
SplineSet
742 699 m 1
 848.5 699 l 1
 225 0 l 1
 118 0 l 1
 742 699 l 1
206.5 485 m 1
 212.5 526 l 1
 255 530 295 550 302 588 c 0
 306 614 292 635.5 262 636.5 c 0
 228 637.5 202.5 610.5 193.5 583 c 1
 113 584 l 1
 129.5 653 186 707 267.5 707 c 0
 344 707 397 657 386.5 591.5 c 0
 374 516.5 290.5 488 206.5 485 c 1
196 271.5 m 0
 106 271.5 61 332.5 65 407 c 1
 148 406.5 l 1
 148 369.5 165 344.5 203.5 343.5 c 0
 240 342.5 275.5 367 280.5 403 c 0
 288.5 447 250 464.5 202 468 c 1
 209.5 512.5 l 1
 296 509.5 377.5 480 364.5 393 c 0
 353.5 319.5 280 271.5 196 271.5 c 0
615.5 319.5 m 0
 624.5 384.5 692.5 428.5 762 428.5 c 0
 830 428.5 888 384.5 878.5 318.5 c 0
 869.5 249.5 799 208 731.5 208 c 0
 665 208 606.5 250.5 615.5 319.5 c 0
694.5 309.5 m 0
 691 282.5 706 257.5 734 256.5 c 0
 763 255.5 792.5 283 796.5 311 c 0
 800 338 786 362.5 757 363.5 c 0
 727 364.5 699 338.5 694.5 309.5 c 0
566 115 m 0
 576 193.5 658 236.5 729 236.5 c 0
 798.5 236.5 869 192 858 113 c 0
 848 41 771 -8.5 695 -8.5 c 0
 620.5 -8.5 555.5 43 566 115 c 0
652.5 126 m 0
 647.5 91.5 668 64 701 63 c 0
 735 62 771 90.5 776 127 c 0
 780.5 158 760.5 188 728 189 c 0
 694 190 658 158.5 652.5 126 c 0
EndSplineSet
EndChar

StartChar: fiveeighths
Encoding: 8541 8541 166
Width: 914
VWidth: 0
Flags: HMW
LayerCount: 2
Fore
SplineSet
763 699 m 1
 870 699 l 1
 246.5 0 l 1
 139.5 0 l 1
 763 699 l 1
384 412.5 m 0
 372 321.5 288 271 205 271 c 0
 136.5 271 91 299.5 55 336.5 c 1
 103 403 l 1
 128 374.5 158.5 350.5 196 350.5 c 0
 244 350.5 288.5 377.5 294.5 422 c 0
 299.5 464 267.5 488.5 227 490.5 c 0
 189 492.5 148.5 480.5 108 462 c 1
 169 508 l 1
 201 536.5 239.5 553 280.5 552 c 0
 352.5 551 394 488 384 412.5 c 0
255.5 622.5 m 1
 202.5 511 l 1
 102 457 l 1
 201.5 697.5 l 1
 427 698 l 1
 414 623 l 1
 255.5 622.5 l 1
636.5 319.5 m 0
 645.5 384.5 714 428.5 783.5 428.5 c 0
 851.5 428.5 909.5 384.5 900 318.5 c 0
 891 249.5 820.5 208 753 208 c 0
 686.5 208 627.5 250.5 636.5 319.5 c 0
715 309.5 m 0
 711.5 282.5 727 257.5 755 256.5 c 0
 784 255.5 813.5 283 817.5 311 c 0
 821 338 807.5 362.5 778.5 363.5 c 0
 748.5 364.5 719.5 338.5 715 309.5 c 0
587 115 m 0
 597 193.5 679.5 236.5 750.5 236.5 c 0
 820 236.5 890.5 192 879.5 113 c 0
 869.5 41 792 -8.5 716 -8.5 c 0
 641.5 -8.5 576.5 43 587 115 c 0
674 126 m 0
 669 91.5 689 64 722 63 c 0
 756 62 792 90.5 797 127 c 0
 801.5 158 781.5 188 749 189 c 0
 715 190 679.5 158.5 674 126 c 0
EndSplineSet
EndChar

StartChar: seveneighths
Encoding: 8542 8542 167
Width: 807
VWidth: 0
Flags: HMW
LayerCount: 2
Fore
SplineSet
652 699 m 1
 759 699 l 1
 135 0 l 1
 28.5 0 l 1
 652 699 l 1
101.5 619.5 m 1
 115.5 700 l 1
 439 699.5 l 1
 169.5 281 l 1
 75.5 281 l 1
 295 618.5 l 1
 101.5 619.5 l 1
530.5 319.5 m 0
 539.5 384.5 607.5 428.5 677 428.5 c 0
 745 428.5 802.5 384.5 793 318.5 c 0
 784 249.5 713.5 208 646 208 c 0
 579.5 208 521.5 250.5 530.5 319.5 c 0
608.5 309.5 m 0
 605 282.5 620 257.5 648 256.5 c 0
 677 255.5 707 283 711 311 c 0
 714.5 338 701 362.5 672 363.5 c 0
 642 364.5 613 338.5 608.5 309.5 c 0
480 115 m 0
 490 193.5 573 236.5 644 236.5 c 0
 713.5 236.5 783.5 192 772.5 113 c 0
 762.5 41 685.5 -8.5 609.5 -8.5 c 0
 535 -8.5 469.5 43 480 115 c 0
567 126 m 0
 562 91.5 582 64 615 63 c 0
 649 62 685.5 90.5 690.5 127 c 0
 695 158 674.5 188 642 189 c 0
 608 190 572.5 158.5 567 126 c 0
EndSplineSet
EndChar

StartChar: uni2074
Encoding: 8308 8308 168
Width: 401
VWidth: 0
Flags: HMW
LayerCount: 2
Fore
SplineSet
50.5 358.5 m 1
 129.5 421 l 1
 308 422 l 1
 320 432 l 1
 422 431 l 1
 409.5 358 l 1
 50.5 358.5 l 1
145 379 m 1
 48 356.5 l 1
 343 699 l 1
 404 700 l 1
 332 280 l 1
 243.5 280 l 1
 260.5 379.5 l 1
 268 385.5 l 1
 297.5 555.5 l 1
 145 379 l 1
EndSplineSet
EndChar

StartChar: uni2075
Encoding: 8309 8309 169
Width: 366
VWidth: 0
Flags: HMW
LayerCount: 2
Fore
SplineSet
384 412.5 m 0
 372 321.5 288 271 205 271 c 0
 136.5 271 91 299.5 55 336.5 c 1
 103 403 l 1
 128 374.5 158.5 350.5 196 350.5 c 0
 244 350.5 288.5 377.5 294.5 422 c 0
 299.5 464 267.5 488.5 227 490.5 c 0
 189 492.5 148.5 480.5 108 462 c 1
 169 508 l 1
 201 536.5 239.5 553 280.5 552 c 0
 352.5 551 394 488 384 412.5 c 0
255.5 622.5 m 1
 202.5 511 l 1
 102 457 l 1
 201.5 697.5 l 1
 427 698 l 1
 414 623 l 1
 255.5 622.5 l 1
EndSplineSet
EndChar

StartChar: uni2076
Encoding: 8310 8310 170
Width: 360
VWidth: 0
Flags: HMW
LayerCount: 2
Fore
SplineSet
152.5 422 m 0
 146.5 381 170 345.5 212.5 344.5 c 0
 256 342.5 297 380 303.5 423 c 0
 309.5 464 288 500 245.5 502 c 0
 202 504 159 465 152.5 422 c 0
279 696 m 1
 391 695 l 1
 233 540 l 1
 215 536 l 1
 235.5 552 255 558.5 281.5 558.5 c 0
 350.5 558.5 396.5 494 387.5 422 c 0
 375.5 330.5 295 269.5 206 269.5 c 0
 117.5 269.5 56 333 69 423 c 0
 75.5 465 99.5 500 126.5 530 c 1
 279 696 l 1
EndSplineSet
EndChar

StartChar: uni2077
Encoding: 8311 8311 171
Width: 360
VWidth: 0
Flags: HMW
LayerCount: 2
Fore
SplineSet
101.5 619.5 m 1
 115.5 700 l 1
 439 699.5 l 1
 169.5 281 l 1
 75.5 281 l 1
 295 618.5 l 1
 101.5 619.5 l 1
EndSplineSet
EndChar

StartChar: uni2078
Encoding: 8312 8312 172
Width: 339
VWidth: 0
Flags: HMW
LayerCount: 2
Fore
SplineSet
113 599.5 m 0
 122 664.5 189.5 708.5 259 708.5 c 0
 327 708.5 384.5 664.5 375 598.5 c 0
 366 529.5 296.5 488 229 488 c 0
 162.5 488 104 530.5 113 599.5 c 0
191.5 589.5 m 0
 188 562.5 203 537.5 231 536.5 c 0
 260 535.5 289.5 563 293.5 591 c 0
 297 618 283 642.5 254 643.5 c 0
 224 644.5 196 618.5 191.5 589.5 c 0
63 395 m 0
 73 473.5 155 516.5 226 516.5 c 0
 295.5 516.5 366.5 472 355.5 393 c 0
 345.5 321 268 271.5 192 271.5 c 0
 117.5 271.5 52.5 323 63 395 c 0
149.5 406 m 0
 144.5 371.5 165 344 198 343 c 0
 232 342 268 370.5 273 407 c 0
 277.5 438 257 468 224.5 469 c 0
 190.5 470 155 438.5 149.5 406 c 0
EndSplineSet
EndChar

StartChar: uni2079
Encoding: 8313 8313 173
Width: 358
VWidth: 0
Flags: HMW
LayerCount: 2
Fore
SplineSet
329 558 m 0
 335 599 313 634.5 270.5 635.5 c 0
 227 637.5 185.5 600 179 557 c 0
 173 516 195.5 479.5 238 478 c 0
 281.5 476 322.5 515 329 558 c 0
203.5 284 m 1
 91 285 l 1
 249 440 l 1
 267.5 444 l 1
 247 428 227 421.5 200.5 421.5 c 0
 131.5 422.5 86 486 95 558 c 0
 107 649.5 187 710.5 276 710.5 c 0
 364.5 710.5 426 647 413 557 c 0
 406.5 515 382 480 355 450 c 1
 203.5 284 l 1
EndSplineSet
EndChar

StartChar: uni2070
Encoding: 8304 8304 174
Width: 372
VWidth: 0
Flags: HMW
LayerCount: 2
Fore
SplineSet
161 490 m 0
 154 429 156.5 350.5 215.5 348.5 c 0
 275.5 346.5 316 422 326 490 c 0
 333 551 330 629.5 271 631.5 c 0
 211 633.5 171 558 161 490 c 0
78 490 m 0
 93 605 169 707.5 276 707.5 c 0
 386 707.5 422.5 599.5 409 490 c 0
 393.5 375 319 272.5 210 272.5 c 0
 101 272.5 64.5 381 78 490 c 0
EndSplineSet
EndChar

StartChar: uni2080
Encoding: 8320 8320 175
Width: 372
VWidth: 0
Flags: HMW
LayerCount: 2
Fore
SplineSet
113 210 m 0
 106 149 108.5 70.5 167.5 68.5 c 0
 227.5 66.5 268 142 278 210 c 0
 285 271 282 349.5 223 351.5 c 0
 163 353.5 123 278 113 210 c 0
30.5 210 m 0
 45.5 325 121.5 427.5 228.5 427.5 c 0
 338.5 427.5 374.5 319.5 361 210 c 0
 345.5 95 271 -7.5 162 -7.5 c 0
 53 -7.5 17 101 30.5 210 c 0
EndSplineSet
EndChar

StartChar: uni2084
Encoding: 8324 8324 176
Width: 404
VWidth: 0
Flags: HMW
LayerCount: 2
Fore
SplineSet
2 78.5 m 1
 81 141 l 1
 259 142 l 1
 271 152 l 1
 373.5 151 l 1
 360.5 78 l 1
 2 78.5 l 1
96.5 99 m 1
 -0.5 76.5 l 1
 294 419 l 1
 355.5 420 l 1
 283.5 0 l 1
 194.5 0 l 1
 211.5 99.5 l 1
 220 105.5 l 1
 250 275.5 l 1
 96.5 99 l 1
EndSplineSet
EndChar

StartChar: uni2085
Encoding: 8325 8325 177
Width: 372
VWidth: 0
Flags: HMW
LayerCount: 2
Fore
SplineSet
339 132.5 m 0
 327 41.5 242.5 -9 159.5 -9 c 0
 91 -9 45 19.5 9 56.5 c 1
 57 123 l 1
 82 94.5 112.5 70.5 150 70.5 c 0
 198 70.5 243 97.5 249 142 c 0
 254 184 221.5 208.5 181 210.5 c 0
 143 212.5 102.5 200.5 62 182 c 1
 123 228 l 1
 155 256.5 194 273 235 272 c 0
 307 271 349 208 339 132.5 c 0
210 342.5 m 1
 156.5 231 l 1
 56 177 l 1
 156 417.5 l 1
 381 418 l 1
 368 343 l 1
 210 342.5 l 1
EndSplineSet
EndChar

StartChar: uni2086
Encoding: 8326 8326 178
Width: 367
VWidth: 0
Flags: HMW
LayerCount: 2
Fore
SplineSet
107.5 142 m 0
 101.5 101 124.5 65.5 167 64.5 c 0
 210.5 62.5 251.5 100 258 143 c 0
 264 184 242 220 199.5 222 c 0
 156 224 114 185 107.5 142 c 0
233 416 m 1
 345.5 415 l 1
 187 260 l 1
 169.5 256 l 1
 190 272 209.5 278.5 236 278.5 c 0
 305 278.5 351 214 342 142 c 0
 330 50.5 250 -10.5 161 -10.5 c 0
 72.5 -10.5 10.5 53 23.5 143 c 0
 30 185 54 220 81 250 c 1
 233 416 l 1
EndSplineSet
EndChar

StartChar: uni2087
Encoding: 8327 8327 179
Width: 363
VWidth: 0
Flags: HMW
LayerCount: 2
Fore
SplineSet
57 339.5 m 1
 70.5 420 l 1
 393 419.5 l 1
 124.5 0 l 1
 30.5 0 l 1
 249.5 338.5 l 1
 57 339.5 l 1
EndSplineSet
EndChar

StartChar: uni2088
Encoding: 8328 8328 180
Width: 343
VWidth: 0
Flags: HMW
LayerCount: 2
Fore
SplineSet
68 319.5 m 0
 77 384.5 145 428.5 214.5 428.5 c 0
 282.5 428.5 340.5 384.5 331 318.5 c 0
 322 249.5 251 208 183.5 208 c 0
 117 208 59 250.5 68 319.5 c 0
147 309.5 m 0
 143.5 282.5 158 257.5 186 256.5 c 0
 215 255.5 245 283 249 311 c 0
 252.5 338 238.5 362.5 209.5 363.5 c 0
 179.5 364.5 151.5 338.5 147 309.5 c 0
18.5 115 m 0
 28.5 193.5 110.5 236.5 181.5 236.5 c 0
 251 236.5 321 192 310 113 c 0
 300 41 223 -8.5 147 -8.5 c 0
 72.5 -8.5 8 43 18.5 115 c 0
105 126 m 0
 100 91.5 119.5 64 152.5 63 c 0
 186.5 62 223.5 90.5 228.5 127 c 0
 233 158 212.5 188 180 189 c 0
 146 190 110.5 158.5 105 126 c 0
EndSplineSet
EndChar

StartChar: uni2089
Encoding: 8329 8329 181
Width: 370
VWidth: 0
Flags: HMW
LayerCount: 2
Fore
SplineSet
277.5 278 m 0
 283.5 319 261.5 354.5 219 355.5 c 0
 175.5 357.5 133.5 320 127 277 c 0
 121 236 143.5 199.5 186 198 c 0
 229.5 196 271 235 277.5 278 c 0
152.5 4 m 1
 39.5 5 l 1
 197.5 160 l 1
 216.5 164 l 1
 196 148 175 141.5 148.5 141.5 c 0
 79.5 142.5 34.5 206 43.5 278 c 0
 55.5 369.5 136 430.5 225 430.5 c 0
 313.5 430.5 374 367 361 277 c 0
 354.5 235 331 200 304 170 c 1
 152.5 4 l 1
EndSplineSet
EndChar

StartChar: uni2081
Encoding: 8321 8321 182
Width: 335
VWidth: 0
Flags: HMW
LayerCount: 2
Fore
SplineSet
112 310 m 1
 126 389.5 l 1
 314.5 429 l 1
 240 1.5 l 1
 157 1.5 l 1
 213 336 l 1
 112 310 l 1
EndSplineSet
EndChar

StartChar: uni2082
Encoding: 8322 8322 183
Width: 379
VWidth: 0
Flags: HMW
LayerCount: 2
Fore
SplineSet
-3 3 m 1
 215.5 202 l 2
 246.5 231 278.5 258.5 284.5 295.5 c 0
 288.5 323.5 274 352.5 237.5 354.5 c 0
 191.5 357.5 161 313.5 151 271 c 1
 65.5 271 l 1
 83.5 356.5 145.5 431 245.5 430 c 0
 332.5 430 383 364.5 372 296.5 c 0
 365 251 333.5 214 297 183.5 c 2
 175 82 l 1
 342 81 l 1
 328.5 2 l 1
 -3 3 l 1
EndSplineSet
EndChar

StartChar: uni2083
Encoding: 8323 8323 184
Width: 343
VWidth: 0
Flags: HMW
LayerCount: 2
Fore
SplineSet
156 205 m 1
 162.5 246 l 1
 205 250 245.5 270 252.5 308 c 0
 256.5 334 242 355.5 212 356.5 c 0
 178 357.5 154 330.5 145 303 c 1
 63.5 304 l 1
 80 373 136 427 217.5 427 c 0
 294 427 347.5 377 337 311.5 c 0
 324.5 236.5 240 208 156 205 c 1
146 -8.5 m 0
 56 -8.5 11.5 52.5 15.5 127 c 1
 98.5 126.5 l 1
 98.5 89.5 115.5 64.5 154 63.5 c 0
 190.5 62.5 225.5 87 230.5 123 c 0
 238.5 167 199.5 184.5 151.5 188 c 1
 159.5 232.5 l 1
 246 229.5 328 200 315 113 c 0
 304 39.5 230 -8.5 146 -8.5 c 0
EndSplineSet
EndChar

StartChar: Agrave
Encoding: 192 192 185
Width: 690
VWidth: 0
Flags: HMW
LayerCount: 2
Fore
SplineSet
167 158.5 m 1
 203 271.5 l 1
 531 272 l 1
 528 158 l 1
 167 158.5 l 1
402 472 m 1
 259 230.5 l 1
 257 198.5 l 1
 134 0 l 1
 -29.5 0 l 1
 444.5 744 l 1
 663 0 l 1
 506.5 0 l 1
 452 192.5 l 1
 460 229 l 1
 402 472 l 1
333 954 m 1
 440 1000.5 l 1
 561 838 l 1
 486 802 l 1
 333 954 l 1
EndSplineSet
EndChar

StartChar: Aacute
Encoding: 193 193 186
Width: 690
VWidth: 0
Flags: HMW
LayerCount: 2
Fore
SplineSet
167 158.5 m 1
 203 271.5 l 1
 531 272 l 1
 528 158 l 1
 167 158.5 l 1
402 472 m 1
 259 230.5 l 1
 257 198.5 l 1
 134 0 l 1
 -29.5 0 l 1
 444.5 744 l 1
 663 0 l 1
 506.5 0 l 1
 452 192.5 l 1
 460 229 l 1
 402 472 l 1
627.5 949 m 1
 430 803 l 1
 360 842.5 l 1
 531 999 l 1
 627.5 949 l 1
EndSplineSet
EndChar

StartChar: Acircumflex
Encoding: 194 194 187
Width: 690
VWidth: 0
Flags: HMW
LayerCount: 2
Fore
SplineSet
167 158.5 m 1
 203 271.5 l 1
 531 272 l 1
 528 158 l 1
 167 158.5 l 1
402 472 m 1
 259 230.5 l 1
 257 198.5 l 1
 134 0 l 1
 -29.5 0 l 1
 444.5 744 l 1
 663 0 l 1
 506.5 0 l 1
 452 192.5 l 1
 460 229 l 1
 402 472 l 1
470 867 m 1
 360.5 779.5 l 1
 281 843.5 l 1
 483 981 l 1
 643 839 l 1
 549 778.5 l 1
 470 867 l 1
EndSplineSet
EndChar

StartChar: Atilde
Encoding: 195 195 188
Width: 690
VWidth: 0
Flags: HMW
LayerCount: 2
Fore
SplineSet
167 158.5 m 1
 203 271.5 l 1
 531 272 l 1
 528 158 l 1
 167 158.5 l 1
402 472 m 1
 259 230.5 l 1
 257 198.5 l 1
 134 0 l 1
 -29.5 0 l 1
 444.5 744 l 1
 663 0 l 1
 506.5 0 l 1
 452 192.5 l 1
 460 229 l 1
 402 472 l 1
280.5 849 m 1
 301 894.5 347 939 405 937.5 c 0
 459 936.5 476.5 887.5 525.5 889 c 0
 552.5 890 575 913.5 596 939 c 1
 650.5 872 l 1
 625.5 835.5 574 791 518 793 c 0
 470 795 441.5 845.5 396.5 843 c 0
 362 841 348.5 811.5 340 793.5 c 1
 280.5 849 l 1
EndSplineSet
EndChar

StartChar: Adieresis
Encoding: 196 196 189
Width: 690
VWidth: 0
Flags: HMW
LayerCount: 2
Fore
SplineSet
167 158.5 m 1
 203 271.5 l 1
 531 272 l 1
 528 158 l 1
 167 158.5 l 1
402 472 m 1
 259 230.5 l 1
 257 198.5 l 1
 134 0 l 1
 -29.5 0 l 1
 444.5 744 l 1
 663 0 l 1
 506.5 0 l 1
 452 192.5 l 1
 460 229 l 1
 402 472 l 1
509 837 m 0
 514 876 555 910.5 596 909.5 c 0
 637.5 908.5 667 875 662 835 c 0
 657 796 616 761.5 575 762.5 c 0
 533.5 763.5 504 797 509 837 c 0
256.5 841.5 m 0
 261.5 880.5 303 914.5 344 913.5 c 0
 385.5 912.5 415 879 410 839 c 0
 405 800 364 766 323 767 c 0
 281.5 768 251.5 801.5 256.5 841.5 c 0
EndSplineSet
EndChar

StartChar: Aring
Encoding: 197 197 190
Width: 690
VWidth: 0
Flags: HMW
LayerCount: 2
Fore
SplineSet
167 158.5 m 1
 203 271.5 l 1
 531 272 l 1
 528 158 l 1
 167 158.5 l 1
402 472 m 1
 259 230.5 l 1
 257 198.5 l 1
 134 0 l 1
 -29.5 0 l 1
 444.5 744 l 1
 663 0 l 1
 506.5 0 l 1
 452 192.5 l 1
 460 229 l 1
 402 472 l 1
339.5 801 m 0
 348 863 407.5 910 470.5 910 c 0
 533.5 910 579.5 861.5 571 799 c 0
 562.5 737 502 689.5 439 689.5 c 0
 376 689.5 331 739 339.5 801 c 0
408 799 m 0
 405 774.5 421 752 444 751 c 0
 468.5 749 498 775 501 800.5 c 0
 504 825 488.5 847.5 465.5 848.5 c 0
 441 850.5 411 824.5 408 799 c 0
EndSplineSet
EndChar

StartChar: AE
Encoding: 198 198 191
Width: 1015
VWidth: 0
Flags: HMW
LayerCount: 2
Fore
SplineSet
247 168.5 m 1
 274 301 l 1
 568 301 l 1
 545 168 l 1
 247 168.5 l 1
519.5 700 m 1
 642.5 658 l 1
 160 0 l 1
 -18 0 l 1
 519.5 700 l 1
557.5 0 m 1
 578 122 l 1
 944 122 l 1
 923 0 l 1
 557.5 0 l 1
668 578 m 1
 519.5 700 l 1
 1043 700 l 1
 1022 578 l 1
 668 578 l 1
610.5 312 m 1
 630.5 431 l 1
 978 431 l 1
 957 312 l 1
 610.5 312 l 1
607 700 m 1
 758 700 l 1
 638 0 l 1
 488 0 l 1
 607 700 l 1
EndSplineSet
EndChar

StartChar: Ccedilla
Encoding: 199 199 192
Width: 674
VWidth: 0
Flags: HMW
LayerCount: 2
Fore
SplineSet
220 350 m 0
 200.5 228 271 126 394 124.5 c 0
 487.5 123.5 562.5 168 621 219 c 1
 597 58 l 1
 533.5 13.5 465.5 -14 373 -14 c 0
 163 -13 37 151 66 350 c 0
 97.5 557 274 714 488 714 c 0
 576 714 637.5 688.5 694 641 c 1
 669 480 l 1
 626.5 538 566 575.5 479.5 575.5 c 0
 354.5 575 242 478.5 220 350 c 0
332 51 m 1
 430 48 l 1
 329 -70 l 1
 337 -68 345.5 -68 354.5 -68 c 0
 397 -71 433 -106 426.5 -159 c 0
 418 -223 351.5 -261 291.5 -262 c 0
 244 -263 208.5 -249 169.5 -222 c 1
 218.5 -164.5 l 1
 239 -179.5 261.5 -188 284 -188 c 0
 311 -188 343 -174 345 -151 c 0
 347 -127.5 320.5 -118.5 297 -118 c 0
 279 -117 247 -124.5 218.5 -134.5 c 1
 332 51 l 1
EndSplineSet
EndChar

StartChar: Egrave
Encoding: 200 200 193
Width: 569
VWidth: 0
Flags: HMW
LayerCount: 2
Fore
SplineSet
135 0 m 1
 156 122 l 1
 502 122 l 1
 481 0 l 1
 135 0 l 1
234 578.5 m 1
 255 700 l 1
 600.5 700 l 1
 579.5 578 l 1
 234 578.5 l 1
189 312 m 1
 209 431 l 1
 535 431 l 1
 514 312 l 1
 189 312 l 1
164.5 700 m 1
 303 700 l 1
 183 0 l 1
 46 0 l 1
 164.5 700 l 1
273 930 m 1
 380 978 l 1
 500.5 816 l 1
 426 778 l 1
 273 930 l 1
EndSplineSet
EndChar

StartChar: Eacute
Encoding: 201 201 194
Width: 569
VWidth: 0
Flags: HMW
LayerCount: 2
Fore
SplineSet
135 0 m 1
 156 122 l 1
 502 122 l 1
 481 0 l 1
 135 0 l 1
234 578.5 m 1
 255 700 l 1
 600.5 700 l 1
 579.5 578 l 1
 234 578.5 l 1
189 312 m 1
 209 431 l 1
 535 431 l 1
 514 312 l 1
 189 312 l 1
164.5 700 m 1
 303 700 l 1
 183 0 l 1
 46 0 l 1
 164.5 700 l 1
567.5 925 m 1
 369.5 779 l 1
 300.5 820 l 1
 471.5 977 l 1
 567.5 925 l 1
EndSplineSet
EndChar

StartChar: Ecircumflex
Encoding: 202 202 195
Width: 569
VWidth: 0
Flags: HMW
LayerCount: 2
Fore
SplineSet
135 0 m 1
 156 122 l 1
 502 122 l 1
 481 0 l 1
 135 0 l 1
234 578.5 m 1
 255 700 l 1
 600.5 700 l 1
 579.5 578 l 1
 234 578.5 l 1
189 312 m 1
 209 431 l 1
 535 431 l 1
 514 312 l 1
 189 312 l 1
164.5 700 m 1
 303 700 l 1
 183 0 l 1
 46 0 l 1
 164.5 700 l 1
422 877 m 1
 298 784 l 1
 252 826 l 1
 429.5 964 l 1
 564.5 822 l 1
 512 784 l 1
 422 877 l 1
EndSplineSet
EndChar

StartChar: Edieresis
Encoding: 203 203 196
Width: 569
VWidth: 0
Flags: HMW
LayerCount: 2
Fore
SplineSet
135 0 m 1
 156 122 l 1
 502 122 l 1
 481 0 l 1
 135 0 l 1
234 578.5 m 1
 255 700 l 1
 600.5 700 l 1
 579.5 578 l 1
 234 578.5 l 1
189 312 m 1
 209 431 l 1
 535 431 l 1
 514 312 l 1
 189 312 l 1
164.5 700 m 1
 303 700 l 1
 183 0 l 1
 46 0 l 1
 164.5 700 l 1
450 861 m 0
 455 900 496 934 537 933 c 0
 578.5 932 609 898.5 604 858.5 c 0
 599 819.5 558 785.5 517 786.5 c 0
 475.5 787.5 445 821 450 861 c 0
226.5 861 m 0
 231.5 900 272 934 313 933 c 0
 354.5 932 385 898.5 380 858.5 c 0
 375 819.5 334.5 785.5 293.5 786.5 c 0
 252 787.5 221.5 821 226.5 861 c 0
EndSplineSet
EndChar

StartChar: Igrave
Encoding: 204 204 197
Width: 288
VWidth: 0
Flags: HMW
LayerCount: 2
Fore
SplineSet
164.5 700 m 1
 309.5 700 l 1
 189 0 l 1
 46 0 l 1
 164.5 700 l 1
123.5 930 m 1
 230.5 978 l 1
 351 816 l 1
 276 778 l 1
 123.5 930 l 1
EndSplineSet
EndChar

StartChar: Iacute
Encoding: 205 205 198
Width: 288
VWidth: 0
Flags: HMW
LayerCount: 2
Fore
SplineSet
164.5 700 m 1
 309.5 700 l 1
 189 0 l 1
 46 0 l 1
 164.5 700 l 1
418 925 m 1
 220 779 l 1
 151.5 820 l 1
 322.5 977 l 1
 418 925 l 1
EndSplineSet
EndChar

StartChar: Icircumflex
Encoding: 206 206 199
Width: 288
VWidth: 0
Flags: HMW
LayerCount: 2
Fore
SplineSet
164.5 700 m 1
 309.5 700 l 1
 189 0 l 1
 46 0 l 1
 164.5 700 l 1
268 869.5 m 1
 151 779 l 1
 86 832 l 1
 276 970 l 1
 424 828 l 1
 353 779 l 1
 268 869.5 l 1
EndSplineSet
EndChar

StartChar: Idieresis
Encoding: 207 207 200
Width: 288
VWidth: 0
Flags: HMW
LayerCount: 2
Fore
SplineSet
164.5 700 m 1
 309.5 700 l 1
 189 0 l 1
 46 0 l 1
 164.5 700 l 1
297.5 849.5 m 0
 302.5 888.5 343 922.5 384 921.5 c 0
 425.5 920.5 456 887 451 847 c 0
 446 808 405 773.5 364 774.5 c 0
 322 775.5 292.5 809.5 297.5 849.5 c 0
74 849.5 m 0
 79 888.5 118.5 922.5 159.5 921.5 c 0
 201 920.5 232 887 227 847 c 0
 222 808 180.5 773.5 139.5 774.5 c 0
 97.5 775.5 69 809.5 74 849.5 c 0
EndSplineSet
EndChar

StartChar: Ntilde
Encoding: 209 209 201
Width: 763
VWidth: 0
Flags: HMW
LayerCount: 2
Fore
SplineSet
647.5 700 m 1
 785 700 l 1
 659.5 -33.5 l 1
 258 433 l 1
 183 0 l 1
 45 0 l 1
 170 733.5 l 1
 572.5 267 l 1
 647.5 700 l 1
291 822 m 1
 311.5 867.5 357 913 415 911.5 c 0
 469 910.5 486 860.5 535 862 c 0
 562 863 585.5 887 606.5 912.5 c 1
 660 846 l 1
 635 809.5 583 764.5 527 766.5 c 0
 479 768.5 451 819 406 816.5 c 0
 371.5 814.5 357.5 784.5 349 766.5 c 1
 291 822 l 1
EndSplineSet
EndChar

StartChar: Eth
Encoding: 208 208 202
Width: 695
VWidth: 0
Flags: HMW
LayerCount: 2
Fore
SplineSet
30 305 m 1
 46 397 l 1
 372.5 397 l 1
 356.5 304 l 1
 30 305 l 1
164.5 700 m 1
 311 700 l 1
 191 0 l 1
 46 0 l 1
 164.5 700 l 1
282 0 m 1
 134.5 0 l 1
 157.5 131 l 1
 292 131 l 1
 420.5 134 526.5 211 549.5 350 c 0
 570.5 483.5 500.5 566 375 569 c 1
 232 569.5 l 1
 255 700 l 1
 393 700 l 1
 604 697 725.5 550 695.5 350 c 0
 663.5 143.5 498 3 282 0 c 1
EndSplineSet
EndChar

StartChar: Ograve
Encoding: 210 210 203
Width: 787
VWidth: 0
Flags: HMW
LayerCount: 2
Fore
SplineSet
216 350 m 0
 197.5 232 254.5 121.5 383 120.5 c 0
 513.5 119.5 615.5 225 637 350 c 0
 656 468 600.5 578.5 470 579.5 c 0
 339.5 580.5 237 475 216 350 c 0
66 350 m 0
 97 554 274 714 484 714 c 0
 692 714 815.5 546.5 787 350 c 0
 756 146 581.5 -18.5 368 -18 c 0
 157.5 -17.5 37.5 153.5 66 350 c 0
390 930 m 1
 496 978 l 1
 617 816 l 1
 542 778 l 1
 390 930 l 1
EndSplineSet
EndChar

StartChar: Oacute
Encoding: 211 211 204
Width: 787
VWidth: 0
Flags: HMW
LayerCount: 2
Fore
SplineSet
216 350 m 0
 197.5 232 254.5 121.5 383 120.5 c 0
 513.5 119.5 615.5 225 637 350 c 0
 656 468 600.5 578.5 470 579.5 c 0
 339.5 580.5 237 475 216 350 c 0
66 350 m 0
 97 554 274 714 484 714 c 0
 692 714 815.5 546.5 787 350 c 0
 756 146 581.5 -18.5 368 -18 c 0
 157.5 -17.5 37.5 153.5 66 350 c 0
672 925 m 1
 474.5 779 l 1
 406 820 l 1
 576.5 977 l 1
 672 925 l 1
EndSplineSet
EndChar

StartChar: Ocircumflex
Encoding: 212 212 205
Width: 787
VWidth: 0
Flags: HMW
LayerCount: 2
Fore
SplineSet
216 350 m 0
 197.5 232 254.5 121.5 383 120.5 c 0
 513.5 119.5 615.5 225 637 350 c 0
 656 468 600.5 578.5 470 579.5 c 0
 339.5 580.5 237 475 216 350 c 0
66 350 m 0
 97 554 274 714 484 714 c 0
 692 714 815.5 546.5 787 350 c 0
 756 146 581.5 -18.5 368 -18 c 0
 157.5 -17.5 37.5 153.5 66 350 c 0
526.5 877 m 1
 402.5 784 l 1
 357 826 l 1
 535 964 l 1
 670 822 l 1
 617 784 l 1
 526.5 877 l 1
EndSplineSet
EndChar

StartChar: Otilde
Encoding: 213 213 206
Width: 787
VWidth: 0
Flags: HMW
LayerCount: 2
Fore
SplineSet
216 350 m 0
 197.5 232 254.5 121.5 383 120.5 c 0
 513.5 119.5 615.5 225 637 350 c 0
 656 468 600.5 578.5 470 579.5 c 0
 339.5 580.5 237 475 216 350 c 0
66 350 m 0
 97 554 274 714 484 714 c 0
 692 714 815.5 546.5 787 350 c 0
 756 146 581.5 -18.5 368 -18 c 0
 157.5 -17.5 37.5 153.5 66 350 c 0
350 833.5 m 1
 350 878 425.5 913.5 462 913 c 0
 514 912 527.5 865.5 574.5 867 c 0
 598 868 618.5 889.5 638.5 914 c 1
 679 870 l 1
 656 836 616 797 567 799 c 0
 520.5 800.5 498.5 846 457 845 c 0
 421.5 844 406.5 812.5 398 794.5 c 1
 350 833.5 l 1
EndSplineSet
EndChar

StartChar: Odieresis
Encoding: 214 214 207
Width: 787
VWidth: 0
Flags: HMW
LayerCount: 2
Fore
SplineSet
216 350 m 0
 197.5 232 254.5 121.5 383 120.5 c 0
 513.5 119.5 615.5 225 637 350 c 0
 656 468 600.5 578.5 470 579.5 c 0
 339.5 580.5 237 475 216 350 c 0
66 350 m 0
 97 554 274 714 484 714 c 0
 692 714 815.5 546.5 787 350 c 0
 756 146 581.5 -18.5 368 -18 c 0
 157.5 -17.5 37.5 153.5 66 350 c 0
546.5 849.5 m 0
 551.5 888.5 592.5 922.5 633.5 921.5 c 0
 675 920.5 706 887 701 847 c 0
 696 808 654.5 773.5 613.5 774.5 c 0
 572 775.5 541.5 809.5 546.5 849.5 c 0
323 849.5 m 0
 328 888.5 368.5 922.5 409.5 921.5 c 0
 451 920.5 481.5 887 476.5 847 c 0
 471.5 808 431 773.5 390 774.5 c 0
 348.5 775.5 318 809.5 323 849.5 c 0
EndSplineSet
EndChar

StartChar: Ugrave
Encoding: 217 217 208
Width: 658
VWidth: 0
Flags: HMW
LayerCount: 2
Fore
SplineSet
160.5 700 m 1
 302 700 l 1
 221.5 238 l 2
 212.5 169 237.5 108.5 316.5 107.5 c 0
 396.5 106.5 448 166 462 238.5 c 1
 542 700 l 1
 684 700 l 1
 604 230 l 2
 578 76.5 457.5 -23 302.5 -23 c 0
 151.5 -23 60.5 79 80.5 230 c 1
 160.5 700 l 1
312.5 926 m 1
 418.5 974 l 1
 539.5 811.5 l 1
 464.5 774 l 1
 312.5 926 l 1
EndSplineSet
EndChar

StartChar: Uacute
Encoding: 218 218 209
Width: 658
VWidth: 0
Flags: HMW
LayerCount: 2
Fore
SplineSet
160.5 700 m 1
 302 700 l 1
 221.5 238 l 2
 212.5 169 237.5 108.5 316.5 107.5 c 0
 396.5 106.5 448 166 462 238.5 c 1
 542 700 l 1
 684 700 l 1
 604 230 l 2
 578 76.5 457.5 -23 302.5 -23 c 0
 151.5 -23 60.5 79 80.5 230 c 1
 160.5 700 l 1
609 921 m 1
 411 775 l 1
 341 816 l 1
 512 973 l 1
 609 921 l 1
EndSplineSet
EndChar

StartChar: Ucircumflex
Encoding: 219 219 210
Width: 658
VWidth: 0
Flags: HMW
LayerCount: 2
Fore
SplineSet
160.5 700 m 1
 302 700 l 1
 221.5 238 l 2
 212.5 169 237.5 108.5 316.5 107.5 c 0
 396.5 106.5 448 166 462 238.5 c 1
 542 700 l 1
 684 700 l 1
 604 230 l 2
 578 76.5 457.5 -23 302.5 -23 c 0
 151.5 -23 60.5 79 80.5 230 c 1
 160.5 700 l 1
452.5 862 m 1
 343 774.5 l 1
 264 838.5 l 1
 465.5 976 l 1
 626 834 l 1
 531 774 l 1
 452.5 862 l 1
EndSplineSet
EndChar

StartChar: Udieresis
Encoding: 220 220 211
Width: 658
VWidth: 0
Flags: HMW
LayerCount: 2
Fore
SplineSet
160.5 700 m 1
 302 700 l 1
 221.5 238 l 2
 212.5 169 237.5 108.5 316.5 107.5 c 0
 396.5 106.5 448 166 462 238.5 c 1
 542 700 l 1
 684 700 l 1
 604 230 l 2
 578 76.5 457.5 -23 302.5 -23 c 0
 151.5 -23 60.5 79 80.5 230 c 1
 160.5 700 l 1
495 849.5 m 0
 500 888.5 541 922.5 582 921.5 c 0
 623.5 920.5 653.5 887 648.5 847 c 0
 643.5 808 603 773.5 562 774.5 c 0
 520.5 775.5 490 809.5 495 849.5 c 0
245.5 849.5 m 0
 250.5 888.5 291.5 922.5 332.5 921.5 c 0
 374 920.5 404 887 399 847 c 0
 394 808 353 773.5 312 774.5 c 0
 270.5 775.5 240.5 809.5 245.5 849.5 c 0
EndSplineSet
EndChar

StartChar: Yacute
Encoding: 221 221 212
Width: 611
VWidth: 0
Flags: HMW
LayerCount: 2
Fore
SplineSet
584 921 m 1
 386.5 774.5 l 1
 318 816 l 1
 489 973 l 1
 584 921 l 1
541 699.5 m 1
 707 699.5 l 1
 400 286.5 l 1
 351 0 l 1
 206 0 l 1
 258 293 l 1
 94.5 700 l 1
 253 700 l 1
 348.5 421 l 1
 541 699.5 l 1
EndSplineSet
EndChar

StartChar: agrave
Encoding: 224 224 213
Width: 584
VWidth: 0
Flags: HMW
LayerCount: 2
Fore
SplineSet
452 460 m 1
 579 460 l 1
 499.5 0 l 1
 374 0 l 1
 452 460 l 1
42.5 230 m 0
 61 366.5 171 471 295.5 470 c 0
 419 469 467 354.5 451 230 c 0
 433 98.5 344.5 -9.5 222 -9.5 c 0
 97 -9.5 25.5 99 42.5 230 c 0
176 230 m 0
 166 161 200 99.5 270 98.5 c 0
 334 97.5 398.5 157 410.5 230 c 0
 420 299 384.5 359.5 322 361.5 c 0
 251 363.5 188 303 176 230 c 0
211.5 682 m 1
 318 729.5 l 1
 438 567 l 1
 364 530 l 1
 211.5 682 l 1
EndSplineSet
Substitution2: "alt a" agrave.alt
EndChar

StartChar: aacute
Encoding: 225 225 214
Width: 584
VWidth: 0
Flags: HMW
LayerCount: 2
Fore
SplineSet
452 460 m 1
 579 460 l 1
 499.5 0 l 1
 374 0 l 1
 452 460 l 1
42.5 230 m 0
 61 366.5 171 471 295.5 470 c 0
 419 469 467 354.5 451 230 c 0
 433 98.5 344.5 -9.5 222 -9.5 c 0
 97 -9.5 25.5 99 42.5 230 c 0
176 230 m 0
 166 161 200 99.5 270 98.5 c 0
 334 97.5 398.5 157 410.5 230 c 0
 420 299 384.5 359.5 322 361.5 c 0
 251 363.5 188 303 176 230 c 0
509.5 677 m 1
 311.5 531 l 1
 242.5 571.5 l 1
 413.5 728.5 l 1
 509.5 677 l 1
EndSplineSet
Substitution2: "alt a" aacute.alt
EndChar

StartChar: acircumflex
Encoding: 226 226 215
Width: 584
VWidth: 0
Flags: HMW
LayerCount: 2
Fore
SplineSet
452 460 m 1
 579 460 l 1
 499.5 0 l 1
 374 0 l 1
 452 460 l 1
42.5 230 m 0
 61 366.5 171 471 295.5 470 c 0
 419 469 467 354.5 451 230 c 0
 433 98.5 344.5 -9.5 222 -9.5 c 0
 97 -9.5 25.5 99 42.5 230 c 0
176 230 m 0
 166 161 200 99.5 270 98.5 c 0
 334 97.5 398.5 157 410.5 230 c 0
 420 299 384.5 359.5 322 361.5 c 0
 251 363.5 188 303 176 230 c 0
377 617.5 m 1
 268 530.5 l 1
 188.5 594.5 l 1
 390 732 l 1
 551.5 590 l 1
 456.5 530 l 1
 377 617.5 l 1
EndSplineSet
Substitution2: "alt a" acircumflex.alt
EndChar

StartChar: atilde
Encoding: 227 227 216
Width: 584
VWidth: 0
Flags: HMW
LayerCount: 2
Fore
SplineSet
452 460 m 1
 579 460 l 1
 499.5 0 l 1
 374 0 l 1
 452 460 l 1
42.5 230 m 0
 61 366.5 171 471 295.5 470 c 0
 419 469 467 354.5 451 230 c 0
 433 98.5 344.5 -9.5 222 -9.5 c 0
 97 -9.5 25.5 99 42.5 230 c 0
176 230 m 0
 166 161 200 99.5 270 98.5 c 0
 334 97.5 398.5 157 410.5 230 c 0
 420 299 384.5 359.5 322 361.5 c 0
 251 363.5 188 303 176 230 c 0
191 589 m 1
 211 636.5 257.5 678 315 678 c 0
 369 678 385.5 627 435 628.5 c 0
 462 629.5 485.5 654 506.5 679.5 c 1
 560 612.5 l 1
 535 576 483 531 427 533 c 0
 379 535 351 586 306 583.5 c 0
 271.5 581.5 257.5 551.5 249 533.5 c 1
 191 589 l 1
EndSplineSet
Substitution2: "alt a" atilde.alt
EndChar

StartChar: adieresis
Encoding: 228 228 217
Width: 584
VWidth: 0
Flags: HMW
LayerCount: 2
Fore
SplineSet
452 460 m 1
 579 460 l 1
 499.5 0 l 1
 374 0 l 1
 452 460 l 1
42.5 230 m 0
 61 366.5 171 471 295.5 470 c 0
 419 469 467 354.5 451 230 c 0
 433 98.5 344.5 -9.5 222 -9.5 c 0
 97 -9.5 25.5 99 42.5 230 c 0
176 230 m 0
 166 161 200 99.5 270 98.5 c 0
 334 97.5 398.5 157 410.5 230 c 0
 420 299 384.5 359.5 322 361.5 c 0
 251 363.5 188 303 176 230 c 0
403 605 m 0
 408 644 449 678.5 490 677.5 c 0
 531.5 676.5 561 643 556 603 c 0
 551 564 511 530 470 531 c 0
 428.5 532 398 565 403 605 c 0
179 605 m 0
 184 644 224.5 678.5 265.5 677.5 c 0
 307 676.5 337 643 332 603 c 0
 327 564 286.5 530 245.5 531 c 0
 204 532 174 565 179 605 c 0
EndSplineSet
Substitution2: "alt a" adieresis.alt
EndChar

StartChar: aring
Encoding: 229 229 218
Width: 584
VWidth: 0
Flags: HMW
LayerCount: 2
Fore
SplineSet
452 460 m 1
 579 460 l 1
 499.5 0 l 1
 374 0 l 1
 452 460 l 1
42.5 230 m 0
 61 366.5 171 471 295.5 470 c 0
 419 469 467 354.5 451 230 c 0
 433 98.5 344.5 -9.5 222 -9.5 c 0
 97 -9.5 25.5 99 42.5 230 c 0
176 230 m 0
 166 161 200 99.5 270 98.5 c 0
 334 97.5 398.5 157 410.5 230 c 0
 420 299 384.5 359.5 322 361.5 c 0
 251 363.5 188 303 176 230 c 0
243 641.5 m 0
 251.5 703.5 311 751 374 751 c 0
 437 751 483 702.5 474.5 640 c 0
 466 578 406 530 343 530 c 0
 280 530 234.5 579.5 243 641.5 c 0
312 640 m 0
 309 615.5 324.5 592.5 348 592.5 c 0
 372.5 592.5 402.5 616 405.5 641.5 c 0
 408.5 666 392.5 689 369 689 c 0
 344.5 689 315 665.5 312 640 c 0
EndSplineSet
Substitution2: "alt a" aring.alt
EndChar

StartChar: germandbls
Encoding: 223 223 219
Width: 591
VWidth: 0
Flags: HMW
LayerCount: 2
Fore
SplineSet
372.5 -12 m 0
 316.5 -12 252.5 8 218.5 36 c 1
 255 136 l 1
 283 112 320 96 354 96 c 0
 408 96 446 136 446 186 c 0
 446 288 310 292.5 310 388.5 c 0
 310 480.5 455 507 455 608 c 0
 455 658 421.5 680 374.5 680 c 0
 308.5 680 266 640 254 562 c 2
 160 -2 l 1
 29 -2 l 1
 124 569 l 2
 145.5 704 226 796 390.5 796 c 0
 504.5 796 590 731 590 630 c 0
 590 491 449 463 449 397 c 0
 449 331 581 334 581 190 c 0
 581 78 488.5 -12 372.5 -12 c 0
EndSplineSet
EndChar

StartChar: ae
Encoding: 230 230 220
Width: 860
VWidth: 0
Flags: HMW
LayerCount: 2
Fore
SplineSet
186 -10 m 0
 68 -10 9.5 44.5 16.5 124.5 c 0
 22.5 213.5 110 281 231 281 c 0
 288 281 333.5 268 410.5 226 c 1
 350 226 l 1
 361.5 293.5 l 2
 368.5 345 340.5 370 290 370 c 0
 246 370 183.5 352 143.5 328 c 1
 105 418 l 1
 175 454 243 472 309 472 c 0
 405 472 456 435 451.5 359 c 1
 435 350.5 l 1
 480 422.5 558.5 470 658 470 c 0
 783 470 854 391.5 843 256 c 0
 841.5 233.5 836.5 213.5 832 202 c 1
 463.5 202 l 1
 486 220 l 1
 475.5 143.5 504 89 578 89 c 0
 632 89 678.5 112 706 156 c 1
 818.5 120 l 1
 760.5 33 673 -10 569 -10 c 0
 469 -10 409.5 26 385 105 c 1
 399.5 104 l 1
 367.5 32 293 -10 186 -10 c 0
221 80 m 0
 288.5 80 332 116 350.5 188 c 1
 344.5 128 l 1
 345 203 l 1
 360.5 176 l 1
 329 196 290 206 250 206 c 0
 191.5 206 150.5 180.5 148.5 134.5 c 0
 147 96.5 169 80 221 80 c 0
486 237 m 1
 470.5 281 l 1
 730.5 281 l 1
 705 250 l 1
 708 257 708 258 708 266 c 0
 712 337 689.5 378 624.5 378 c 0
 552.5 378 506 327 486 237 c 1
EndSplineSet
EndChar

StartChar: ccedilla
Encoding: 231 231 221
Width: 473
VWidth: 0
Flags: HMW
LayerCount: 2
Fore
SplineSet
171 230 m 0
 159.5 159 199.5 99 273 97.5 c 0
 334 96.5 391.5 129 427 169 c 1
 407.5 36.5 l 1
 368 7.5 316.5 -10 255 -10 c 0
 113.5 -10 20.5 95 40 230 c 0
 61 369.5 183.5 470 328.5 470 c 0
 388 470 435 452.5 471 424 c 1
 450.5 290 l 1
 428 335 380.5 363 326.5 362.5 c 0
 251.5 362 184 303 171 230 c 0
217 59 m 1
 313 57 l 1
 213.5 -62 l 1
 221.5 -60 230 -59 239 -59 c 0
 281.5 -62 317 -98 310.5 -151 c 0
 302 -215 235.5 -252.5 175.5 -253.5 c 0
 128 -254.5 93 -240.5 54 -213.5 c 1
 102.5 -155.5 l 1
 123 -170.5 145.5 -180 168 -180 c 0
 195 -180 226.5 -164.5 228.5 -141.5 c 0
 230.5 -118 205 -110.5 181.5 -110 c 0
 163.5 -109 131.5 -115 103 -125 c 1
 217 59 l 1
EndSplineSet
EndChar

StartChar: egrave
Encoding: 232 232 222
Width: 538
VWidth: 0
Flags: HMW
LayerCount: 2
Fore
SplineSet
112.5 202 m 1
 125 280.5 l 1
 390 281 l 1
 389.5 334 372 377 312.5 378 c 0
 243.5 380 192.5 323.5 178.5 255.5 c 1
 171.5 230 l 1
 160.5 152 186 92 258 89.5 c 0
 313.5 87.5 359 118 390 155 c 1
 499 118 l 1
 441 42 365 -11 249 -10 c 0
 102 -9 24.5 97.5 43 230 c 0
 45.5 247 49 263 54.5 279 c 0
 90.5 390.5 191 470 323 470 c 0
 468.5 470 538 370.5 521 236 c 0
 520 226 517.5 215 514.5 202 c 1
 112.5 202 l 1
211.5 688 m 1
 317.5 735.5 l 1
 438.5 573 l 1
 364 536 l 1
 211.5 688 l 1
EndSplineSet
EndChar

StartChar: eacute
Encoding: 233 233 223
Width: 538
VWidth: 0
Flags: HMW
LayerCount: 2
Fore
SplineSet
112.5 202 m 1
 125 280.5 l 1
 390 281 l 1
 389.5 334 372 377 312.5 378 c 0
 243.5 380 192.5 323.5 178.5 255.5 c 1
 171.5 230 l 1
 160.5 152 186 92 258 89.5 c 0
 313.5 87.5 359 118 390 155 c 1
 499 118 l 1
 441 42 365 -11 249 -10 c 0
 102 -9 24.5 97.5 43 230 c 0
 45.5 247 49 263 54.5 279 c 0
 90.5 390.5 191 470 323 470 c 0
 468.5 470 538 370.5 521 236 c 0
 520 226 517.5 215 514.5 202 c 1
 112.5 202 l 1
529.5 683 m 1
 331.5 537 l 1
 262 577.5 l 1
 433 734 l 1
 529.5 683 l 1
EndSplineSet
EndChar

StartChar: ecircumflex
Encoding: 234 234 224
Width: 538
VWidth: 0
Flags: HMW
LayerCount: 2
Fore
SplineSet
112.5 202 m 1
 125 280.5 l 1
 390 281 l 1
 389.5 334 372 377 312.5 378 c 0
 243.5 380 192.5 323.5 178.5 255.5 c 1
 171.5 230 l 1
 160.5 152 186 92 258 89.5 c 0
 313.5 87.5 359 118 390 155 c 1
 499 118 l 1
 441 42 365 -11 249 -10 c 0
 102 -9 24.5 97.5 43 230 c 0
 45.5 247 49 263 54.5 279 c 0
 90.5 390.5 191 470 323 470 c 0
 468.5 470 538 370.5 521 236 c 0
 520 226 517.5 215 514.5 202 c 1
 112.5 202 l 1
356 617.5 m 1
 247 530.5 l 1
 167 594.5 l 1
 368.5 732 l 1
 529.5 590 l 1
 435 530 l 1
 356 617.5 l 1
EndSplineSet
EndChar

StartChar: edieresis
Encoding: 235 235 225
Width: 538
VWidth: 0
Flags: HMW
LayerCount: 2
Fore
SplineSet
112.5 202 m 1
 125 280.5 l 1
 390 281 l 1
 389.5 334 372 377 312.5 378 c 0
 243.5 380 192.5 323.5 178.5 255.5 c 1
 171.5 230 l 1
 160.5 152 186 92 258 89.5 c 0
 313.5 87.5 359 118 390 155 c 1
 499 118 l 1
 441 42 365 -11 249 -10 c 0
 102 -9 24.5 97.5 43 230 c 0
 45.5 247 49 263 54.5 279 c 0
 90.5 390.5 191 470 323 470 c 0
 468.5 470 538 370.5 521 236 c 0
 520 226 517.5 215 514.5 202 c 1
 112.5 202 l 1
385.5 605 m 0
 390.5 644 431 678.5 472 677.5 c 0
 513.5 676.5 544 643 539 603 c 0
 534 564 493 530 452 531 c 0
 410.5 532 380.5 565 385.5 605 c 0
161.5 605 m 0
 166.5 644 207.5 678.5 248.5 677.5 c 0
 290 676.5 320.5 643 315.5 603 c 0
 310.5 564 269 530 228 531 c 0
 186.5 532 156.5 565 161.5 605 c 0
EndSplineSet
EndChar

StartChar: igrave
Encoding: 236 236 226
Width: 262
VWidth: 0
Flags: HMW
LayerCount: 2
Fore
SplineSet
119.5 460 m 1
 246 460 l 1
 166 0 l 1
 42 0 l 1
 119.5 460 l 1
53.5 694 m 1
 159.5 740 l 1
 280 578 l 1
 206 542 l 1
 53.5 694 l 1
EndSplineSet
EndChar

StartChar: dotlessi
Encoding: 305 305 227
Width: 262
VWidth: 0
Flags: HMW
LayerCount: 2
Fore
SplineSet
119.5 460 m 1
 246 460 l 1
 166 0 l 1
 42 0 l 1
 119.5 460 l 1
EndSplineSet
EndChar

StartChar: kgreenlandic
Encoding: 312 312 228
Width: 519
VWidth: 0
Flags: HMW
LayerCount: 2
Fore
SplineSet
110 460 m 1
 234.5 460 l 1
 155.5 0 l 1
 32 0 l 1
 110 460 l 1
393 459.5 m 1
 552.5 459.5 l 1
 323 267 l 1
 487 0 l 1
 340.5 0 l 1
 172 273.5 l 1
 393 459.5 l 1
EndSplineSet
EndChar

StartChar: iacute
Encoding: 237 237 229
Width: 262
VWidth: 0
Flags: HMW
LayerCount: 2
Fore
SplineSet
119.5 460 m 1
 246 460 l 1
 166 0 l 1
 42 0 l 1
 119.5 460 l 1
387 689 m 1
 189 543 l 1
 119.5 582.5 l 1
 290.5 739.5 l 1
 387 689 l 1
EndSplineSet
EndChar

StartChar: icircumflex
Encoding: 238 238 230
Width: 262
VWidth: 0
Flags: HMW
LayerCount: 2
Fore
SplineSet
119.5 460 m 1
 246 460 l 1
 166 0 l 1
 42 0 l 1
 119.5 460 l 1
214.5 623.5 m 1
 104.5 536.5 l 1
 25.5 600 l 1
 227 738 l 1
 387.5 596 l 1
 293 536 l 1
 214.5 623.5 l 1
EndSplineSet
EndChar

StartChar: idieresis
Encoding: 239 239 231
Width: 262
VWidth: 0
Flags: HMW
LayerCount: 2
Fore
SplineSet
119.5 460 m 1
 246 460 l 1
 166 0 l 1
 42 0 l 1
 119.5 460 l 1
245.5 623 m 0
 250.5 662 291.5 695.5 332.5 694.5 c 0
 374 693.5 404 660 399 620 c 0
 394 581 353.5 547 312.5 548 c 0
 271 549 240.5 583 245.5 623 c 0
22 623 m 0
 27 662 67.5 695.5 108.5 694.5 c 0
 150 693.5 180 660 175 620 c 0
 170 581 129.5 547 88.5 548 c 0
 47 549 17 583 22 623 c 0
EndSplineSet
EndChar

StartChar: ntilde
Encoding: 241 241 232
Width: 542
VWidth: 0
Flags: HMW
LayerCount: 2
Fore
SplineSet
241.5 460 m 1
 162 0 l 1
 33 0 l 1
 113 460 l 1
 241.5 460 l 1
372 280 m 1
 377.5 328.5 370 370.5 317 373 c 0
 262 375.5 222.5 330.5 210 281 c 1
 177.5 277 l 1
 196.5 378 263 470 373 470 c 0
 480 470 517 395.5 505 294 c 1
 455 0 l 1
 323 0 l 1
 372 280 l 1
163.5 589.5 m 1
 184 635 229 679.5 287 678 c 0
 341 677 358 627 407 628.5 c 0
 434 629.5 457 654 478 679.5 c 1
 532 612.5 l 1
 507 576 455 531 399 533 c 0
 351 535 323.5 586 278.5 583.5 c 0
 244 581.5 230 551.5 221.5 533.5 c 1
 163.5 589.5 l 1
EndSplineSet
EndChar

StartChar: ograve
Encoding: 242 242 233
Width: 558
VWidth: 0
Flags: HMW
LayerCount: 2
Fore
SplineSet
42.5 230 m 0
 62.5 367.5 185 470 328.5 470 c 0
 469 470 560.5 364.5 541 230 c 0
 521 92.5 398 -10 255 -10 c 0
 114.5 -10 23 95.5 42.5 230 c 0
174 230 m 0
 164 163 197 101.5 266 100.5 c 0
 336 99.5 398 159 410 230 c 0
 420 297 386.5 359 317.5 360 c 0
 247.5 361 186 301 174 230 c 0
215 694 m 1
 321.5 740 l 1
 442.5 578 l 1
 368 542 l 1
 215 694 l 1
EndSplineSet
EndChar

StartChar: oacute
Encoding: 243 243 234
Width: 558
VWidth: 0
Flags: HMW
LayerCount: 2
Fore
SplineSet
42.5 230 m 0
 62.5 367.5 185 470 328.5 470 c 0
 469 470 560.5 364.5 541 230 c 0
 521 92.5 398 -10 255 -10 c 0
 114.5 -10 23 95.5 42.5 230 c 0
174 230 m 0
 164 163 197 101.5 266 100.5 c 0
 336 99.5 398 159 410 230 c 0
 420 297 386.5 359 317.5 360 c 0
 247.5 361 186 301 174 230 c 0
526.5 689 m 1
 329 543 l 1
 259 582.5 l 1
 430 739.5 l 1
 526.5 689 l 1
EndSplineSet
EndChar

StartChar: ocircumflex
Encoding: 244 244 235
Width: 558
VWidth: 0
Flags: HMW
LayerCount: 2
Fore
SplineSet
42.5 230 m 0
 62.5 367.5 185 470 328.5 470 c 0
 469 470 560.5 364.5 541 230 c 0
 521 92.5 398 -10 255 -10 c 0
 114.5 -10 23 95.5 42.5 230 c 0
174 230 m 0
 164 163 197 101.5 266 100.5 c 0
 336 99.5 398 159 410 230 c 0
 420 297 386.5 359 317.5 360 c 0
 247.5 361 186 301 174 230 c 0
363 629 m 1
 254 542 l 1
 174.5 606 l 1
 376 744 l 1
 536 601.5 l 1
 442.5 541.5 l 1
 363 629 l 1
EndSplineSet
EndChar

StartChar: otilde
Encoding: 245 245 236
Width: 558
VWidth: 0
Flags: HMW
LayerCount: 2
Fore
SplineSet
42.5 230 m 0
 62.5 367.5 185 470 328.5 470 c 0
 469 470 560.5 364.5 541 230 c 0
 521 92.5 398 -10 255 -10 c 0
 114.5 -10 23 95.5 42.5 230 c 0
174 230 m 0
 164 163 197 101.5 266 100.5 c 0
 336 99.5 398 159 410 230 c 0
 420 297 386.5 359 317.5 360 c 0
 247.5 361 186 301 174 230 c 0
171 589 m 1
 171 636.5 249 678.5 294.5 678 c 0
 348.5 677 365.5 627 415 628.5 c 0
 442 629.5 464.5 654 485.5 679.5 c 1
 540 612.5 l 1
 515 576 463.5 531 407.5 533 c 0
 359.5 535 330.5 586 285.5 583.5 c 0
 251 581.5 238 551.5 229.5 533.5 c 1
 171 589 l 1
EndSplineSet
EndChar

StartChar: odieresis
Encoding: 246 246 237
Width: 558
VWidth: 0
Flags: HMW
LayerCount: 2
Fore
SplineSet
42.5 230 m 0
 62.5 367.5 185 470 328.5 470 c 0
 469 470 560.5 364.5 541 230 c 0
 521 92.5 398 -10 255 -10 c 0
 114.5 -10 23 95.5 42.5 230 c 0
174 230 m 0
 164 163 197 101.5 266 100.5 c 0
 336 99.5 398 159 410 230 c 0
 420 297 386.5 359 317.5 360 c 0
 247.5 361 186 301 174 230 c 0
394 623 m 0
 399 662 440 695.5 481 694.5 c 0
 522.5 693.5 552 660 547 620 c 0
 542 581 502 547 461 548 c 0
 419.5 549 389 583 394 623 c 0
170.5 623 m 0
 175.5 662 215.5 695.5 256.5 694.5 c 0
 298 693.5 328.5 660 323.5 620 c 0
 318.5 581 277.5 547 236.5 548 c 0
 195 549 165.5 583 170.5 623 c 0
EndSplineSet
EndChar

StartChar: ugrave
Encoding: 249 249 238
Width: 542
VWidth: 0
Flags: HMW
LayerCount: 2
Fore
SplineSet
326 0 m 1
 405.5 460 l 1
 534.5 460 l 1
 455 0 l 1
 326 0 l 1
196.5 180 m 1
 191 131.5 197 89.5 250 87 c 0
 305 84.5 345 129.5 357.5 179 c 1
 391 183 l 1
 372 82 304.5 -10 194.5 -10 c 0
 87.5 -10 50.5 64.5 62.5 166 c 1
 113 460 l 1
 245.5 460 l 1
 196.5 180 l 1
229 694 m 1
 335.5 740 l 1
 456 578 l 1
 381 542 l 1
 229 694 l 1
EndSplineSet
EndChar

StartChar: uacute
Encoding: 250 250 239
Width: 542
VWidth: 0
Flags: HMW
LayerCount: 2
Fore
SplineSet
326 0 m 1
 405.5 460 l 1
 534.5 460 l 1
 455 0 l 1
 326 0 l 1
196.5 180 m 1
 191 131.5 197 89.5 250 87 c 0
 305 84.5 345 129.5 357.5 179 c 1
 391 183 l 1
 372 82 304.5 -10 194.5 -10 c 0
 87.5 -10 50.5 64.5 62.5 166 c 1
 113 460 l 1
 245.5 460 l 1
 196.5 180 l 1
496.5 689 m 1
 299 542 l 1
 230 582.5 l 1
 401 739.5 l 1
 496.5 689 l 1
EndSplineSet
EndChar

StartChar: ucircumflex
Encoding: 251 251 240
Width: 542
VWidth: 0
Flags: HMW
LayerCount: 2
Fore
SplineSet
326 0 m 1
 405.5 460 l 1
 534.5 460 l 1
 455 0 l 1
 326 0 l 1
196.5 180 m 1
 191 131.5 197 89.5 250 87 c 0
 305 84.5 345 129.5 357.5 179 c 1
 391 183 l 1
 372 82 304.5 -10 194.5 -10 c 0
 87.5 -10 50.5 64.5 62.5 166 c 1
 113 460 l 1
 245.5 460 l 1
 196.5 180 l 1
355 629 m 1
 245.5 542 l 1
 166 606 l 1
 368 744 l 1
 528.5 601.5 l 1
 433.5 541.5 l 1
 355 629 l 1
EndSplineSet
EndChar

StartChar: udieresis
Encoding: 252 252 241
Width: 542
VWidth: 0
Flags: HMW
LayerCount: 2
Fore
SplineSet
326 0 m 1
 405.5 460 l 1
 534.5 460 l 1
 455 0 l 1
 326 0 l 1
196.5 180 m 1
 191 131.5 197 89.5 250 87 c 0
 305 84.5 345 129.5 357.5 179 c 1
 391 183 l 1
 372 82 304.5 -10 194.5 -10 c 0
 87.5 -10 50.5 64.5 62.5 166 c 1
 113 460 l 1
 245.5 460 l 1
 196.5 180 l 1
385.5 617 m 0
 390.5 656 431 690 472 689 c 0
 513.5 688 544 654.5 539 614.5 c 0
 534 575.5 493 541 452 542 c 0
 410 543 380.5 577 385.5 617 c 0
161.5 617 m 0
 166.5 656 207 690 248 689 c 0
 289.5 688 319.5 654.5 314.5 614.5 c 0
 309.5 575.5 269 541 228 542 c 0
 186 543 156.5 577 161.5 617 c 0
EndSplineSet
EndChar

StartChar: yacute
Encoding: 253 253 242
Width: 481
VWidth: 0
Flags: HMW
LayerCount: 2
Fore
SplineSet
544 459.5 m 1
 135 -219.5 l 1
 0 -219.5 l 1
 162 49.5 l 1
 46 460 l 1
 185.5 460 l 1
 266 94 l 1
 202 96 l 1
 406 459.5 l 1
 544 459.5 l 1
480 689 m 1
 282 543 l 1
 213 582.5 l 1
 383.5 739.5 l 1
 480 689 l 1
EndSplineSet
EndChar

StartChar: thorn
Encoding: 254 254 243
Width: 584
VWidth: 0
Flags: HMW
LayerCount: 2
Fore
SplineSet
123 -220 m 1
 -7 -220 l 1
 165 780 l 1
 293 780 l 1
 123 -220 l 1
566 230 m 0
 547.5 93.5 438 -11 313.5 -10 c 0
 190 -9 141.5 105.5 157.5 230 c 0
 175.5 361.5 264.5 469.5 387 469.5 c 0
 512 469.5 583 361 566 230 c 0
433.5 230 m 0
 443.5 299 409 360.5 339 361.5 c 0
 275 362.5 210.5 303 198.5 230 c 0
 189 161 224.5 100.5 287 98.5 c 0
 358 96.5 421.5 157 433.5 230 c 0
EndSplineSet
EndChar

StartChar: ydieresis
Encoding: 255 255 244
Width: 481
VWidth: 0
Flags: HMW
LayerCount: 2
Fore
SplineSet
544 459.5 m 1
 135 -219.5 l 1
 0 -219.5 l 1
 162 49.5 l 1
 46 460 l 1
 185.5 460 l 1
 266 94 l 1
 202 96 l 1
 406 459.5 l 1
 544 459.5 l 1
352.5 605 m 0
 357.5 644 398.5 678.5 439.5 677.5 c 0
 481 676.5 511 643 506 603 c 0
 501 564 460 530 419 531 c 0
 377.5 532 347.5 565 352.5 605 c 0
128.5 605 m 0
 133.5 644 175 678.5 216 677.5 c 0
 257.5 676.5 287 643 282 603 c 0
 277 564 237 530 196 531 c 0
 154.5 532 123.5 565 128.5 605 c 0
EndSplineSet
EndChar

StartChar: Amacron
Encoding: 256 256 245
Width: 690
VWidth: 0
Flags: HMW
LayerCount: 2
Fore
SplineSet
167 158.5 m 1
 203 271.5 l 1
 531 272 l 1
 528 158 l 1
 167 158.5 l 1
402 472 m 1
 259 230.5 l 1
 257 198.5 l 1
 134 0 l 1
 -29.5 0 l 1
 444.5 744 l 1
 663 0 l 1
 506.5 0 l 1
 452 192.5 l 1
 460 229 l 1
 402 472 l 1
278 802 m 1
 297 916 l 1
 653 916 l 1
 634 802 l 1
 278 802 l 1
EndSplineSet
EndChar

StartChar: amacron
Encoding: 257 257 246
Width: 584
VWidth: 0
Flags: HMW
LayerCount: 2
Fore
SplineSet
452 460 m 1
 579 460 l 1
 499.5 0 l 1
 374 0 l 1
 452 460 l 1
42.5 230 m 0
 61 366.5 171 471 295.5 470 c 0
 419 469 467 354.5 451 230 c 0
 433 98.5 344.5 -9.5 222 -9.5 c 0
 97 -9.5 25.5 99 42.5 230 c 0
176 230 m 0
 166 161 200 99.5 270 98.5 c 0
 334 97.5 398.5 157 410.5 230 c 0
 420 299 384.5 359.5 322 361.5 c 0
 251 363.5 188 303 176 230 c 0
176.5 536 m 1
 195.5 650.5 l 1
 552.5 650.5 l 1
 532.5 536 l 1
 176.5 536 l 1
EndSplineSet
Substitution2: "alt a" amacron.alt
EndChar

StartChar: breve
Encoding: 728 728 247
Width: 529
VWidth: 0
Flags: HMW
LayerCount: 2
Fore
SplineSet
219.5 850 m 1
 307.5 850 l 1
 307.5 818 321.5 787.5 364.5 786.5 c 0
 409 785.5 435 818.5 445.5 849.5 c 1
 536.5 849 l 1
 519.5 770 458 706.5 359.5 706.5 c 0
 262 706.5 215 769.5 219.5 850 c 1
EndSplineSet
EndChar

StartChar: Abreve
Encoding: 258 258 248
Width: 690
VWidth: 0
Flags: HMW
LayerCount: 2
Fore
SplineSet
167 158.5 m 1
 203 271.5 l 1
 531 272 l 1
 528 158 l 1
 167 158.5 l 1
402 472 m 1
 259 230.5 l 1
 257 198.5 l 1
 134 0 l 1
 -29.5 0 l 1
 444.5 744 l 1
 663 0 l 1
 506.5 0 l 1
 452 192.5 l 1
 460 229 l 1
 402 472 l 1
321 946 m 1
 408 945.5 l 1
 407.5 913.5 422 883 465 882 c 0
 509.5 881 536 914.5 547 945.5 c 1
 638 945 l 1
 620 866 557.5 802 459 802 c 0
 361.5 802 315.5 866 321 946 c 1
EndSplineSet
EndChar

StartChar: abreve
Encoding: 259 259 249
Width: 584
VWidth: 0
Flags: HMW
LayerCount: 2
Fore
SplineSet
452 460 m 1
 579 460 l 1
 499.5 0 l 1
 374 0 l 1
 452 460 l 1
42.5 230 m 0
 61 366.5 171 471 295.5 470 c 0
 419 469 467 354.5 451 230 c 0
 433 98.5 344.5 -9.5 222 -9.5 c 0
 97 -9.5 25.5 99 42.5 230 c 0
176 230 m 0
 166 161 200 99.5 270 98.5 c 0
 334 97.5 398.5 157 410.5 230 c 0
 420 299 384.5 359.5 322 361.5 c 0
 251 363.5 188 303 176 230 c 0
198 674.5 m 1
 286 674.5 l 1
 286 642.5 300 612 343 611 c 0
 387.5 610 414 643.5 424.5 674.5 c 1
 515 673.5 l 1
 497.5 594.5 436 530 337.5 530 c 0
 240 530 193 594.5 198 674.5 c 1
EndSplineSet
Substitution2: "alt a" abreve.alt
EndChar

StartChar: Aogonek
Encoding: 260 260 250
Width: 690
VWidth: 0
Flags: HMW
LayerCount: 2
Fore
SplineSet
167 158.5 m 1
 203 271.5 l 1
 531 272 l 1
 528 158 l 1
 167 158.5 l 1
402 472 m 1
 259 230.5 l 1
 257 198.5 l 1
 134 0 l 1
 -29.5 0 l 1
 444.5 744 l 1
 663 0 l 1
 506.5 0 l 1
 452 192.5 l 1
 460 229 l 1
 402 472 l 1
613.5 -116 m 1
 636 -181.5 l 1
 613 -201.5 582.5 -220 538 -220 c 0
 474 -220 428.5 -180.5 436.5 -119 c 0
 447.5 -50 524 -8.5 591 24.5 c 1
 630 0 l 1
 585 -25 539 -55.5 532 -96 c 0
 530 -118.5 537.5 -134 560.5 -136 c 0
 580.5 -137.5 599 -126.5 613.5 -116 c 1
EndSplineSet
EndChar

StartChar: aogonek
Encoding: 261 261 251
Width: 584
VWidth: 0
Flags: HMW
LayerCount: 2
Fore
SplineSet
452 460 m 1
 579 460 l 1
 499.5 0 l 1
 374 0 l 1
 452 460 l 1
42.5 230 m 0
 61 366.5 171 471 295.5 470 c 0
 419 469 467 354.5 451 230 c 0
 433 98.5 344.5 -9.5 222 -9.5 c 0
 97 -9.5 25.5 99 42.5 230 c 0
176 230 m 0
 166 161 200 99.5 270 98.5 c 0
 334 97.5 398.5 157 410.5 230 c 0
 420 299 384.5 359.5 322 361.5 c 0
 251 363.5 188 303 176 230 c 0
461 -116 m 1
 484 -181.5 l 1
 461 -201.5 430 -220 385.5 -220 c 0
 321.5 -220 275.5 -180.5 283.5 -119 c 0
 294.5 -50 371.5 -8.5 438.5 24.5 c 1
 478 0 l 1
 433 -25 387 -55.5 380 -96 c 0
 378 -118.5 385 -134 408 -136 c 0
 428 -137.5 446.5 -126.5 461 -116 c 1
EndSplineSet
Substitution2: "alt a" aogonek.alt
EndChar

StartChar: Cacute
Encoding: 262 262 252
Width: 674
VWidth: 0
Flags: HMW
LayerCount: 2
Fore
SplineSet
220 350 m 0
 200.5 228 271 126 394 124.5 c 0
 487.5 123.5 562.5 168 621 219 c 1
 597 58 l 1
 533.5 13.5 465.5 -14 373 -14 c 0
 163 -13 37 151 66 350 c 0
 97.5 557 274 714 488 714 c 0
 576 714 637.5 688.5 694 641 c 1
 669 480 l 1
 626.5 538 566 575.5 479.5 575.5 c 0
 354.5 575 242 478.5 220 350 c 0
655 921 m 1
 458 775 l 1
 388.5 816 l 1
 559 973 l 1
 655 921 l 1
EndSplineSet
EndChar

StartChar: cacute
Encoding: 263 263 253
Width: 473
VWidth: 0
Flags: HMW
LayerCount: 2
Fore
SplineSet
171 230 m 0
 159.5 159 199.5 99 273 97.5 c 0
 334 96.5 391.5 129 427 169 c 1
 407.5 36.5 l 1
 368 7.5 316.5 -10 255 -10 c 0
 113.5 -10 20.5 95 40 230 c 0
 61 369.5 183.5 470 328.5 470 c 0
 388 470 435 452.5 471 424 c 1
 450.5 290 l 1
 428 335 380.5 363 326.5 362.5 c 0
 251.5 362 184 303 171 230 c 0
496 677 m 1
 298 531 l 1
 228 571.5 l 1
 399 728.5 l 1
 496 677 l 1
EndSplineSet
EndChar

StartChar: Ccircumflex
Encoding: 264 264 254
Width: 674
VWidth: 0
Flags: HMW
LayerCount: 2
Fore
SplineSet
220 350 m 0
 200.5 228 271 126 394 124.5 c 0
 487.5 123.5 562.5 168 621 219 c 1
 597 58 l 1
 533.5 13.5 465.5 -14 373 -14 c 0
 163 -13 37 151 66 350 c 0
 97.5 557 274 714 488 714 c 0
 576 714 637.5 688.5 694 641 c 1
 669 480 l 1
 626.5 538 566 575.5 479.5 575.5 c 0
 354.5 575 242 478.5 220 350 c 0
521 862 m 1
 411.5 774.5 l 1
 332 838.5 l 1
 534 976 l 1
 694.5 834 l 1
 599 774 l 1
 521 862 l 1
EndSplineSet
EndChar

StartChar: ccircumflex
Encoding: 265 265 255
Width: 473
VWidth: 0
Flags: HMW
LayerCount: 2
Fore
SplineSet
171 230 m 0
 159.5 159 199.5 99 273 97.5 c 0
 334 96.5 391.5 129 427 169 c 1
 407.5 36.5 l 1
 368 7.5 316.5 -10 255 -10 c 0
 113.5 -10 20.5 95 40 230 c 0
 61 369.5 183.5 470 328.5 470 c 0
 388 470 435 452.5 471 424 c 1
 450.5 290 l 1
 428 335 380.5 363 326.5 362.5 c 0
 251.5 362 184 303 171 230 c 0
340 617.5 m 1
 230.5 530.5 l 1
 151 594.5 l 1
 352.5 732 l 1
 513 590 l 1
 418 530 l 1
 340 617.5 l 1
EndSplineSet
EndChar

StartChar: Cdotaccent
Encoding: 266 266 256
Width: 674
VWidth: 0
Flags: HMW
LayerCount: 2
Fore
SplineSet
220 350 m 0
 200.5 228 271 126 394 124.5 c 0
 487.5 123.5 562.5 168 621 219 c 1
 597 58 l 1
 533.5 13.5 465.5 -14 373 -14 c 0
 163 -13 37 151 66 350 c 0
 97.5 557 274 714 488 714 c 0
 576 714 637.5 688.5 694 641 c 1
 669 480 l 1
 626.5 538 566 575.5 479.5 575.5 c 0
 354.5 575 242 478.5 220 350 c 0
422 849.5 m 0
 427 888.5 467 922.5 508 921.5 c 0
 549.5 920.5 579.5 887 574.5 847 c 0
 569.5 808 529 773.5 488 774.5 c 0
 446.5 775.5 417 809.5 422 849.5 c 0
EndSplineSet
EndChar

StartChar: cdotaccent
Encoding: 267 267 257
Width: 473
VWidth: 0
Flags: HMW
LayerCount: 2
Fore
SplineSet
171 230 m 0
 159.5 159 199.5 99 273 97.5 c 0
 334 96.5 391.5 129 427 169 c 1
 407.5 36.5 l 1
 368 7.5 316.5 -10 255 -10 c 0
 113.5 -10 20.5 95 40 230 c 0
 61 369.5 183.5 470 328.5 470 c 0
 388 470 435 452.5 471 424 c 1
 450.5 290 l 1
 428 335 380.5 363 326.5 362.5 c 0
 251.5 362 184 303 171 230 c 0
262.5 610 m 0
 267.5 649 308 683 349 682 c 0
 390.5 681 420.5 647.5 415.5 607.5 c 0
 410.5 568.5 370 534.5 329 535.5 c 0
 287.5 536.5 257.5 570 262.5 610 c 0
EndSplineSet
EndChar

StartChar: Ccaron
Encoding: 268 268 258
Width: 674
VWidth: 0
Flags: HMW
LayerCount: 2
Fore
SplineSet
220 350 m 0
 200.5 228 271 126 394 124.5 c 0
 487.5 123.5 562.5 168 621 219 c 1
 597 58 l 1
 533.5 13.5 465.5 -14 373 -14 c 0
 163 -13 37 151 66 350 c 0
 97.5 557 274 714 488 714 c 0
 576 714 637.5 688.5 694 641 c 1
 669 480 l 1
 626.5 538 566 575.5 479.5 575.5 c 0
 354.5 575 242 478.5 220 350 c 0
519 889 m 1
 628 976 l 1
 707.5 912 l 1
 506 774 l 1
 345.5 916 l 1
 440.5 976 l 1
 519 889 l 1
EndSplineSet
EndChar

StartChar: ccaron
Encoding: 269 269 259
Width: 473
VWidth: 0
Flags: HMW
LayerCount: 2
Fore
SplineSet
171 230 m 0
 159.5 159 199.5 99 273 97.5 c 0
 334 96.5 391.5 129 427 169 c 1
 407.5 36.5 l 1
 368 7.5 316.5 -10 255 -10 c 0
 113.5 -10 20.5 95 40 230 c 0
 61 369.5 183.5 470 328.5 470 c 0
 388 470 435 452.5 471 424 c 1
 450.5 290 l 1
 428 335 380.5 363 326.5 362.5 c 0
 251.5 362 184 303 171 230 c 0
338 645 m 1
 446.5 732 l 1
 526 668 l 1
 325 530 l 1
 164 672.5 l 1
 259 732.5 l 1
 338 645 l 1
EndSplineSet
EndChar

StartChar: Dcaron
Encoding: 270 270 260
Width: 695
VWidth: 0
Flags: HMW
LayerCount: 2
Fore
SplineSet
164.5 700 m 1
 311 700 l 1
 191 0 l 1
 46 0 l 1
 164.5 700 l 1
282 0 m 1
 134.5 0 l 1
 157.5 131 l 1
 292 131 l 1
 420.5 134 526.5 211 549.5 350 c 0
 570.5 483.5 500.5 566 375 569 c 1
 232 569.5 l 1
 255 700 l 1
 393 700 l 1
 604 697 725.5 550 695.5 350 c 0
 663.5 143.5 498 3 282 0 c 1
472.5 889 m 1
 581.5 976 l 1
 661 912 l 1
 460 774 l 1
 299 916 l 1
 393.5 976 l 1
 472.5 889 l 1
EndSplineSet
EndChar

StartChar: dcaron
Encoding: 271 271 261
Width: 584
VWidth: 0
Flags: HMW
LayerCount: 2
Fore
SplineSet
504 780 m 1
 633.5 780 l 1
 499 0 l 1
 371.5 0 l 1
 504 780 l 1
42.5 230 m 0
 61 366.5 171 471 295.5 470 c 0
 419 469 468 354.5 452 230 c 0
 434 98.5 344.5 -9.5 222 -9.5 c 0
 97 -9.5 25.5 99 42.5 230 c 0
176 230 m 0
 166 161 200 99.5 270 98.5 c 0
 334 97.5 399 157 411 230 c 0
 420.5 299 384.5 359.5 322 361.5 c 0
 251 363.5 188 303 176 230 c 0
744 779 m 1
 869.5 746 l 1
 709.5 499 l 1
 615 522.5 l 1
 744 779 l 1
EndSplineSet
EndChar

StartChar: Dcroat
Encoding: 272 272 262
Width: 695
VWidth: 0
Flags: HMW
LayerCount: 2
Fore
SplineSet
28.5 302 m 1
 44.5 394 l 1
 367.5 394 l 1
 351.5 302 l 1
 28.5 302 l 1
164.5 700 m 1
 311 700 l 1
 191 0 l 1
 46 0 l 1
 164.5 700 l 1
282 0 m 1
 134.5 0 l 1
 157.5 131 l 1
 292 131 l 1
 420.5 134 526.5 211 549.5 350 c 0
 570.5 483.5 500.5 566 375 569 c 1
 232 569.5 l 1
 255 700 l 1
 393 700 l 1
 604 697 725.5 550 695.5 350 c 0
 663.5 143.5 498 3 282 0 c 1
EndSplineSet
EndChar

StartChar: dcroat
Encoding: 273 273 263
Width: 584
VWidth: 0
Flags: HMW
LayerCount: 2
Fore
SplineSet
356.5 572.5 m 1
 372.5 665 l 1
 704 665 l 1
 687.5 572 l 1
 356.5 572.5 l 1
504 780 m 1
 633.5 780 l 1
 499 0 l 1
 371.5 0 l 1
 504 780 l 1
42.5 230 m 0
 61 366.5 171 471 295.5 470 c 0
 419 469 468 354.5 452 230 c 0
 434 98.5 344.5 -9.5 222 -9.5 c 0
 97 -9.5 25.5 99 42.5 230 c 0
176 230 m 0
 166 161 200 99.5 270 98.5 c 0
 334 97.5 399 157 411 230 c 0
 420.5 299 384.5 359.5 322 361.5 c 0
 251 363.5 188 303 176 230 c 0
EndSplineSet
EndChar

StartChar: Emacron
Encoding: 274 274 264
Width: 569
VWidth: 0
Flags: HMW
LayerCount: 2
Fore
SplineSet
135 0 m 1
 156 122 l 1
 502 122 l 1
 481 0 l 1
 135 0 l 1
234 578.5 m 1
 255 700 l 1
 600.5 700 l 1
 579.5 578 l 1
 234 578.5 l 1
189 312 m 1
 209 431 l 1
 535 431 l 1
 514 312 l 1
 189 312 l 1
164.5 700 m 1
 303 700 l 1
 183 0 l 1
 46 0 l 1
 164.5 700 l 1
217 774.5 m 1
 236.5 889 l 1
 593 889 l 1
 573.5 774 l 1
 217 774.5 l 1
EndSplineSet
EndChar

StartChar: emacron
Encoding: 275 275 265
Width: 538
VWidth: 0
Flags: HMW
LayerCount: 2
Fore
SplineSet
112.5 202 m 1
 125 280.5 l 1
 390 281 l 1
 389.5 334 372 377 312.5 378 c 0
 243.5 380 192.5 323.5 178.5 255.5 c 1
 171.5 230 l 1
 160.5 152 186 92 258 89.5 c 0
 313.5 87.5 359 118 390 155 c 1
 499 118 l 1
 441 42 365 -11 249 -10 c 0
 102 -9 24.5 97.5 43 230 c 0
 45.5 247 49 263 54.5 279 c 0
 90.5 390.5 191 470 323 470 c 0
 468.5 470 538 370.5 521 236 c 0
 520 226 517.5 215 514.5 202 c 1
 112.5 202 l 1
159.5 530.5 m 1
 179.5 645 l 1
 536.5 645 l 1
 516.5 530 l 1
 159.5 530.5 l 1
EndSplineSet
EndChar

StartChar: Ebreve
Encoding: 276 276 266
Width: 569
VWidth: 0
Flags: HMW
LayerCount: 2
Fore
SplineSet
135 0 m 1
 156 122 l 1
 502 122 l 1
 481 0 l 1
 135 0 l 1
234 578.5 m 1
 255 700 l 1
 600.5 700 l 1
 579.5 578 l 1
 234 578.5 l 1
189 312 m 1
 209 431 l 1
 535 431 l 1
 514 312 l 1
 189 312 l 1
164.5 700 m 1
 303 700 l 1
 183 0 l 1
 46 0 l 1
 164.5 700 l 1
260 918 m 1
 347.5 918 l 1
 347 886 361 856 404 855 c 0
 448.5 854 475 887 486 918 c 1
 577 917 l 1
 559 838 496.5 774.5 398 774.5 c 0
 300.5 774.5 254.5 838 260 918 c 1
EndSplineSet
EndChar

StartChar: ebreve
Encoding: 277 277 267
Width: 538
VWidth: 0
Flags: HMW
LayerCount: 2
Fore
SplineSet
112.5 202 m 1
 125 280.5 l 1
 390 281 l 1
 389.5 334 372 377 312.5 378 c 0
 243.5 380 192.5 323.5 178.5 255.5 c 1
 171.5 230 l 1
 160.5 152 186 92 258 89.5 c 0
 313.5 87.5 359 118 390 155 c 1
 499 118 l 1
 441 42 365 -11 249 -10 c 0
 102 -9 24.5 97.5 43 230 c 0
 45.5 247 49 263 54.5 279 c 0
 90.5 390.5 191 470 323 470 c 0
 468.5 470 538 370.5 521 236 c 0
 520 226 517.5 215 514.5 202 c 1
 112.5 202 l 1
203 675 m 1
 291 674.5 l 1
 290.5 642.5 304 612.5 347 611.5 c 0
 391.5 610.5 418 643.5 429 674.5 c 1
 520.5 673.5 l 1
 502.5 595 439.5 531 341 531 c 0
 243.5 531 197.5 595 203 675 c 1
EndSplineSet
EndChar

StartChar: Edotaccent
Encoding: 278 278 268
Width: 569
VWidth: 0
Flags: HMW
LayerCount: 2
Fore
SplineSet
135 0 m 1
 156 122 l 1
 502 122 l 1
 481 0 l 1
 135 0 l 1
234 578.5 m 1
 255 700 l 1
 600.5 700 l 1
 579.5 578 l 1
 234 578.5 l 1
189 312 m 1
 209 431 l 1
 535 431 l 1
 514 312 l 1
 189 312 l 1
164.5 700 m 1
 303 700 l 1
 183 0 l 1
 46 0 l 1
 164.5 700 l 1
330.5 849.5 m 0
 335.5 888.5 376 922.5 417 921.5 c 0
 458.5 920.5 489 887 484 847 c 0
 479 808 438 773.5 397 774.5 c 0
 355.5 775.5 325.5 809.5 330.5 849.5 c 0
EndSplineSet
EndChar

StartChar: edotaccent
Encoding: 279 279 269
Width: 538
VWidth: 0
Flags: HMW
LayerCount: 2
Fore
SplineSet
112.5 202 m 1
 125 280.5 l 1
 390 281 l 1
 389.5 334 372 377 312.5 378 c 0
 243.5 380 192.5 323.5 178.5 255.5 c 1
 171.5 230 l 1
 160.5 152 186 92 258 89.5 c 0
 313.5 87.5 359 118 390 155 c 1
 499 118 l 1
 441 42 365 -11 249 -10 c 0
 102 -9 24.5 97.5 43 230 c 0
 45.5 247 49 263 54.5 279 c 0
 90.5 390.5 191 470 323 470 c 0
 468.5 470 538 370.5 521 236 c 0
 520 226 517.5 215 514.5 202 c 1
 112.5 202 l 1
273.5 605 m 0
 278.5 644 319 678.5 360 677.5 c 0
 401.5 676.5 432 643 427 603 c 0
 422 564 381 530 340 531 c 0
 298.5 532 268.5 565 273.5 605 c 0
EndSplineSet
EndChar

StartChar: Eogonek
Encoding: 280 280 270
Width: 569
VWidth: 0
Flags: HMW
LayerCount: 2
Fore
SplineSet
135 0 m 1
 156 122 l 1
 502 122 l 1
 481 0 l 1
 135 0 l 1
234 578.5 m 1
 255 700 l 1
 600.5 700 l 1
 579.5 578 l 1
 234 578.5 l 1
189 312 m 1
 209 431 l 1
 535 431 l 1
 514 312 l 1
 189 312 l 1
164.5 700 m 1
 303 700 l 1
 183 0 l 1
 46 0 l 1
 164.5 700 l 1
329.5 -116 m 1
 352 -181.5 l 1
 329 -201.5 299 -220 254.5 -220 c 0
 190.5 -220 143.5 -180.5 151.5 -119 c 0
 162.5 -50 239.5 -8.5 306.5 24.5 c 1
 346 0 l 1
 301 -25 255 -55.5 248 -96 c 0
 246 -118.5 253.5 -134 276.5 -136 c 0
 296.5 -137.5 315 -126.5 329.5 -116 c 1
EndSplineSet
EndChar

StartChar: eogonek
Encoding: 281 281 271
Width: 538
VWidth: 0
Flags: HMW
LayerCount: 2
Fore
SplineSet
112.5 202 m 1
 125 280.5 l 1
 390 281 l 1
 389.5 334 372 377 312.5 378 c 0
 243.5 380 192.5 323.5 178.5 255.5 c 1
 171.5 230 l 1
 160.5 152 186 92 258 89.5 c 0
 313.5 87.5 359 118 390 155 c 1
 499 118 l 1
 441 42 365 -11 249 -10 c 0
 102 -9 24.5 97.5 43 230 c 0
 45.5 247 49 263 54.5 279 c 0
 90.5 390.5 191 470 323 470 c 0
 468.5 470 538 370.5 521 236 c 0
 520 226 517.5 215 514.5 202 c 1
 112.5 202 l 1
261.5 -112 m 1
 285 -176 l 1
 262.5 -196 231 -214 186.5 -214 c 0
 122.5 -214 76.5 -175.5 84.5 -114 c 0
 95.5 -45 172 -3 239 30 c 1
 279 3 l 1
 233.5 -20 187.5 -50.5 180.5 -90 c 0
 177.5 -112.5 185.5 -129 208.5 -131 c 0
 228.5 -132.5 247 -122.5 261.5 -112 c 1
EndSplineSet
EndChar

StartChar: Ecaron
Encoding: 282 282 272
Width: 569
VWidth: 0
Flags: HMW
LayerCount: 2
Fore
SplineSet
135 0 m 1
 156 122 l 1
 502 122 l 1
 481 0 l 1
 135 0 l 1
234 578.5 m 1
 255 700 l 1
 600.5 700 l 1
 579.5 578 l 1
 234 578.5 l 1
189 312 m 1
 209 431 l 1
 535 431 l 1
 514 312 l 1
 189 312 l 1
164.5 700 m 1
 303 700 l 1
 183 0 l 1
 46 0 l 1
 164.5 700 l 1
411 889 m 1
 520.5 976 l 1
 599.5 912 l 1
 398 774 l 1
 237 916 l 1
 332 976 l 1
 411 889 l 1
EndSplineSet
EndChar

StartChar: ecaron
Encoding: 283 283 273
Width: 538
VWidth: 0
Flags: HMW
LayerCount: 2
Fore
SplineSet
112.5 202 m 1
 125 280.5 l 1
 390 281 l 1
 389.5 334 372 377 312.5 378 c 0
 243.5 380 192.5 323.5 178.5 255.5 c 1
 171.5 230 l 1
 160.5 152 186 92 258 89.5 c 0
 313.5 87.5 359 118 390 155 c 1
 499 118 l 1
 441 42 365 -11 249 -10 c 0
 102 -9 24.5 97.5 43 230 c 0
 45.5 247 49 263 54.5 279 c 0
 90.5 390.5 191 470 323 470 c 0
 468.5 470 538 370.5 521 236 c 0
 520 226 517.5 215 514.5 202 c 1
 112.5 202 l 1
354 645 m 1
 463 732 l 1
 542.5 668 l 1
 341 530 l 1
 180 672.5 l 1
 275 732.5 l 1
 354 645 l 1
EndSplineSet
EndChar

StartChar: Gcircumflex
Encoding: 284 284 274
Width: 778
VWidth: 0
Flags: HMW
LayerCount: 2
Fore
SplineSet
419 260 m 1
 439.5 374 l 1
 775 374 l 1
 748 167 600 -18 372 -18 c 0
 159.5 -18 36.5 149.5 66 350 c 0
 98 559 276.5 714 492.5 714 c 0
 621.5 714 715.5 653.5 770.5 553 c 1
 640.5 482.5 l 1
 611.5 544.5 559 585.5 479 585.5 c 0
 348 586.5 236.5 483.5 214.5 350 c 0
 195 223.5 257.5 111.5 389.5 110.5 c 0
 500 109.5 573 179 615.5 260 c 1
 419 260 l 1
525.5 862 m 1
 416.5 774.5 l 1
 337 838.5 l 1
 538.5 976 l 1
 699 834 l 1
 605 774 l 1
 525.5 862 l 1
EndSplineSet
EndChar

StartChar: gcircumflex
Encoding: 285 285 275
Width: 580
VWidth: 0
Flags: HMW
LayerCount: 2
Fore
SplineSet
6.5 -32 m 1
 130 -32.5 l 1
 130 -89.5 160.5 -128 225 -128.5 c 0
 298 -129.5 358 -71 372 10 c 1
 450 460 l 1
 574.5 460 l 1
 497.5 10 l 2
 473.5 -143 360.5 -235.5 220 -236 c 0
 75 -236.5 2.5 -154.5 6.5 -32 c 1
43.5 234.5 m 0
 62 371 171.5 471 295.5 470 c 0
 419 469 468.5 359 452.5 234 c 0
 434.5 102.5 346 -1 223.5 -1 c 0
 99.5 -1 26.5 103 43.5 234.5 c 0
176 234 m 0
 166 164.5 202 108 271 107 c 0
 334 106 401 162 412 235 c 0
 421.5 304 384 359.5 322 361.5 c 0
 252 363.5 187.5 307 176 234 c 0
375 617.5 m 1
 266 530.5 l 1
 186 594.5 l 1
 388 732 l 1
 548.5 590 l 1
 453.5 530 l 1
 375 617.5 l 1
EndSplineSet
EndChar

StartChar: Gbreve
Encoding: 286 286 276
Width: 778
VWidth: 0
Flags: HMW
LayerCount: 2
Fore
SplineSet
419 260 m 1
 439.5 374 l 1
 775 374 l 1
 748 167 600 -18 372 -18 c 0
 159.5 -18 36.5 149.5 66 350 c 0
 98 559 276.5 714 492.5 714 c 0
 621.5 714 715.5 653.5 770.5 553 c 1
 640.5 482.5 l 1
 611.5 544.5 559 585.5 479 585.5 c 0
 348 586.5 236.5 483.5 214.5 350 c 0
 195 223.5 257.5 111.5 389.5 110.5 c 0
 500 109.5 573 179 615.5 260 c 1
 419 260 l 1
373 918 m 1
 460.5 918 l 1
 460 886 474 856 517 855 c 0
 561.5 854 588 887 599 918 c 1
 690 917 l 1
 672 838 609.5 774.5 511 774.5 c 0
 413.5 774.5 367.5 838 373 918 c 1
EndSplineSet
EndChar

StartChar: gbreve
Encoding: 287 287 277
Width: 580
VWidth: 0
Flags: HMW
LayerCount: 2
Fore
SplineSet
6.5 -32 m 1
 130 -32.5 l 1
 130 -89.5 160.5 -128 225 -128.5 c 0
 298 -129.5 358 -71 372 10 c 1
 450 460 l 1
 574.5 460 l 1
 497.5 10 l 2
 473.5 -143 360.5 -235.5 220 -236 c 0
 75 -236.5 2.5 -154.5 6.5 -32 c 1
43.5 234.5 m 0
 62 371 171.5 471 295.5 470 c 0
 419 469 468.5 359 452.5 234 c 0
 434.5 102.5 346 -1 223.5 -1 c 0
 99.5 -1 26.5 103 43.5 234.5 c 0
176 234 m 0
 166 164.5 202 108 271 107 c 0
 334 106 401 162 412 235 c 0
 421.5 304 384 359.5 322 361.5 c 0
 252 363.5 187.5 307 176 234 c 0
223 675 m 1
 310 674.5 l 1
 309.5 642.5 323.5 612.5 366.5 611.5 c 0
 411 610.5 437 643.5 448 674.5 c 1
 539.5 673.5 l 1
 521.5 595 459 531 360.5 531 c 0
 263 531 217.5 595 223 675 c 1
EndSplineSet
EndChar

StartChar: Gdotaccent
Encoding: 288 288 278
Width: 778
VWidth: 0
Flags: HMW
LayerCount: 2
Fore
SplineSet
419 260 m 1
 439.5 374 l 1
 775 374 l 1
 748 167 600 -18 372 -18 c 0
 159.5 -18 36.5 149.5 66 350 c 0
 98 559 276.5 714 492.5 714 c 0
 621.5 714 715.5 653.5 770.5 553 c 1
 640.5 482.5 l 1
 611.5 544.5 559 585.5 479 585.5 c 0
 348 586.5 236.5 483.5 214.5 350 c 0
 195 223.5 257.5 111.5 389.5 110.5 c 0
 500 109.5 573 179 615.5 260 c 1
 419 260 l 1
443 849.5 m 0
 448 888.5 488.5 922.5 529.5 921.5 c 0
 571 920.5 601 887 596 847 c 0
 591 808 551 773.5 510 774.5 c 0
 468.5 775.5 438 809.5 443 849.5 c 0
EndSplineSet
EndChar

StartChar: gdotaccent
Encoding: 289 289 279
Width: 580
VWidth: 0
Flags: HMW
LayerCount: 2
Fore
SplineSet
6.5 -32 m 1
 130 -32.5 l 1
 130 -89.5 160.5 -128 225 -128.5 c 0
 298 -129.5 358 -71 372 10 c 1
 450 460 l 1
 574.5 460 l 1
 497.5 10 l 2
 473.5 -143 360.5 -235.5 220 -236 c 0
 75 -236.5 2.5 -154.5 6.5 -32 c 1
43.5 234.5 m 0
 62 371 171.5 471 295.5 470 c 0
 419 469 468.5 359 452.5 234 c 0
 434.5 102.5 346 -1 223.5 -1 c 0
 99.5 -1 26.5 103 43.5 234.5 c 0
176 234 m 0
 166 164.5 202 108 271 107 c 0
 334 106 401 162 412 235 c 0
 421.5 304 384 359.5 322 361.5 c 0
 252 363.5 187.5 307 176 234 c 0
295 628 m 0
 300 667 340 701 381 700 c 0
 422.5 699 452.5 665.5 447.5 625.5 c 0
 442.5 586.5 402 552.5 361 553.5 c 0
 319.5 554.5 290 588 295 628 c 0
EndSplineSet
EndChar

StartChar: uni0122
Encoding: 290 290 280
Width: 778
VWidth: 0
Flags: HMW
LayerCount: 2
Fore
SplineSet
419 260 m 1
 439.5 374 l 1
 775 374 l 1
 748 167 600 -18 372 -18 c 0
 159.5 -18 36.5 149.5 66 350 c 0
 98 559 276.5 714 492.5 714 c 0
 621.5 714 715.5 653.5 770.5 553 c 1
 640.5 482.5 l 1
 611.5 544.5 559 585.5 479 585.5 c 0
 348 586.5 236.5 483.5 214.5 350 c 0
 195 223.5 257.5 111.5 389.5 110.5 c 0
 500 109.5 573 179 615.5 260 c 1
 419 260 l 1
314 -79 m 1
 440 -112 l 1
 279 -359 l 1
 185 -336 l 1
 314 -79 l 1
EndSplineSet
EndChar

StartChar: Hcircumflex
Encoding: 292 292 281
Width: 741
VWidth: 0
Flags: HMW
LayerCount: 2
Fore
SplineSet
143.5 307.5 m 1
 165.5 438 l 1
 668 438 l 1
 646 307 l 1
 143.5 307.5 l 1
620.5 700 m 1
 764 700 l 1
 643 0 l 1
 502 0 l 1
 620.5 700 l 1
164.5 700 m 1
 307.5 700 l 1
 187 0 l 1
 46 0 l 1
 164.5 700 l 1
495 862 m 1
 385.5 774.5 l 1
 306 838.5 l 1
 508 976 l 1
 668.5 834 l 1
 574 774 l 1
 495 862 l 1
EndSplineSet
EndChar

StartChar: hcircumflex
Encoding: 293 293 282
Width: 538
VWidth: 0
Flags: HMW
LayerCount: 2
Fore
SplineSet
296.5 780 m 1
 162 0 l 1
 33.5 0 l 1
 167.5 780 l 1
 296.5 780 l 1
372 280 m 1
 377.5 328.5 370 370.5 317 373 c 0
 262 375.5 222.5 330.5 210 281 c 1
 178.5 281 l 1
 197.5 382 264 474.5 374 474.5 c 0
 481.5 474.5 514 398.5 502 298 c 1
 450.5 0 l 1
 323 0 l 1
 372 280 l 1
294.5 927 m 1
 185 840 l 1
 105.5 904.5 l 1
 307.5 1042 l 1
 467.5 900 l 1
 374 840 l 1
 294.5 927 l 1
EndSplineSet
EndChar

StartChar: Itilde
Encoding: 296 296 283
Width: 288
VWidth: 0
Flags: HMW
LayerCount: 2
Fore
SplineSet
164.5 700 m 1
 309.5 700 l 1
 189 0 l 1
 46 0 l 1
 164.5 700 l 1
77 833.5 m 1
 97.5 879 142 923.5 200 922 c 0
 254 921 272.5 871 321.5 872.5 c 0
 348.5 873.5 371.5 897.5 392.5 923 c 1
 446 856.5 l 1
 421 820 369.5 775.5 313.5 777.5 c 0
 265.5 779.5 237 829.5 192 827 c 0
 157.5 825 143.5 795.5 135 777.5 c 1
 77 833.5 l 1
EndSplineSet
EndChar

StartChar: itilde
Encoding: 297 297 284
Width: 262
VWidth: 0
Flags: HMW
LayerCount: 2
Fore
SplineSet
119.5 460 m 1
 246 460 l 1
 166 0 l 1
 42 0 l 1
 119.5 460 l 1
22.5 589.5 m 1
 43 635 88.5 679.5 146.5 678 c 0
 200.5 677 217 627 266 628.5 c 0
 293 629.5 316.5 654 337.5 679.5 c 1
 391 612.5 l 1
 366 576 314 531 258 533 c 0
 210 535 182 586 137 583.5 c 0
 102.5 581.5 89 551.5 80.5 533.5 c 1
 22.5 589.5 l 1
EndSplineSet
EndChar

StartChar: Imacron
Encoding: 298 298 285
Width: 288
VWidth: 0
Flags: HMW
LayerCount: 2
Fore
SplineSet
164.5 700 m 1
 309.5 700 l 1
 189 0 l 1
 46 0 l 1
 164.5 700 l 1
71.5 774.5 m 1
 91 889 l 1
 448.5 889 l 1
 428.5 774 l 1
 71.5 774.5 l 1
EndSplineSet
EndChar

StartChar: imacron
Encoding: 299 299 286
Width: 262
VWidth: 0
Flags: HMW
LayerCount: 2
Fore
SplineSet
119.5 460 m 1
 246 460 l 1
 166 0 l 1
 42 0 l 1
 119.5 460 l 1
17 530.5 m 1
 36.5 645 l 1
 393 645 l 1
 373.5 530 l 1
 17 530.5 l 1
EndSplineSet
EndChar

StartChar: Ibreve
Encoding: 300 300 287
Width: 288
VWidth: 0
Flags: HMW
LayerCount: 2
Fore
SplineSet
164.5 700 m 1
 309.5 700 l 1
 189 0 l 1
 46 0 l 1
 164.5 700 l 1
115 918 m 1
 203 918 l 1
 202.5 886 216.5 856 259.5 855 c 0
 304 854 330 887 341 918 c 1
 432 917 l 1
 414 838.5 352 774.5 253.5 774.5 c 0
 156 774.5 109.5 838 115 918 c 1
EndSplineSet
EndChar

StartChar: ibreve
Encoding: 301 301 288
Width: 262
VWidth: 0
Flags: HMW
LayerCount: 2
Fore
SplineSet
119.5 460 m 1
 246 460 l 1
 166 0 l 1
 42 0 l 1
 119.5 460 l 1
60 675 m 1
 148 674.5 l 1
 147.5 642.5 161 612.5 204 611.5 c 0
 248.5 610.5 275.5 643.5 286.5 674.5 c 1
 377 673.5 l 1
 359 595 297.5 531 199 531 c 0
 101.5 531 54.5 595 60 675 c 1
EndSplineSet
EndChar

StartChar: Iogonek
Encoding: 302 302 289
Width: 288
VWidth: 0
Flags: HMW
LayerCount: 2
Fore
SplineSet
164.5 700 m 1
 309.5 700 l 1
 189 0 l 1
 46 0 l 1
 164.5 700 l 1
154 -116 m 1
 178 -180 l 1
 155 -200 124 -218 79.5 -218 c 0
 15.5 -218 -31 -179 -23 -117.5 c 0
 -13 -48.5 65 -7 132 26 c 1
 172 1 l 1
 126.5 -23 80 -54 73 -94 c 0
 70 -116.5 78 -133 101 -135 c 0
 121 -136.5 139.5 -126.5 154 -116 c 1
EndSplineSet
EndChar

StartChar: iogonek
Encoding: 303 303 290
Width: 262
VWidth: 0
Flags: HMW
LayerCount: 2
Fore
SplineSet
137 639 m 0
 142 678 182.5 712 223.5 711 c 0
 265 710 295.5 677 290.5 637 c 0
 285.5 598 244.5 563.5 203.5 564.5 c 0
 162 565.5 132 599 137 639 c 0
119.5 460 m 1
 246 460 l 1
 166 0 l 1
 42 0 l 1
 119.5 460 l 1
132 -116 m 1
 155.5 -181.5 l 1
 132.5 -201.5 102 -220 57.5 -220 c 0
 -6.5 -220 -53 -180.5 -45 -119 c 0
 -34 -50 43 -8.5 110 24.5 c 1
 149.5 0 l 1
 104.5 -25 58 -55.5 51 -96 c 0
 49 -118.5 56.5 -134 79.5 -136 c 0
 99.5 -137.5 117.5 -126.5 132 -116 c 1
EndSplineSet
EndChar

StartChar: Idotaccent
Encoding: 304 304 291
Width: 288
VWidth: 0
Flags: HMW
LayerCount: 2
Fore
SplineSet
164.5 700 m 1
 309.5 700 l 1
 189 0 l 1
 46 0 l 1
 164.5 700 l 1
185 849.5 m 0
 190 888.5 231 922.5 272 921.5 c 0
 313.5 920.5 343 887 338 847 c 0
 333 808 292 773.5 251 774.5 c 0
 209.5 775.5 180 809.5 185 849.5 c 0
EndSplineSet
EndChar

StartChar: uni0136
Encoding: 310 310 292
Width: 639
VWidth: 0
Flags: HMW
LayerCount: 2
Fore
SplineSet
164.5 700 m 1
 311.5 700 l 1
 191 0 l 1
 46 0 l 1
 164.5 700 l 1
547.5 699.5 m 1
 721 699.5 l 1
 379 369 l 1
 610 0 l 1
 444 0 l 1
 212.5 371.5 l 1
 547.5 699.5 l 1
278.5 -61 m 1
 406 -94 l 1
 245 -341 l 1
 149.5 -317.5 l 1
 278.5 -61 l 1
EndSplineSet
EndChar

StartChar: uni0137
Encoding: 311 311 293
Width: 519
VWidth: 0
Flags: HMW
LayerCount: 2
Fore
SplineSet
164 780 m 1
 289.5 780 l 1
 155.5 0 l 1
 32 0 l 1
 164 780 l 1
393 459.5 m 1
 552.5 459.5 l 1
 323 267 l 1
 487 0 l 1
 340.5 0 l 1
 172 273.5 l 1
 393 459.5 l 1
210.5 -61 m 1
 336.5 -94 l 1
 176.5 -341 l 1
 81.5 -317.5 l 1
 210.5 -61 l 1
EndSplineSet
EndChar

StartChar: Lacute
Encoding: 313 313 294
Width: 489
VWidth: 0
Flags: HMW
LayerCount: 2
Fore
SplineSet
165 700 m 1
 307.5 700 l 1
 209 126 l 1
 480 126 l 1
 458 0 l 1
 45 0 l 1
 165 700 l 1
557.5 921 m 1
 359.5 775 l 1
 291 816 l 1
 462 973 l 1
 557.5 921 l 1
EndSplineSet
EndChar

StartChar: lacute
Encoding: 314 314 295
Width: 250
VWidth: 0
Flags: HMW
LayerCount: 2
Fore
SplineSet
167 780 m 1
 296.5 780 l 1
 162 0 l 1
 34.5 0 l 1
 167 780 l 1
416 987 m 1
 218 841 l 1
 149 881 l 1
 319 1038 l 1
 416 987 l 1
EndSplineSet
EndChar

StartChar: uni013B
Encoding: 315 315 296
Width: 489
VWidth: 0
Flags: HMW
LayerCount: 2
Fore
SplineSet
165 700 m 1
 307.5 700 l 1
 209 126 l 1
 480 126 l 1
 458 0 l 1
 45 0 l 1
 165 700 l 1
218 -61 m 1
 344 -94 l 1
 185 -341 l 1
 89 -317.5 l 1
 218 -61 l 1
EndSplineSet
EndChar

StartChar: uni013C
Encoding: 316 316 297
Width: 250
VWidth: 0
Flags: HMW
LayerCount: 2
Fore
SplineSet
167 780 m 1
 296.5 780 l 1
 162 0 l 1
 34.5 0 l 1
 167 780 l 1
65 -61 m 1
 191 -94 l 1
 31 -341 l 1
 -64 -317.5 l 1
 65 -61 l 1
EndSplineSet
EndChar

StartChar: Lcaron
Encoding: 317 317 298
Width: 489
VWidth: 0
Flags: HMW
LayerCount: 2
Fore
SplineSet
165 700 m 1
 307.5 700 l 1
 209 126 l 1
 480 126 l 1
 458 0 l 1
 45 0 l 1
 165 700 l 1
468 713 m 1
 593.5 681 l 1
 434 434 l 1
 339.5 456.5 l 1
 468 713 l 1
EndSplineSet
EndChar

StartChar: lcaron
Encoding: 318 318 299
Width: 250
VWidth: 0
Flags: HMW
LayerCount: 2
Fore
SplineSet
167 780 m 1
 296.5 780 l 1
 162 0 l 1
 34.5 0 l 1
 167 780 l 1
426 779 m 1
 552 746 l 1
 392 499 l 1
 297 522.5 l 1
 426 779 l 1
EndSplineSet
EndChar

StartChar: Ldot
Encoding: 319 319 300
Width: 489
VWidth: 0
Flags: HMW
LayerCount: 2
Fore
SplineSet
165 700 m 1
 307.5 700 l 1
 209 126 l 1
 480 126 l 1
 458 0 l 1
 45 0 l 1
 165 700 l 1
338 427 m 0
 343.5 469 386 507.5 431 506.5 c 0
 476.5 505.5 506.5 467 501 425 c 0
 495.5 383 454 344 409 345 c 0
 363.5 346 332.5 385 338 427 c 0
EndSplineSet
EndChar

StartChar: ldot
Encoding: 320 320 301
Width: 431
VWidth: 0
Flags: HMW
LayerCount: 2
Fore
SplineSet
167 780 m 1
 296.5 780 l 1
 162 0 l 1
 34.5 0 l 1
 167 780 l 1
276.5 412 m 0
 282 454 324 492 369 491 c 0
 414.5 490 443.5 452 438 410 c 0
 432.5 368 391 328.5 346 329.5 c 0
 300.5 330.5 271 370 276.5 412 c 0
EndSplineSet
EndChar

StartChar: eth
Encoding: 240 240 302
Width: 611
VWidth: 0
Flags: HMW
LayerCount: 2
Fore
SplineSet
285 -14 m 0
 149 -14 52 74.5 52 211.5 c 0
 52 358.5 169.5 468 300 468 c 0
 376 468 434.5 430 494 356 c 1
 452.5 358 l 1
 404.5 491.5 332 581 202 680 c 1
 295 750 l 1
 500 565 577 428.5 577 277.5 c 0
 577 122.5 459 -14 285 -14 c 0
294 104 m 0
 379 104 437 177 437 251 c 0
 437 319.5 395 362.5 333 362.5 c 0
 258.5 362.5 188 295 188 214 c 0
 188 150 230.5 104 294 104 c 0
217.5 506 m 1
 201 558 l 1
 529 669 l 1
 546 616 l 1
 217.5 506 l 1
EndSplineSet
EndChar

StartChar: racute
Encoding: 341 341 303
Width: 378
VWidth: 0
Flags: HMW
LayerCount: 2
Fore
SplineSet
239 460 m 1
 160 0 l 1
 33 0 l 1
 113 460 l 1
 239 460 l 1
349 324 m 1
 333 338 318.5 348.5 295.5 349 c 0
 242 350 213 298 202 243.5 c 1
 171 281 l 1
 188 375 256 471 343 470 c 0
 375.5 470 402.5 455.5 422.5 432.5 c 1
 349 324 l 1
455 677.5 m 1
 257 531 l 1
 189 572 l 1
 360 729 l 1
 455 677.5 l 1
EndSplineSet
EndChar

StartChar: rcaron
Encoding: 345 345 304
Width: 378
VWidth: 0
Flags: HMW
LayerCount: 2
Fore
SplineSet
239 460 m 1
 160 0 l 1
 33 0 l 1
 113 460 l 1
 239 460 l 1
349 324 m 1
 333 338 318.5 348.5 295.5 349 c 0
 242 350 213 298 202 243.5 c 1
 171 281 l 1
 188 375 256 471 343 470 c 0
 375.5 470 402.5 455.5 422.5 432.5 c 1
 349 324 l 1
297.5 645 m 1
 407 732 l 1
 486.5 668 l 1
 285 530 l 1
 124 672.5 l 1
 219 732.5 l 1
 297.5 645 l 1
EndSplineSet
EndChar

StartChar: Rcaron
Encoding: 344 344 305
Width: 601
VWidth: 0
Flags: HMW
LayerCount: 2
Fore
SplineSet
258 326 m 1
 403.5 326 l 1
 569 0 l 1
 406.5 0 l 1
 258 326 l 1
164.5 700 m 1
 307.5 700 l 1
 187 0 l 1
 46 0 l 1
 164.5 700 l 1
230 577 m 1
 251 700 l 1
 391 700 l 1
 539 698 633 609.5 612.5 476 c 0
 591.5 340.5 475.5 256 323 254 c 1
 173.5 254 l 1
 194 368 l 1
 325.5 368 l 1
 395.5 370 453.5 407 465.5 472.5 c 0
 476.5 535.5 436 574 369 576 c 1
 230 577 l 1
408 889 m 1
 517 976 l 1
 597 912 l 1
 395 774 l 1
 235 916 l 1
 329.5 976 l 1
 408 889 l 1
EndSplineSet
EndChar

StartChar: uni0213
Encoding: 531 531 306
Width: 378
VWidth: 0
Flags: HMW
LayerCount: 2
Fore
SplineSet
239 460 m 1
 160 0 l 1
 33 0 l 1
 113 460 l 1
 239 460 l 1
349 324 m 1
 333 338 318.5 348.5 295.5 349 c 0
 242 350 213 298 202 243.5 c 1
 171 281 l 1
 188 375 256 471 343 470 c 0
 375.5 470 402.5 455.5 422.5 432.5 c 1
 349 324 l 1
123.5 530 m 1
 212 531 l 1
 222.5 562 248 595.5 292.5 594.5 c 0
 337.5 593.5 352 564 352.5 530 c 1
 438 530 l 1
 447.5 607.5 408 674 310.5 675 c 0
 210 676 146 608 123.5 530 c 1
EndSplineSet
EndChar

StartChar: uni0212
Encoding: 530 530 307
Width: 601
VWidth: 0
Flags: HMW
LayerCount: 2
Fore
SplineSet
258 326 m 1
 403.5 326 l 1
 569 0 l 1
 406.5 0 l 1
 258 326 l 1
164.5 700 m 1
 307.5 700 l 1
 187 0 l 1
 46 0 l 1
 164.5 700 l 1
230 577 m 1
 251 700 l 1
 391 700 l 1
 539 698 633 609.5 612.5 476 c 0
 591.5 340.5 475.5 256 323 254 c 1
 173.5 254 l 1
 194 368 l 1
 325.5 368 l 1
 395.5 370 453.5 407 465.5 472.5 c 0
 476.5 535.5 436 574 369 576 c 1
 230 577 l 1
248.5 774 m 1
 337 774.5 l 1
 347.5 805.5 373.5 839 418 838 c 0
 463 837 477 807.5 477.5 773.5 c 1
 563 774 l 1
 572.5 851.5 533.5 917 436 918 c 0
 335.5 919 271 852 248.5 774 c 1
EndSplineSet
EndChar

StartChar: OE
Encoding: 338 338 308
Width: 955
VWidth: 0
Flags: HMW
LayerCount: 2
Fore
SplineSet
570.5 312 m 1
 591.5 431 l 1
 940.5 431 l 1
 919.5 312 l 1
 570.5 312 l 1
565 670 m 1
 703.5 670 l 1
 592.5 30 l 1
 456 30 l 1
 565 670 l 1
905 121 m 1
 886 0 l 1
 356 0 l 1
 156.5 3.5 38 157 66 350 c 0
 97 550.5 262 697 466 700 c 1
 1005.5 700 l 1
 983.5 578 l 1
 627.5 578 l 1
 609.5 572 l 1
 475 572 l 1
 335 569 235 484 212 350 c 0
 190.5 222 253 131 390 128 c 1
 522.5 128 l 1
 544.5 122 l 1
 905 121 l 1
EndSplineSet
EndChar

StartChar: oe
Encoding: 339 339 309
Width: 873
VWidth: 0
Flags: HMW
LayerCount: 2
Fore
SplineSet
722 250 m 2
 730 313.5 717.5 374.5 649 377 c 0
 583 379.5 529 327 515 260 c 1
 507 230 l 1
 496.5 156 518 89 593 87 c 0
 649 86 691 118 724 155 c 1
 832 118 l 1
 779 48 697.5 -10.5 600 -10 c 0
 471.5 -9 412 107.5 428 230 c 0
 430.5 247 434.5 263 440 279 c 0
 474.5 386 568.5 471 687 470 c 0
 807 469 868 357.5 853.5 234 c 0
 852.5 224.5 850 211.5 847.5 202 c 1
 719 231 l 1
 722 250 l 2
474.5 202 m 1
 486.5 280 l 1
 840.5 280 l 1
 847 202 l 1
 474.5 202 l 1
44.5 230 m 0
 63.5 365.5 174 470.5 304 470 c 0
 434 469.5 482 357.5 466 230 c 0
 447 97 360 -9 231 -9.5 c 0
 101.5 -10 26.5 99.5 44.5 230 c 0
172 230 m 0
 162 160 194 101.5 264 100.5 c 0
 330.5 99.5 385.5 157 396.5 230 c 0
 406 298 381.5 357.5 315.5 359.5 c 0
 244.5 361.5 184 304 172 230 c 0
EndSplineSet
EndChar

StartChar: a.alt
Encoding: 65536 -1 310
Width: 507
VWidth: 0
Flags: HMW
LayerCount: 2
Fore
SplineSet
148.5 140 m 0
 144 102.5 172 82 209 81 c 0
 272 79 320 123 336 183.5 c 1
 344 126 l 1
 324.5 42 247.5 -9.5 158.5 -9.5 c 0
 73.5 -9.5 7 45 19 134 c 0
 34 227 119.5 280.5 225 280.5 c 0
 295.5 280.5 347 257 377 226.5 c 1
 368 165 l 1
 334.5 190.5 295.5 204.5 250 204 c 0
 197 203.5 154.5 182.5 148.5 140 c 0
138 329 m 1
 104 419 l 1
 160 445.5 228.5 472 306.5 472 c 0
 409 472 497.5 422 483.5 326 c 1
 428 0 l 1
 303 0 l 1
 358 301.5 l 1
 364 346 334.5 367 285 369 c 0
 227 371 170.5 345.5 138 329 c 1
EndSplineSet
EndChar

StartChar: Jcircumflex
Encoding: 308 308 312
Width: 293
VWidth: 0
Flags: HMW
LayerCount: 2
Fore
SplineSet
-112 -76 m 1
 -94 -95 -69.5 -110.5 -40 -109.5 c 0
 -2.5 -108.5 32.5 -76 40.5 -26 c 1
 165 700 l 1
 315 700 l 1
 186.5 -56.5 l 2
 166.5 -172.5 72 -234 -43.5 -233 c 0
 -107.5 -233 -163.5 -206 -202 -177 c 1
 -112 -76 l 1
270.5 862 m 1
 161.5 774.5 l 1
 82 838.5 l 1
 283 976 l 1
 444 834 l 1
 349 774 l 1
 270.5 862 l 1
EndSplineSet
EndChar

StartChar: jcircumflex
Encoding: 309 309 313
Width: 256
VWidth: 0
Flags: HMW
LayerCount: 2
Fore
SplineSet
-72.5 -88.5 m 1
 -61.5 -104.5 -50 -114.5 -32 -114.5 c 0
 2 -114.5 23 -79.5 29 -39 c 1
 115 460 l 1
 240.5 460 l 1
 150.5 -69 l 2
 134.5 -165 70.5 -234 -32.5 -233 c 0
 -84 -233 -116.5 -209 -141 -184 c 1
 -72.5 -88.5 l 1
208 617.5 m 1
 98 530.5 l 1
 18.5 594.5 l 1
 220.5 732 l 1
 381 590 l 1
 286 530 l 1
 208 617.5 l 1
EndSplineSet
EndChar

StartChar: Nacute
Encoding: 323 323 314
Width: 763
VWidth: 0
Flags: HMW
LayerCount: 2
Fore
SplineSet
647.5 700 m 1
 785 700 l 1
 659.5 -33.5 l 1
 258 433 l 1
 183 0 l 1
 45 0 l 1
 170 733.5 l 1
 572.5 267 l 1
 647.5 700 l 1
664 906.5 m 1
 466.5 760 l 1
 397 800 l 1
 568 957 l 1
 664 906.5 l 1
EndSplineSet
EndChar

StartChar: nacute
Encoding: 324 324 315
Width: 542
VWidth: 0
Flags: HMW
LayerCount: 2
Fore
SplineSet
241.5 460 m 1
 162 0 l 1
 33 0 l 1
 113 460 l 1
 241.5 460 l 1
372 280 m 1
 377.5 328.5 370 370.5 317 373 c 0
 262 375.5 222.5 330.5 210 281 c 1
 183 277 l 1
 201 377.5 263.5 470 373 470 c 0
 480 470 517 395.5 505 294 c 1
 455 0 l 1
 323 0 l 1
 372 280 l 1
513.5 677 m 1
 316.5 531 l 1
 248 571.5 l 1
 418 728.5 l 1
 513.5 677 l 1
EndSplineSet
EndChar

StartChar: uni0145
Encoding: 325 325 316
Width: 763
VWidth: 0
Flags: HMW
LayerCount: 2
Fore
SplineSet
325 -49 m 1
 451 -82 l 1
 291.5 -329 l 1
 196 -306 l 1
 325 -49 l 1
647.5 700 m 1
 785 700 l 1
 659.5 -33.5 l 1
 258 433 l 1
 183 0 l 1
 45 0 l 1
 170 733.5 l 1
 572.5 267 l 1
 647.5 700 l 1
EndSplineSet
EndChar

StartChar: uni0146
Encoding: 326 326 317
Width: 542
VWidth: 0
Flags: HMW
LayerCount: 2
Fore
SplineSet
241.5 460 m 1
 162 0 l 1
 33 0 l 1
 113 460 l 1
 241.5 460 l 1
372 280 m 1
 377.5 328.5 370 370.5 317 373 c 0
 262 375.5 222.5 330.5 210 281 c 1
 177.5 277 l 1
 196.5 378 263 470 373 470 c 0
 480 470 517 395.5 505 294 c 1
 455 0 l 1
 323 0 l 1
 372 280 l 1
211 -61 m 1
 337 -94 l 1
 177 -341 l 1
 82 -317.5 l 1
 211 -61 l 1
EndSplineSet
EndChar

StartChar: Ncaron
Encoding: 327 327 318
Width: 763
VWidth: 0
Flags: HMW
LayerCount: 2
Fore
SplineSet
493.5 896.5 m 1
 602.5 983.5 l 1
 682 920 l 1
 480.5 782 l 1
 320 924 l 1
 415 984 l 1
 493.5 896.5 l 1
647.5 700 m 1
 785 700 l 1
 659.5 -33.5 l 1
 258 433 l 1
 183 0 l 1
 45 0 l 1
 170 733.5 l 1
 572.5 267 l 1
 647.5 700 l 1
EndSplineSet
EndChar

StartChar: ncaron
Encoding: 328 328 319
Width: 542
VWidth: 0
Flags: HMW
LayerCount: 2
Fore
SplineSet
241.5 460 m 1
 162 0 l 1
 33 0 l 1
 113 460 l 1
 241.5 460 l 1
372 280 m 1
 377.5 328.5 370 370.5 317 373 c 0
 262 375.5 222.5 330.5 210 281 c 1
 177.5 277 l 1
 196.5 378 263 470 373 470 c 0
 480 470 517 395.5 505 294 c 1
 455 0 l 1
 323 0 l 1
 372 280 l 1
351 645 m 1
 460 732 l 1
 540 668 l 1
 338 530 l 1
 178 672.5 l 1
 272 732.5 l 1
 351 645 l 1
EndSplineSet
EndChar

StartChar: Omacron
Encoding: 332 332 320
Width: 787
VWidth: 0
Flags: HMW
LayerCount: 2
Fore
SplineSet
216 350 m 0
 197.5 232 254.5 121.5 383 120.5 c 0
 513.5 119.5 615.5 225 637 350 c 0
 656 468 600.5 578.5 470 579.5 c 0
 339.5 580.5 237 475 216 350 c 0
66 350 m 0
 97 554 274 714 484 714 c 0
 692 714 815.5 546.5 787 350 c 0
 756 146 581.5 -18.5 368 -18 c 0
 157.5 -17.5 37.5 153.5 66 350 c 0
321.5 774.5 m 1
 341 889 l 1
 697 889 l 1
 677 774 l 1
 321.5 774.5 l 1
EndSplineSet
EndChar

StartChar: omacron
Encoding: 333 333 321
Width: 558
VWidth: 0
Flags: HMW
LayerCount: 2
Fore
SplineSet
42.5 230 m 0
 62.5 367.5 185 470 328.5 470 c 0
 469 470 560.5 364.5 541 230 c 0
 521 92.5 398 -10 255 -10 c 0
 114.5 -10 23 95.5 42.5 230 c 0
174 230 m 0
 164 163 197 101.5 266 100.5 c 0
 336 99.5 398 159 410 230 c 0
 420 297 386.5 359 317.5 360 c 0
 247.5 361 186 301 174 230 c 0
166 530.5 m 1
 185 645 l 1
 541 645 l 1
 521 530 l 1
 166 530.5 l 1
EndSplineSet
EndChar

StartChar: Obreve
Encoding: 334 334 322
Width: 787
VWidth: 0
Flags: HMW
LayerCount: 2
Fore
SplineSet
216 350 m 0
 197.5 232 254.5 121.5 383 120.5 c 0
 513.5 119.5 615.5 225 637 350 c 0
 656 468 600.5 578.5 470 579.5 c 0
 339.5 580.5 237 475 216 350 c 0
66 350 m 0
 97 554 274 714 484 714 c 0
 692 714 815.5 546.5 787 350 c 0
 756 146 581.5 -18.5 368 -18 c 0
 157.5 -17.5 37.5 153.5 66 350 c 0
365 918 m 1
 452 918 l 1
 451.5 886 466 856 509 855 c 0
 553.5 854 580 887 591 918 c 1
 681.5 917 l 1
 663.5 838.5 601.5 774.5 503 774.5 c 0
 405.5 774.5 359.5 838 365 918 c 1
EndSplineSet
EndChar

StartChar: obreve
Encoding: 335 335 323
Width: 558
VWidth: 0
Flags: HMW
LayerCount: 2
Fore
SplineSet
42.5 230 m 0
 62.5 367.5 185 470 328.5 470 c 0
 469 470 560.5 364.5 541 230 c 0
 521 92.5 398 -10 255 -10 c 0
 114.5 -10 23 95.5 42.5 230 c 0
174 230 m 0
 164 163 197 101.5 266 100.5 c 0
 336 99.5 398 159 410 230 c 0
 420 297 386.5 359 317.5 360 c 0
 247.5 361 186 301 174 230 c 0
209 675 m 1
 296.5 674.5 l 1
 296 642.5 309.5 612.5 352.5 611.5 c 0
 397 610.5 424 643.5 435 674.5 c 1
 525 673.5 l 1
 507 595 445.5 531 347 531 c 0
 249.5 531 203.5 595 209 675 c 1
EndSplineSet
EndChar

StartChar: Racute
Encoding: 340 340 324
Width: 601
VWidth: 0
Flags: HMW
LayerCount: 2
Fore
SplineSet
258 326 m 1
 403.5 326 l 1
 569 0 l 1
 406.5 0 l 1
 258 326 l 1
164.5 700 m 1
 307.5 700 l 1
 187 0 l 1
 46 0 l 1
 164.5 700 l 1
230 577 m 1
 251 700 l 1
 391 700 l 1
 539 698 633 609.5 612.5 476 c 0
 591.5 340.5 475.5 256 323 254 c 1
 173.5 254 l 1
 194 368 l 1
 325.5 368 l 1
 395.5 370 453.5 407 465.5 472.5 c 0
 476.5 535.5 436 574 369 576 c 1
 230 577 l 1
568.5 921 m 1
 370.5 775 l 1
 301.5 816 l 1
 472.5 973 l 1
 568.5 921 l 1
EndSplineSet
EndChar

StartChar: uni0156
Encoding: 342 342 325
Width: 601
VWidth: 0
Flags: HMW
LayerCount: 2
Fore
SplineSet
258 326 m 1
 403.5 326 l 1
 569 0 l 1
 406.5 0 l 1
 258 326 l 1
164.5 700 m 1
 307.5 700 l 1
 187 0 l 1
 46 0 l 1
 164.5 700 l 1
230 577 m 1
 251 700 l 1
 391 700 l 1
 539 698 633 609.5 612.5 476 c 0
 591.5 340.5 475.5 256 323 254 c 1
 173.5 254 l 1
 194 368 l 1
 325.5 368 l 1
 395.5 370 453.5 407 465.5 472.5 c 0
 476.5 535.5 436 574 369 576 c 1
 230 577 l 1
274.5 -61 m 1
 400.5 -94 l 1
 241.5 -341 l 1
 146 -317.5 l 1
 274.5 -61 l 1
EndSplineSet
EndChar

StartChar: uni0157
Encoding: 343 343 326
Width: 378
VWidth: 0
Flags: HMW
LayerCount: 2
Fore
SplineSet
239 460 m 1
 160 0 l 1
 33 0 l 1
 113 460 l 1
 239 460 l 1
349 324 m 1
 333 338 318.5 348.5 295.5 349 c 0
 242 350 213 298 202 243.5 c 1
 171 281 l 1
 188 375 256 471 343 470 c 0
 375.5 470 402.5 455.5 422.5 432.5 c 1
 349 324 l 1
64 -61 m 1
 189.5 -94 l 1
 30 -341 l 1
 -64.5 -317.5 l 1
 64 -61 l 1
EndSplineSet
EndChar

StartChar: Scedilla
Encoding: 350 350 327
Width: 583
VWidth: 0
Flags: HMW
LayerCount: 2
Fore
SplineSet
148 244 m 1
 178 168 214.5 109 292.5 109 c 0
 349.5 109 393.5 139 403 190 c 0
 416 257 346 285.5 282 313 c 0
 204 346.5 118 404.5 133 522 c 0
 151 638 259 714 390 714 c 0
 510.5 714 578 647.5 605.5 561 c 1
 490 497 l 1
 467.5 547.5 434.5 589.5 376 589.5 c 0
 326 589.5 286 560.5 278 517.5 c 0
 266 459.5 349.5 433 412 408 c 0
 500.5 371 566.5 303 552 193.5 c 0
 532.5 60.5 416 -18 275 -18 c 0
 154 -18 67 60.5 36 173 c 1
 148 244 l 1
266 59.5 m 1
 362.5 57 l 1
 262 -62 l 1
 270 -60 278.5 -59 287.5 -59 c 0
 330 -62 365.5 -98 359 -151 c 0
 350.5 -215 284 -252.5 224 -253.5 c 0
 176.5 -254.5 141 -240.5 102 -213.5 c 1
 151 -155.5 l 1
 171.5 -170.5 194.5 -180 217 -180 c 0
 244 -180 275.5 -164.5 277.5 -141.5 c 0
 279.5 -118 253.5 -110.5 230 -110 c 0
 212 -109 180 -115 151.5 -125 c 1
 266 59.5 l 1
EndSplineSet
EndChar

StartChar: scedilla
Encoding: 351 351 328
Width: 427
VWidth: 0
Flags: HMW
LayerCount: 2
Fore
SplineSet
80.5 171 m 1
 124 120.5 166 85 208 86 c 0
 236 86 265.5 100.5 270 127.5 c 0
 277 167.5 228.5 184 188.5 200.5 c 0
 126 226.5 71 262.5 82 342 c 0
 94.5 426 175 470 261 470 c 0
 333.5 470 391.5 439 435 395 c 1
 368.5 315.5 l 1
 341.5 347.5 302.5 375 263.5 375 c 0
 234.5 375 204.5 363 200 339 c 0
 192 300 255 287.5 295.5 270.5 c 0
 357 244.5 407 203.5 398 130 c 0
 386 33.5 309 -15.5 213 -15.5 c 0
 123.5 -15.5 56.5 30 7.5 91 c 1
 80.5 171 l 1
199 62 m 1
 297 59 l 1
 196.5 -58.5 l 1
 203.5 -56.5 212 -56.5 220 -56.5 c 0
 263 -59.5 299.5 -93.5 293.5 -147 c 0
 285.5 -212 217 -250 157 -250.5 c 0
 110 -251 76 -237.5 37 -210.5 c 1
 84.5 -153 l 1
 105 -168 127.5 -177 150 -177 c 0
 177 -177 209 -162 211 -139 c 0
 213 -115.5 186 -107.5 162.5 -107 c 0
 144.5 -106 114.5 -113 86 -123 c 1
 199 62 l 1
EndSplineSet
EndChar

StartChar: Zcaron
Encoding: 381 381 329
Width: 579
VWidth: 0
Flags: HMW
LayerCount: 2
Fore
SplineSet
117 570 m 1
 140 700 l 1
 660 699.5 l 1
 230.5 126.5 l 1
 530.5 126 l 1
 508.5 0 l 1
 -20.5 0 l 1
 407 569 l 1
 117 570 l 1
428 889 m 1
 536.5 976 l 1
 616.5 912 l 1
 415 774 l 1
 254.5 916 l 1
 349 976 l 1
 428 889 l 1
EndSplineSet
EndChar

StartChar: zcaron
Encoding: 382 382 330
Width: 484
VWidth: 0
Flags: HMW
LayerCount: 2
Fore
SplineSet
342.5 645 m 1
 452 732 l 1
 532 667.5 l 1
 329.5 530 l 1
 169.5 672 l 1
 264 732 l 1
 342.5 645 l 1
290 340.5 m 1
 82 341.5 l 1
 103 460 l 1
 529.5 459.5 l 1
 231 119.5 l 1
 441 119 l 1
 420 0 l 1
 -16 0 l 1
 290 340.5 l 1
EndSplineSet
EndChar

StartChar: Ydieresis
Encoding: 376 376 331
Width: 611
VWidth: 0
Flags: HMW
LayerCount: 2
Fore
SplineSet
223.5 857 m 0
 228.5 896 269 930 310 929 c 0
 351.5 928 382.5 894.5 377.5 854.5 c 0
 372.5 815.5 331 781.5 290 782.5 c 0
 248 783.5 218.5 817 223.5 857 c 0
473 857 m 0
 478 896 518.5 930 559.5 929 c 0
 601 928 631 894.5 626 854.5 c 0
 621 815.5 580 781.5 539 782.5 c 0
 497 783.5 468 817 473 857 c 0
541 699.5 m 1
 707 699.5 l 1
 400 286.5 l 1
 351 0 l 1
 206 0 l 1
 258 293 l 1
 94.5 700 l 1
 253 700 l 1
 348.5 421 l 1
 541 699.5 l 1
EndSplineSet
EndChar

StartChar: Scaron
Encoding: 352 352 332
Width: 583
VWidth: 0
Flags: HMW
LayerCount: 2
Fore
SplineSet
148 244 m 1
 178 168 214.5 109 292.5 109 c 0
 349.5 109 393.5 139 403 190 c 0
 416 257 346 285.5 282 313 c 0
 205 347 118.5 410.5 133.5 524.5 c 0
 151.5 639.5 263 714 390 714 c 0
 509.5 714 581.5 644.5 605.5 561 c 1
 490 496.5 l 1
 468 546.5 440.5 588.5 382 589.5 c 0
 331.5 589.5 286 561.5 278 517.5 c 0
 266 460 349.5 433 412 408 c 0
 500.5 371 566.5 303 552 193.5 c 0
 532.5 60 420 -18.5 275 -18 c 0
 154 -17.5 67 60.5 36 173 c 1
 148 244 l 1
420 889 m 1
 529.5 976 l 1
 609 912 l 1
 407 774 l 1
 247 916 l 1
 342 976 l 1
 420 889 l 1
EndSplineSet
EndChar

StartChar: scaron
Encoding: 353 353 333
Width: 427
VWidth: 0
Flags: HMW
LayerCount: 2
Fore
SplineSet
82 170 m 1
 117.5 119.5 158.5 88 206 88 c 0
 236 88 265 99.5 269.5 127 c 0
 276 165.5 211 183 171 202 c 0
 113.5 229.5 64.5 269.5 74 341 c 0
 86.5 424.5 174.5 469 261 469.5 c 0
 333.5 469.5 396 439 435 394 c 1
 368.5 315 l 1
 339.5 347 298 369.5 258.5 369.5 c 0
 230.5 369.5 199.5 359 196 334.5 c 0
 190.5 301.5 256.5 285 295.5 268 c 0
 356 242 407 200 398 129.5 c 0
 386 32 307 -16 207 -16 c 0
 117.5 -16 47.5 27.5 7.5 90.5 c 1
 82 170 l 1
290 636.5 m 1
 399 723.5 l 1
 479 659.5 l 1
 277 522 l 1
 116.5 664 l 1
 211.5 724 l 1
 290 636.5 l 1
EndSplineSet
EndChar

StartChar: Lslash
Encoding: 321 321 334
Width: 493
VWidth: 0
Flags: HMW
LayerCount: 2
Fore
SplineSet
34 318 m 1
 12 389 l 1
 374 609.5 l 1
 397 539.5 l 1
 34 318 l 1
165 700 m 1
 307.5 700 l 1
 209 126 l 1
 480 126 l 1
 458 0 l 1
 45 0 l 1
 165 700 l 1
EndSplineSet
EndChar

StartChar: lslash
Encoding: 322 322 335
Width: 250
VWidth: 0
Flags: HMW
LayerCount: 2
Fore
SplineSet
26 318 m 1
 4 389 l 1
 334 585 l 1
 357 515 l 1
 26 318 l 1
167 780 m 1
 296.5 780 l 1
 162 0 l 1
 34.5 0 l 1
 167 780 l 1
EndSplineSet
EndChar

StartChar: uni0218
Encoding: 536 536 336
Width: 583
VWidth: 0
Flags: HMW
LayerCount: 2
Fore
SplineSet
148 244 m 1
 178 168 214.5 109 292.5 109 c 0
 349.5 109 393.5 139 403 190 c 0
 416 257 346 285.5 282 313 c 0
 205 347 118.5 410.5 133.5 524.5 c 0
 151.5 639.5 263 714 390 714 c 0
 509.5 714 581.5 644.5 605.5 561 c 1
 490 496.5 l 1
 468 546.5 440.5 588.5 382 589.5 c 0
 331.5 589.5 286 561.5 278 517.5 c 0
 266 460 349.5 433 412 408 c 0
 500.5 371 566.5 303 552 193.5 c 0
 532.5 60 420 -18.5 275 -18 c 0
 154 -17.5 67 60.5 36 173 c 1
 148 244 l 1
222 -71 m 1
 348 -104 l 1
 188 -351 l 1
 93 -327.5 l 1
 222 -71 l 1
EndSplineSet
EndChar

StartChar: uni0219
Encoding: 537 537 337
Width: 427
VWidth: 0
Flags: HMW
LayerCount: 2
Fore
SplineSet
82 170 m 1
 117.5 119.5 157.5 88 205 88 c 0
 235 88 265 99.5 269.5 127 c 0
 276 165.5 211 183 171 202 c 0
 113.5 229.5 64.5 269.5 74 341 c 0
 86.5 424.5 174.5 469 261 469.5 c 0
 333.5 469.5 396 439 435 394 c 1
 368.5 315 l 1
 339.5 347 298 369.5 258.5 369.5 c 0
 230.5 369.5 199.5 359 196 334.5 c 0
 190.5 301.5 256.5 285 295.5 268 c 0
 356 242 407 200 398 129.5 c 0
 386 32 307 -16 207 -16 c 0
 117.5 -16 47.5 27.5 7.5 90.5 c 1
 82 170 l 1
155 -69 m 1
 280 -102 l 1
 120.5 -349 l 1
 26 -325.5 l 1
 155 -69 l 1
EndSplineSet
EndChar

StartChar: pi
Encoding: 960 960 338
Width: 565
VWidth: 0
Flags: HMW
LayerCount: 2
Fore
SplineSet
132 430 m 1
 256 430 l 1
 181 0 l 1
 59.5 0 l 1
 132 430 l 1
80 460 m 1
 581 460 l 1
 561.5 350 l 1
 60 350 l 1
 80 460 l 1
376 430 m 1
 498 430 l 1
 452 167 l 1
 446 114 457.5 104.5 491.5 97 c 1
 474.5 -8.5 l 1
 373 -6 309.5 11 323 121 c 1
 376 430 l 1
EndSplineSet
EndChar

StartChar: trademark
Encoding: 8482 8482 339
Width: 699
VWidth: 0
Flags: HMW
LayerCount: 2
Fore
SplineSet
109.5 635 m 1
 120.5 700 l 1
 376 700 l 1
 365.5 635 l 1
 273.5 635 l 1
 224.5 350 l 1
 152.5 350 l 1
 200.5 635 l 1
 109.5 635 l 1
646.5 598 m 1
 721 724 l 1
 706 350 l 1
 632 350 l 1
 646.5 598 l 1
432.5 718 m 1
 463 591 l 1
 394.5 350.5 l 1
 318 351 l 1
 432.5 718 l 1
723 724 m 1
 700 608 l 1
 520 381 l 1
 415 616 l 1
 432.5 717 l 1
 534.5 494 l 1
 723 724 l 1
EndSplineSet
EndChar

StartChar: uni2219
Encoding: 8729 8729 340
Width: 305
VWidth: 0
Flags: HMW
LayerCount: 2
Fore
SplineSet
120 435 m 0
 125.5 477 167 516.5 212 515.5 c 0
 257.5 514.5 286.5 475 281 433 c 0
 275.5 391 234 353 189 354 c 0
 143.5 355 114.5 393 120 435 c 0
EndSplineSet
EndChar

StartChar: agrave.alt
Encoding: 65537 -1 341
Width: 510
VWidth: 0
Flags: HMW
LayerCount: 2
Fore
SplineSet
148.5 136.5 m 0
 143.5 100.5 169.5 82 209 81 c 0
 274 79 322.5 117.5 338.5 183.5 c 1
 346.5 129 l 1
 327 44.5 254 -9.5 159.5 -9.5 c 0
 69.5 -9.5 6.5 42.5 18.5 127.5 c 0
 32.5 225.5 128 280.5 234 280.5 c 0
 298 280.5 351 256 379 227.5 c 1
 370 165 l 1
 335.5 191.5 302 206 254 205 c 0
 202 204 155.5 180.5 148.5 136.5 c 0
142.5 328 m 1
 109 419 l 1
 165 445.5 233 472 309.5 472 c 0
 412.5 472 498.5 422.5 486 326 c 1
 430.5 0 l 1
 305.5 0 l 1
 360.5 305 l 1
 362.5 345.5 336.5 367 290.5 369 c 0
 231.5 371 176.5 345 142.5 328 c 1
185.5 684 m 1
 291.5 731 l 1
 412 568.5 l 1
 337.5 532 l 1
 185.5 684 l 1
EndSplineSet
EndChar

StartChar: aacute.alt
Encoding: 65538 -1 342
Width: 510
VWidth: 0
Flags: HMW
LayerCount: 2
Fore
SplineSet
148.5 136.5 m 0
 143.5 100.5 169.5 82 209 81 c 0
 274 79 322.5 117.5 338.5 183.5 c 1
 346.5 129 l 1
 327 44.5 254 -9.5 159.5 -9.5 c 0
 69.5 -9.5 6.5 42.5 18.5 127.5 c 0
 32.5 225.5 128 280.5 234 280.5 c 0
 298 280.5 351 256 379 227.5 c 1
 370 165 l 1
 335.5 191.5 302 206 254 205 c 0
 202 204 155.5 180.5 148.5 136.5 c 0
142.5 328 m 1
 109 419 l 1
 165 445.5 233 472 309.5 472 c 0
 412.5 472 498.5 422.5 486 326 c 1
 430.5 0 l 1
 305.5 0 l 1
 360.5 305 l 1
 362.5 345.5 336.5 367 290.5 369 c 0
 231.5 371 176.5 345 142.5 328 c 1
513.5 679 m 1
 315.5 533 l 1
 246.5 573.5 l 1
 417.5 730.5 l 1
 513.5 679 l 1
EndSplineSet
EndChar

StartChar: acircumflex.alt
Encoding: 65539 -1 343
Width: 510
VWidth: 0
Flags: HMW
LayerCount: 2
Fore
SplineSet
148.5 136.5 m 0
 143.5 100.5 169.5 82 209 81 c 0
 274 79 322.5 117.5 338.5 183.5 c 1
 346.5 129 l 1
 327 44.5 254 -9.5 159.5 -9.5 c 0
 69.5 -9.5 6.5 42.5 18.5 127.5 c 0
 32.5 225.5 128 280.5 234 280.5 c 0
 298 280.5 351 256 379 227.5 c 1
 370 165 l 1
 335.5 191.5 302 206 254 205 c 0
 202 204 155.5 180.5 148.5 136.5 c 0
142.5 328 m 1
 109 419 l 1
 165 445.5 233 472 309.5 472 c 0
 412.5 472 498.5 422.5 486 326 c 1
 430.5 0 l 1
 305.5 0 l 1
 360.5 305 l 1
 362.5 345.5 336.5 367 290.5 369 c 0
 231.5 371 176.5 345 142.5 328 c 1
342 619.5 m 1
 232.5 532.5 l 1
 153 596.5 l 1
 355 734 l 1
 515 592 l 1
 420 532 l 1
 342 619.5 l 1
EndSplineSet
EndChar

StartChar: atilde.alt
Encoding: 65540 -1 344
Width: 510
VWidth: 0
Flags: HMW
LayerCount: 2
Fore
SplineSet
148.5 136.5 m 0
 143.5 100.5 169.5 82 209 81 c 0
 274 79 322.5 117.5 338.5 183.5 c 1
 346.5 129 l 1
 327 44.5 254 -9.5 159.5 -9.5 c 0
 69.5 -9.5 6.5 42.5 18.5 127.5 c 0
 32.5 225.5 128 280.5 234 280.5 c 0
 298 280.5 351 256 379 227.5 c 1
 370 165 l 1
 335.5 191.5 302 206 254 205 c 0
 202 204 155.5 180.5 148.5 136.5 c 0
142.5 328 m 1
 109 419 l 1
 165 445.5 233 472 309.5 472 c 0
 412.5 472 498.5 422.5 486 326 c 1
 430.5 0 l 1
 305.5 0 l 1
 360.5 305 l 1
 362.5 345.5 336.5 367 290.5 369 c 0
 231.5 371 176.5 345 142.5 328 c 1
151.5 591 m 1
 172 636.5 217 681 275 679.5 c 0
 329 678.5 346 629 395 630.5 c 0
 422 631.5 445 655 466 680.5 c 1
 520 614 l 1
 495 577.5 443 533 387 535 c 0
 339 537 310.5 587.5 265.5 585 c 0
 231 583 218 553 209.5 535 c 1
 151.5 591 l 1
EndSplineSet
EndChar

StartChar: adieresis.alt
Encoding: 65541 -1 345
Width: 510
VWidth: 0
Flags: HMW
LayerCount: 2
Fore
SplineSet
148.5 136.5 m 0
 143.5 100.5 169.5 82 209 81 c 0
 274 79 322.5 117.5 338.5 183.5 c 1
 346.5 129 l 1
 327 44.5 254 -9.5 159.5 -9.5 c 0
 69.5 -9.5 6.5 42.5 18.5 127.5 c 0
 32.5 225.5 128 280.5 234 280.5 c 0
 298 280.5 351 256 379 227.5 c 1
 370 165 l 1
 335.5 191.5 302 206 254 205 c 0
 202 204 155.5 180.5 148.5 136.5 c 0
142.5 328 m 1
 109 419 l 1
 165 445.5 233 472 309.5 472 c 0
 412.5 472 498.5 422.5 486 326 c 1
 430.5 0 l 1
 305.5 0 l 1
 360.5 305 l 1
 362.5 345.5 336.5 367 290.5 369 c 0
 231.5 371 176.5 345 142.5 328 c 1
371.5 607 m 0
 376.5 646 417 680.5 458 679.5 c 0
 499.5 678.5 529.5 645 524.5 605 c 0
 519.5 566 478.5 531.5 437.5 532.5 c 0
 396 533.5 366.5 567 371.5 607 c 0
147.5 607 m 0
 152.5 646 193 680.5 234 679.5 c 0
 275.5 678.5 305 645 300 605 c 0
 295 566 255 531.5 214 532.5 c 0
 172.5 533.5 142.5 567 147.5 607 c 0
EndSplineSet
EndChar

StartChar: aring.alt
Encoding: 65542 -1 346
Width: 510
VWidth: 0
Flags: HMW
LayerCount: 2
Fore
SplineSet
148.5 136.5 m 0
 143.5 100.5 169.5 82 209 81 c 0
 274 79 322.5 117.5 338.5 183.5 c 1
 346.5 129 l 1
 327 44.5 254 -9.5 159.5 -9.5 c 0
 69.5 -9.5 6.5 42.5 18.5 127.5 c 0
 32.5 225.5 128 280.5 234 280.5 c 0
 298 280.5 351 256 379 227.5 c 1
 370 165 l 1
 335.5 191.5 302 206 254 205 c 0
 202 204 155.5 180.5 148.5 136.5 c 0
142.5 328 m 1
 109 419 l 1
 165 445.5 233 472 309.5 472 c 0
 412.5 472 498.5 422.5 486 326 c 1
 430.5 0 l 1
 305.5 0 l 1
 360.5 305 l 1
 362.5 345.5 336.5 367 290.5 369 c 0
 231.5 371 176.5 345 142.5 328 c 1
227 645 m 0
 235.5 707 295 753.5 358 753.5 c 0
 421 753.5 466.5 705.5 458 643 c 0
 449.5 581 390 532.5 327 532.5 c 0
 264 532.5 218.5 583 227 645 c 0
296 643 m 0
 293 618.5 308.5 595.5 331.5 594.5 c 0
 356 592.5 385.5 618.5 388.5 644 c 0
 391.5 668.5 376 691.5 353 692.5 c 0
 328.5 694.5 299 668.5 296 643 c 0
EndSplineSet
EndChar

StartChar: amacron.alt
Encoding: 65543 -1 347
Width: 510
VWidth: 0
Flags: HMW
LayerCount: 2
Fore
SplineSet
148.5 136.5 m 0
 143.5 100.5 169.5 82 209 81 c 0
 274 79 322.5 117.5 338.5 183.5 c 1
 346.5 129 l 1
 327 44.5 254 -9.5 159.5 -9.5 c 0
 69.5 -9.5 6.5 42.5 18.5 127.5 c 0
 32.5 225.5 128 280.5 234 280.5 c 0
 298 280.5 351 256 379 227.5 c 1
 370 165 l 1
 335.5 191.5 302 206 254 205 c 0
 202 204 155.5 180.5 148.5 136.5 c 0
142.5 328 m 1
 109 419 l 1
 165 445.5 233 472 309.5 472 c 0
 412.5 472 498.5 422.5 486 326 c 1
 430.5 0 l 1
 305.5 0 l 1
 360.5 305 l 1
 362.5 345.5 336.5 367 290.5 369 c 0
 231.5 371 176.5 345 142.5 328 c 1
147.5 544 m 1
 167 658 l 1
 524 658 l 1
 504 544 l 1
 147.5 544 l 1
EndSplineSet
EndChar

StartChar: abreve.alt
Encoding: 65544 -1 348
Width: 510
VWidth: 0
Flags: HMW
LayerCount: 2
Fore
SplineSet
148.5 136.5 m 0
 143.5 100.5 169.5 82 209 81 c 0
 274 79 322.5 117.5 338.5 183.5 c 1
 346.5 129 l 1
 327 44.5 254 -9.5 159.5 -9.5 c 0
 69.5 -9.5 6.5 42.5 18.5 127.5 c 0
 32.5 225.5 128 280.5 234 280.5 c 0
 298 280.5 351 256 379 227.5 c 1
 370 165 l 1
 335.5 191.5 302 206 254 205 c 0
 202 204 155.5 180.5 148.5 136.5 c 0
142.5 328 m 1
 109 419 l 1
 165 445.5 233 472 309.5 472 c 0
 412.5 472 498.5 422.5 486 326 c 1
 430.5 0 l 1
 305.5 0 l 1
 360.5 305 l 1
 362.5 345.5 336.5 367 290.5 369 c 0
 231.5 371 176.5 345 142.5 328 c 1
189.5 676 m 1
 277 676 l 1
 276.5 644 290 614 333 613 c 0
 377.5 612 403.5 645 414.5 676 c 1
 506 675 l 1
 488 596.5 425.5 532.5 327 532.5 c 0
 229.5 532.5 184 596 189.5 676 c 1
EndSplineSet
EndChar

StartChar: aogonek.alt
Encoding: 65545 -1 349
Width: 510
VWidth: 0
Flags: HMW
LayerCount: 2
Fore
SplineSet
148.5 136.5 m 0
 143.5 100.5 173 82 209 81 c 0
 274 79 322.5 118 338.5 183.5 c 1
 346.5 129 l 1
 327 44.5 254 -9.5 159.5 -9.5 c 0
 71.5 -9.5 7 44 19 132 c 0
 34 227.5 125.5 280.5 234 280.5 c 0
 298 280.5 351 256 379 227.5 c 1
 370 165 l 1
 335.5 191.5 302 206 254 205 c 0
 202 204 155 180.5 148.5 136.5 c 0
142.5 328 m 1
 109 419 l 1
 165 445.5 233 472 309.5 472 c 0
 412.5 472 498.5 422.5 486 326 c 1
 430.5 0 l 1
 305.5 0 l 1
 360.5 305 l 1
 362.5 345.5 336.5 367 290.5 369 c 0
 231.5 371 176.5 345 142.5 328 c 1
392 -116 m 1
 415.5 -181.5 l 1
 392.5 -201.5 361.5 -220 317 -220 c 0
 253 -220 207 -180.5 215 -119 c 0
 226 -50 303 -8.5 370 24.5 c 1
 409.5 0 l 1
 364.5 -25 318 -55.5 311 -96 c 0
 309 -118.5 316.5 -134 339.5 -136 c 0
 359.5 -137.5 377.5 -126.5 392 -116 c 1
EndSplineSet
EndChar

StartChar: dagger
Encoding: 8224 8224 350
Width: 594
VWidth: 0
Flags: HMW
LayerCount: 2
Fore
SplineSet
153 540 m 1
 576 540 l 1
 558 430 l 1
 135 430 l 1
 153 540 l 1
327 700 m 1
 450.5 700 l 1
 318.5 -150 l 1
 197 -150 l 1
 327 700 l 1
EndSplineSet
EndChar

StartChar: daggerdbl
Encoding: 8225 8225 351
Width: 594
VWidth: 0
Flags: HMW
LayerCount: 2
Fore
SplineSet
92 146 m 1
 515 146 l 1
 497.5 36 l 1
 74 36 l 1
 92 146 l 1
153 540 m 1
 576 540 l 1
 558 430 l 1
 135 430 l 1
 153 540 l 1
327 700 m 1
 450.5 700 l 1
 318.5 -150 l 1
 197 -150 l 1
 327 700 l 1
EndSplineSet
EndChar

StartChar: ellipsis
Encoding: 8230 8230 352
Width: 889
VWidth: 0
Flags: HMW
LayerCount: 2
Fore
SplineSet
56 61 m 0
 61.5 103 103 141.5 148 140.5 c 0
 193.5 139.5 222.5 101 217 59 c 0
 211.5 17 170 -22 125 -21 c 0
 79.5 -20 50.5 19 56 61 c 0
347 61 m 0
 352.5 103 394 141.5 439 140.5 c 0
 484.5 139.5 513.5 101 508 59 c 0
 502.5 17 461 -22 416 -21 c 0
 370.5 -20 341.5 19 347 61 c 0
638 61 m 0
 643.5 103 685 141.5 730 140.5 c 0
 775.5 139.5 804.5 101 799 59 c 0
 793.5 17 752 -22 707 -21 c 0
 661.5 -20 632.5 19 638 61 c 0
EndSplineSet
EndChar

StartChar: uniFF10
Encoding: 65296 65296 353
Width: 596
VWidth: 0
Flags: HMW
LayerCount: 2
Fore
SplineSet
193 350 m 0
 182 247 187 116.5 286.5 114.5 c 0
 386.5 112.5 451.5 234 467.5 350 c 0
 478.5 453 474.5 583.5 375 585.5 c 0
 275 587.5 209 466 193 350 c 0
55.5 350 m 0
 82.5 543.5 207 712 388 712 c 0
 573 712 628 532 605.5 350 c 0
 578.5 156 456.5 -12.5 273 -12 c 0
 91 -11.5 33 169 55.5 350 c 0
EndSplineSet
EndChar

StartChar: uniFF11
Encoding: 65297 65297 354
Width: 596
VWidth: 0
Flags: HMW
LayerCount: 2
Fore
SplineSet
166.5 516 m 1
 190.5 647 l 1
 502 713 l 1
 379.5 0 l 1
 241 0 l 1
 337 559 l 1
 166.5 516 l 1
EndSplineSet
EndChar

StartChar: uniFF12
Encoding: 65298 65298 355
Width: 596
VWidth: 0
Flags: HMW
LayerCount: 2
Fore
SplineSet
-13.5 0 m 1
 350 332 l 2
 402.5 381 452.5 427 463.5 488 c 0
 471.5 537 446 585 383.5 586.5 c 0
 307.5 588.5 255 520.5 239.5 447 c 1
 100 447 l 1
 126.5 591.5 235 714 401 713 c 0
 547 713 627 604.5 608.5 491 c 0
 596.5 415 545.5 353.5 484 303 c 2
 279 133 l 1
 560.5 132 l 1
 538.5 0 l 1
 -13.5 0 l 1
EndSplineSet
EndChar

StartChar: uniFF13
Encoding: 65299 65299 356
Width: 596
VWidth: 0
Flags: HMW
LayerCount: 2
Fore
SplineSet
295 341.5 m 1
 306 410 l 1
 378 415 442 450.5 453 512 c 0
 459 556 439 593 387 594 c 0
 330 595 288 552 274 504 c 1
 142 505 l 1
 166 623 264 712 398.5 712 c 0
 525.5 712 612.5 629.5 595 520 c 0
 574 395 435 344.5 295 341.5 c 1
276.5 -14 m 0
 129.5 -14 49 87.5 61 211 c 1
 199.5 210.5 l 1
 195.5 148.5 228.5 106.5 293 105.5 c 0
 355 104.5 408.5 143.5 419 204.5 c 0
 433.5 276.5 369.5 308.5 289.5 312 c 1
 301 388 l 1
 445 385 580 333 558 188.5 c 0
 538.5 64 419.5 -14 276.5 -14 c 0
EndSplineSet
EndChar

StartChar: uniFF14
Encoding: 65300 65300 357
Width: 596
VWidth: 0
Flags: HMW
LayerCount: 2
Fore
SplineSet
4 129.5 m 1
 138 236 l 1
 413.5 237 l 1
 433 252 l 1
 592.5 252 l 1
 571 129 l 1
 4 129.5 l 1
151 164 m 1
 2 127 l 1
 471 699 l 1
 570.5 700 l 1
 451 0 l 1
 303 0 l 1
 332 165 l 1
 347 176 l 1
 396 464 l 1
 151 164 l 1
EndSplineSet
EndChar

StartChar: uniFF15
Encoding: 65301 65301 358
Width: 596
VWidth: 0
Flags: HMW
LayerCount: 2
Fore
SplineSet
569.5 225.5 m 0
 547.5 74 408 -12 268 -12 c 0
 154.5 -12 76 34.5 18.5 97 c 1
 100.5 207 l 1
 139.5 157 195 120.5 257 120 c 0
 338.5 119.5 407 164 419 238.5 c 0
 430 309 375 353 305 354.5 c 0
 240.5 356.5 175 339 107 307 c 1
 211 384 l 1
 264 431 328 457.5 397.5 456.5 c 0
 517.5 455.5 586 350 569.5 225.5 c 0
352 574 m 1
 264 389.5 l 1
 100.5 302 l 1
 265 699.5 l 1
 639.5 700 l 1
 618 575 l 1
 352 574 l 1
EndSplineSet
EndChar

StartChar: uniFF16
Encoding: 65302 65302 359
Width: 596
VWidth: 0
Flags: HMW
LayerCount: 2
Fore
SplineSet
187 240.5 m 0
 176 171.5 212.5 111 285.5 110 c 0
 360 109 425 168.5 437 241 c 0
 448 309.5 412 372.5 338.5 373.5 c 0
 263.5 374.5 199 313 187 240.5 c 0
397.5 697.5 m 1
 581.5 697.5 l 1
 318 435 l 1
 288 427.5 l 1
 323 456 357 467.5 402 467.5 c 0
 517 466.5 591.5 361 576 240.5 c 0
 554.5 86.5 422.5 -14 272.5 -14 c 0
 124.5 -14 27 91.5 48 241 c 0
 59 311 98.5 371 144.5 421 c 2
 397.5 697.5 l 1
EndSplineSet
EndChar

StartChar: uniFF17
Encoding: 65303 65303 360
Width: 596
VWidth: 0
Flags: HMW
LayerCount: 2
Fore
SplineSet
111 566 m 1
 134 700 l 1
 670 699.5 l 1
 222 0 l 1
 66 0 l 1
 434 565 l 1
 111 566 l 1
EndSplineSet
EndChar

StartChar: uniFF18
Encoding: 65304 65304 361
Width: 596
VWidth: 0
Flags: HMW
LayerCount: 2
Fore
SplineSet
152.5 531.5 m 0
 169.5 642.5 279.5 714 397.5 714 c 0
 511.5 714 604.5 641 588.5 530.5 c 0
 572 413.5 456.5 346.5 343 346.5 c 0
 232.5 346.5 136 415.5 152.5 531.5 c 0
282.5 516.5 m 0
 275.5 471 302 429 349.5 428 c 0
 398 426 445 469.5 453 517.5 c 0
 460 563 436.5 605 386.5 606 c 0
 335.5 607 290.5 564.5 282.5 516.5 c 0
70 190.5 m 0
 88.5 323.5 222 394 342.5 394 c 0
 458 394 572.5 321.5 554 189.5 c 0
 535.5 67.5 410.5 -14 281.5 -14 c 0
 157.5 -14 52 69.5 70 190.5 c 0
213 210.5 m 0
 204 152.5 238 105.5 294.5 104.5 c 0
 352 103.5 409.5 150.5 419.5 211.5 c 0
 427.5 263.5 392.5 314 337 315 c 0
 280 316 223 265.5 213 210.5 c 0
EndSplineSet
EndChar

StartChar: uniFF19
Encoding: 65305 65305 362
Width: 596
VWidth: 0
Flags: HMW
LayerCount: 2
Fore
SplineSet
474 459.5 m 0
 485 528.5 448.5 589 375.5 590 c 0
 301 591 236 531.5 224 459 c 0
 213 390.5 249 327.5 322.5 326.5 c 0
 397.5 325.5 462 387 474 459.5 c 0
264 2.5 m 1
 80 2.5 l 1
 343 265 l 1
 373 272.5 l 1
 338 244 304 232.5 259 232.5 c 0
 144 233.5 69.5 339 85 459.5 c 0
 106.5 613.5 238.5 714 388.5 714 c 0
 536.5 714 634.5 608.5 613.5 459 c 0
 602.5 389 562.5 329 516.5 279 c 2
 264 2.5 l 1
EndSplineSet
EndChar

StartChar: caron
Encoding: 711 711 363
Width: 465
VWidth: 0
Flags: HMW
LayerCount: 2
Fore
SplineSet
317 671 m 1
 425.5 758 l 1
 506 694 l 1
 304 556 l 1
 144 698.5 l 1
 238.5 758.5 l 1
 317 671 l 1
EndSplineSet
EndChar

StartChar: napostrophe
Encoding: 329 329 364
Width: 691
VWidth: 0
Flags: HMW
LayerCount: 2
Fore
SplineSet
391 460 m 1
 311.5 0 l 1
 182.5 0 l 1
 262 460 l 1
 391 460 l 1
520.5 280 m 1
 526 328.5 519 370.5 466 373 c 0
 411 375.5 372 330.5 359.5 281 c 1
 326.5 277 l 1
 345.5 378 412 470 522 470 c 0
 629 470 666.5 395.5 654.5 294 c 1
 604 0 l 1
 472 0 l 1
 520.5 280 l 1
203 700 m 1
 344 699.5 l 1
 201 453 l 1
 108 453 l 1
 203 700 l 1
EndSplineSet
EndChar

StartChar: IJ
Encoding: 306 306 365
Width: 566
VWidth: 0
Flags: HMW
LayerCount: 2
Fore
SplineSet
160 -76 m 1
 178 -95 202.5 -110.5 232 -109.5 c 0
 269.5 -108.5 304 -76 312 -26 c 1
 437.5 700 l 1
 587 700 l 1
 458.5 -56.5 l 2
 438.5 -172.5 344.5 -234 229 -233 c 0
 165 -233 108.5 -206 70 -177 c 1
 160 -76 l 1
164.5 700 m 1
 309.5 700 l 1
 189 0 l 1
 46 0 l 1
 164.5 700 l 1
EndSplineSet
EndChar

StartChar: ij
Encoding: 307 307 366
Width: 518
VWidth: 0
Flags: HMW
LayerCount: 2
Fore
SplineSet
392.5 639 m 0
 397.5 678 438 712 479 711 c 0
 520.5 710 550.5 677 545.5 637 c 0
 540.5 598 500 563.5 459 564.5 c 0
 417.5 565.5 387.5 599 392.5 639 c 0
187.5 -88.5 m 1
 198.5 -98.5 214.5 -114 229.5 -114.5 c 0
 262.5 -116.5 284.5 -78 290 -39 c 1
 376.5 460 l 1
 501 460 l 1
 411 -69 l 2
 395 -165 331 -234 228 -233 c 0
 176.5 -233 143.5 -209 119 -184 c 1
 187.5 -88.5 l 1
137 639 m 0
 142 678 182.5 712 223.5 711 c 0
 265 710 295.5 677 290.5 637 c 0
 285.5 598 244.5 563.5 203.5 564.5 c 0
 162 565.5 132 599 137 639 c 0
119.5 460 m 1
 246 460 l 1
 166 0 l 1
 42 0 l 1
 119.5 460 l 1
EndSplineSet
EndChar

StartChar: uni0237
Encoding: 567 567 367
Width: 256
VWidth: 0
Flags: HMW
LayerCount: 2
Fore
SplineSet
-72.5 -88.5 m 1
 -61.5 -104.5 -50 -114.5 -32 -114.5 c 0
 2 -114.5 23 -79.5 29 -39 c 1
 115 460 l 1
 240.5 460 l 1
 150.5 -69 l 2
 134.5 -165 70.5 -234 -32.5 -233 c 0
 -84 -233 -116.5 -209 -141 -184 c 1
 -72.5 -88.5 l 1
EndSplineSet
EndChar

StartChar: Sacute
Encoding: 346 346 368
Width: 583
VWidth: 0
Flags: HMW
LayerCount: 2
Fore
SplineSet
148 244 m 1
 178 168 214.5 109 292.5 109 c 0
 349.5 109 393.5 139 403 190 c 0
 416 257 346 285.5 282 313 c 0
 205 347 118.5 410.5 133.5 524.5 c 0
 151.5 639.5 263 714 390 714 c 0
 509.5 714 581.5 644.5 605.5 561 c 1
 490 496.5 l 1
 468 546.5 440.5 588.5 382 589.5 c 0
 331.5 589.5 286 561.5 278 517.5 c 0
 266 460 349.5 433 412 408 c 0
 500.5 371 566.5 303 552 193.5 c 0
 532.5 60 420 -18.5 275 -18 c 0
 154 -17.5 67 60.5 36 173 c 1
 148 244 l 1
605.5 921 m 1
 407.5 775 l 1
 338.5 816 l 1
 509.5 973 l 1
 605.5 921 l 1
EndSplineSet
EndChar

StartChar: sacute
Encoding: 347 347 369
Width: 427
VWidth: 0
Flags: HMW
LayerCount: 2
Fore
SplineSet
82 170 m 1
 117.5 119.5 157.5 88 205 88 c 0
 235 88 265 99.5 269.5 127 c 0
 276 165.5 211 183 171 202 c 0
 113.5 229.5 64.5 269.5 74 341 c 0
 86.5 424.5 174.5 469 261 469.5 c 0
 333.5 469.5 396 439 435 394 c 1
 368.5 315 l 1
 339.5 347 298 369.5 258.5 369.5 c 0
 230.5 369.5 199.5 359 196 334.5 c 0
 190.5 301.5 256.5 285 295.5 268 c 0
 356 242 407 200 398 129.5 c 0
 386 32 307 -16 207 -16 c 0
 117.5 -16 47.5 27.5 7.5 90.5 c 1
 82 170 l 1
476 677 m 1
 278.5 531 l 1
 209 571.5 l 1
 379.5 728.5 l 1
 476 677 l 1
EndSplineSet
EndChar

StartChar: Scircumflex
Encoding: 348 348 370
Width: 583
VWidth: 0
Flags: HMW
LayerCount: 2
Fore
SplineSet
148 244 m 1
 178 168 214.5 109 292.5 109 c 0
 349.5 109 393.5 139 403 190 c 0
 416 257 346 285.5 282 313 c 0
 205 347 118.5 410.5 133.5 524.5 c 0
 151.5 639.5 263 714 390 714 c 0
 509.5 714 581.5 644.5 605.5 561 c 1
 490 496.5 l 1
 468 546.5 440.5 588.5 382 589.5 c 0
 331.5 589.5 286 561.5 278 517.5 c 0
 266 460 349.5 433 412 408 c 0
 500.5 371 566.5 303 552 193.5 c 0
 532.5 60 420 -18.5 275 -18 c 0
 154 -17.5 67 60.5 36 173 c 1
 148 244 l 1
422 862 m 1
 313.5 774.5 l 1
 234 838.5 l 1
 435 976 l 1
 596 834 l 1
 501.5 774 l 1
 422 862 l 1
EndSplineSet
EndChar

StartChar: scircumflex
Encoding: 349 349 371
Width: 427
VWidth: 0
Flags: HMW
LayerCount: 2
Fore
SplineSet
82 170 m 1
 117.5 119.5 158.5 88 206 88 c 0
 236 88 265 99.5 269.5 127 c 0
 276 165.5 211 183 171 202 c 0
 113.5 229.5 64.5 269.5 74 341 c 0
 86.5 424.5 174.5 469 261 469.5 c 0
 333.5 469.5 396 439 435 394 c 1
 368.5 315 l 1
 339.5 347 298 369.5 258.5 369.5 c 0
 230.5 369.5 199.5 359 196 334.5 c 0
 190.5 301.5 256.5 285 295.5 268 c 0
 356 242 407 200 398 129.5 c 0
 386 32 307 -16 207 -16 c 0
 117.5 -16 47.5 27.5 7.5 90.5 c 1
 82 170 l 1
301.5 617.5 m 1
 193 530.5 l 1
 113.5 594.5 l 1
 314.5 732 l 1
 475.5 590 l 1
 381 530 l 1
 301.5 617.5 l 1
EndSplineSet
EndChar

StartChar: uni1E9E
Encoding: 7838 7838 372
Width: 784
VWidth: 0
Flags: HMW
LayerCount: 2
Fore
SplineSet
510 -12 m 0
 647.5 -12 742 59.5 742 167.5 c 0
 742 305.5 621 298 621 356.5 c 0
 621 406 751 437 751 553 c 0
 751 647.5 657.5 714 496.5 714 c 0
 272.5 714 146 579 113 373 c 2
 50 -2 l 1
 198 -2 l 1
 260 360 l 2
 283 499.5 366.5 582.5 485.5 582.5 c 0
 558 582.5 595 552 595 514 c 0
 595 447 464.5 438 464.5 353 c 0
 464.5 259 588.5 276 588.5 186 c 0
 588.5 133 537 112 475 112 c 0
 422 112 376 130 322 158 c 1
 282 40 l 1
 343 8 424 -12 510 -12 c 0
EndSplineSet
EndChar

StartChar: Zacute
Encoding: 377 377 373
Width: 579
VWidth: 0
Flags: HW
LayerCount: 2
Fore
SplineSet
117 570 m 1
 140 700 l 1
 660 699.5 l 1
 230.5 126.5 l 1
 530.5 126 l 1
 508.5 0 l 1
 -20.5 0 l 1
 407 569 l 1
 117 570 l 1
602 921 m 1
 404 775 l 1
 334.5 816 l 1
 505.5 973 l 1
 602 921 l 1
EndSplineSet
EndChar

StartChar: zacute
Encoding: 378 378 374
Width: 487
VWidth: 0
Flags: HW
LayerCount: 2
Fore
SplineSet
289 340.5 m 1
 82 341.5 l 1
 103 460 l 1
 529.5 459.5 l 1
 231.5 119.5 l 1
 441 118.5 l 1
 420 0 l 1
 -16 0 l 1
 289 340.5 l 1
519 689 m 1
 321 543 l 1
 251 582.5 l 1
 422 739.5 l 1
 519 689 l 1
EndSplineSet
EndChar

StartChar: Zdotaccent
Encoding: 379 379 375
Width: 579
VWidth: 0
Flags: HW
LayerCount: 2
Fore
SplineSet
117 570 m 1
 140 700 l 1
 660 699.5 l 1
 230.5 126.5 l 1
 530.5 126 l 1
 508.5 0 l 1
 -20.5 0 l 1
 407 569 l 1
 117 570 l 1
348 849.5 m 0
 353 888.5 393 922.5 434 921.5 c 0
 475.5 920.5 506 887 501 847 c 0
 496 808 455 773.5 414 774.5 c 0
 372.5 775.5 343 809.5 348 849.5 c 0
EndSplineSet
EndChar

StartChar: zdotaccent
Encoding: 380 380 376
Width: 487
VWidth: 0
Flags: HW
LayerCount: 2
Fore
SplineSet
289 340.5 m 1
 82 341.5 l 1
 103 460 l 1
 529.5 459.5 l 1
 231.5 119.5 l 1
 441 118.5 l 1
 420 0 l 1
 -16 0 l 1
 289 340.5 l 1
265 623 m 0
 270 662 311 695.5 352 694.5 c 0
 393.5 693.5 424 660 419 620 c 0
 414 581 373 547 332 548 c 0
 290.5 549 260 583 265 623 c 0
EndSplineSet
EndChar

StartChar: Tcaron
Encoding: 356 356 377
Width: 516
VWidth: 0
Flags: HW
LayerCount: 2
Fore
SplineSet
74 570 m 1
 97 700 l 1
 605.5 700 l 1
 582.5 570 l 1
 400 570 l 1
 302 0 l 1
 160 0 l 1
 257.5 570 l 1
 74 570 l 1
379.5 889 m 1
 489 976 l 1
 568 912 l 1
 367 774 l 1
 206.5 916 l 1
 301 976 l 1
 379.5 889 l 1
EndSplineSet
EndChar

StartChar: tcaron
Encoding: 357 357 378
Width: 430
VWidth: 0
Flags: HW
LayerCount: 2
Fore
SplineSet
55.5 460 m 1
 334 460 l 1
 314.5 350 l 1
 35.5 350 l 1
 55.5 460 l 1
159 620 m 1
 284 620 l 1
 177 0 l 1
 54 0 l 1
 159 620 l 1
450.5 792 m 1
 575.5 760 l 1
 416 513 l 1
 321.5 535.5 l 1
 450.5 792 l 1
EndSplineSet
EndChar

StartChar: Uring
Encoding: 366 366 379
Width: 658
VWidth: 0
Flags: HW
LayerCount: 2
Fore
SplineSet
160.5 700 m 1
 302 700 l 1
 221.5 238 l 2
 212.5 169 237.5 108.5 316.5 107.5 c 0
 396.5 106.5 448 166 462 238.5 c 1
 542 700 l 1
 684 700 l 1
 604 230 l 2
 578 76.5 457.5 -23 302.5 -23 c 0
 151.5 -23 60.5 79 80.5 230 c 1
 160.5 700 l 1
337.5 887 m 0
 346 949 405.5 995.5 468.5 995.5 c 0
 531.5 995.5 577.5 947.5 569 885 c 0
 560.5 823 500.5 774.5 437.5 774.5 c 0
 374.5 774.5 329 825 337.5 887 c 0
407 885 m 0
 404 860.5 419.5 838 442.5 837 c 0
 467 835 496 861 499 886.5 c 0
 502 911 486.5 933.5 463.5 934.5 c 0
 439 936.5 410 910.5 407 885 c 0
EndSplineSet
EndChar

StartChar: uring
Encoding: 367 367 380
Width: 542
VWidth: 0
Flags: HW
LayerCount: 2
Fore
SplineSet
326 0 m 1
 405.5 460 l 1
 534.5 460 l 1
 455 0 l 1
 326 0 l 1
196.5 180 m 1
 191 131.5 197 89.5 250 87 c 0
 305 84.5 345 129.5 357.5 179 c 1
 385 183 l 1
 367 82.5 304 -10 194.5 -10 c 0
 87.5 -10 50.5 64.5 62.5 166 c 1
 113 460 l 1
 245.5 460 l 1
 196.5 180 l 1
238.5 642 m 0
 247 704 306.5 752 369.5 752 c 0
 432.5 752 478.5 702.5 470 640 c 0
 461.5 578 401.5 531 338.5 531 c 0
 275.5 531 230 580 238.5 642 c 0
307.5 640.5 m 0
 304.5 616 320 594 343 593 c 0
 367.5 591 397.5 616.5 400.5 642 c 0
 403.5 666.5 388 689 365 690 c 0
 340.5 692 310.5 666 307.5 640.5 c 0
EndSplineSet
EndChar

StartChar: Wcircumflex
Encoding: 372 372 381
Width: 1011
VWidth: 0
Flags: HW
LayerCount: 2
Fore
SplineSet
715 255 m 1
 931.5 700 l 1
 1101 699.5 l 1
 691.5 -42 l 1
 554 415.5 l 1
 262 -42.5 l 1
 98 700 l 1
 261.5 700 l 1
 329.5 257 l 1
 602.5 738.5 l 1
 715 255 l 1
632.5 884 m 1
 523 797 l 1
 442.5 861 l 1
 643.5 998 l 1
 805 856 l 1
 711 796.5 l 1
 632.5 884 l 1
EndSplineSet
EndChar

StartChar: wcircumflex
Encoding: 373 373 382
Width: 714
VWidth: 0
Flags: HW
LayerCount: 2
Fore
SplineSet
49 460 m 1
 181 460 l 1
 235.5 209.5 l 1
 412 497.5 l 1
 491.5 207.5 l 1
 633 459.5 l 1
 774.5 459.5 l 1
 467 -33.5 l 1
 375 258 l 1
 184 -33.5 l 1
 49 460 l 1
441.5 644 m 1
 332 557 l 1
 251.5 620.5 l 1
 453 758 l 1
 614 615.5 l 1
 519.5 556 l 1
 441.5 644 l 1
EndSplineSet
EndChar

StartChar: Ycircumflex
Encoding: 374 374 383
Width: 611
VWidth: 0
Flags: HW
LayerCount: 2
Fore
SplineSet
540.5 699.5 m 1
 708 699.5 l 1
 400 286 l 1
 351.5 0 l 1
 206 0 l 1
 258 294 l 1
 94.5 700 l 1
 252 700 l 1
 348.5 421.5 l 1
 540.5 699.5 l 1
427.5 862 m 1
 318 775 l 1
 238 839 l 1
 439 977 l 1
 600.5 834 l 1
 506 774 l 1
 427.5 862 l 1
EndSplineSet
EndChar

StartChar: ycircumflex
Encoding: 375 375 384
Width: 481
VWidth: 0
Flags: HW
LayerCount: 2
Fore
SplineSet
544 459.5 m 1
 136 -219.5 l 1
 -1 -219.5 l 1
 162 50.5 l 1
 46 460 l 1
 185.5 460 l 1
 266.5 94 l 1
 202 97 l 1
 405.5 459.5 l 1
 544 459.5 l 1
321 618 m 1
 212 531 l 1
 131 595 l 1
 332 732.5 l 1
 493 590 l 1
 400 530 l 1
 321 618 l 1
EndSplineSet
EndChar

StartChar: Utilde
Encoding: 360 360 385
Width: 658
VWidth: 0
Flags: HW
LayerCount: 2
Fore
SplineSet
160 700 m 1
 302.5 700 l 1
 221.5 238 l 2
 212.5 169 236.5 108.5 315.5 107.5 c 0
 395.5 106 448 166 462 238.5 c 1
 541.5 700 l 1
 684 700 l 1
 604.5 230 l 2
 578.5 76.5 458.5 -23 303.5 -23 c 0
 152.5 -23 60 78.5 80 230 c 1
 160 700 l 1
261 833 m 1
 270 879 334 922.5 385 921.5 c 0
 439 920.5 456 871 505 872.5 c 0
 532 873.5 555.5 898 576 923.5 c 1
 631 856 l 1
 606.5 819.5 555 775 499 777 c 0
 450.5 779 423 829.5 378 827 c 0
 343.5 825 329 795.5 321 777.5 c 1
 261 833 l 1
EndSplineSet
EndChar

StartChar: utilde
Encoding: 361 361 386
Width: 542
VWidth: 0
Flags: HW
LayerCount: 2
Fore
SplineSet
326 0 m 1
 405.5 460 l 1
 535 460 l 1
 455.5 0 l 1
 326 0 l 1
196.5 180 m 1
 191 131.5 197 89.5 250 87 c 0
 305 84 344.5 129.5 357 179 c 1
 385 183 l 1
 367 82.5 304 -9 195 -10 c 0
 88 -11 50.5 64.5 62.5 166 c 1
 113 460 l 1
 245.5 460 l 1
 196.5 180 l 1
162.5 589 m 1
 182.5 634.5 228.5 678.5 285.5 677 c 0
 339.5 676 357 627 406 628.5 c 0
 433 629.5 456.5 653.5 477 679 c 1
 532.5 612 l 1
 508 575.5 457 531 401 533 c 0
 352.5 535 323.5 585.5 278.5 583 c 0
 244 581 231 551 223 533 c 1
 162.5 589 l 1
EndSplineSet
EndChar

StartChar: Umacron
Encoding: 362 362 387
Width: 658
VWidth: 0
Flags: HW
LayerCount: 2
Fore
SplineSet
160 700 m 1
 302.5 700 l 1
 221.5 238 l 2
 212.5 169 236.5 108.5 315.5 107.5 c 0
 395.5 106 448 166 462 238.5 c 1
 541.5 700 l 1
 684 700 l 1
 604.5 230 l 2
 578.5 76.5 458.5 -23 303.5 -23 c 0
 152.5 -23 60 78.5 80 230 c 1
 160 700 l 1
257.5 774.5 m 1
 275.5 889 l 1
 633 889 l 1
 614 774.5 l 1
 257.5 774.5 l 1
EndSplineSet
EndChar

StartChar: umacron
Encoding: 363 363 388
Width: 542
VWidth: 0
Flags: HW
LayerCount: 2
Fore
SplineSet
326 0 m 1
 405.5 460 l 1
 535 460 l 1
 455.5 0 l 1
 326 0 l 1
196.5 180 m 1
 191 131.5 197 89.5 250 87 c 0
 305 84 344.5 129.5 357 179 c 1
 385 183 l 1
 367 82.5 304 -9 195 -10 c 0
 88 -11 50.5 64.5 62.5 166 c 1
 113 460 l 1
 245.5 460 l 1
 196.5 180 l 1
159 530.5 m 1
 176.5 645 l 1
 534.5 645 l 1
 515.5 530.5 l 1
 159 530.5 l 1
EndSplineSet
EndChar

StartChar: Ubreve
Encoding: 364 364 389
Width: 658
VWidth: 0
Flags: HW
LayerCount: 2
Fore
SplineSet
160 700 m 1
 302.5 700 l 1
 221.5 238 l 2
 212.5 169 236.5 108.5 315.5 107.5 c 0
 395.5 106 448 166 462 238.5 c 1
 541.5 700 l 1
 684 700 l 1
 604.5 230 l 2
 578.5 76.5 458.5 -23 303.5 -23 c 0
 152.5 -23 60 78.5 80 230 c 1
 160 700 l 1
300 918 m 1
 388 918 l 1
 387.5 886 401 856 444 855 c 0
 488.5 854 515.5 887 526.5 918 c 1
 617.5 917 l 1
 600.5 838 539 774.5 440.5 774.5 c 0
 343 774.5 295 837.5 300 918 c 1
EndSplineSet
EndChar

StartChar: ubreve
Encoding: 365 365 390
Width: 542
VWidth: 0
Flags: HW
LayerCount: 2
Fore
SplineSet
326 0 m 1
 405.5 460 l 1
 535 460 l 1
 455.5 0 l 1
 326 0 l 1
196.5 180 m 1
 191 131.5 197 89.5 250 87 c 0
 305 84 344.5 129.5 357 179 c 1
 385 183 l 1
 367 82.5 304 -9 195 -10 c 0
 88 -11 50.5 64.5 62.5 166 c 1
 113 460 l 1
 245.5 460 l 1
 196.5 180 l 1
201 674.5 m 1
 288.5 674.5 l 1
 288 642.5 302 612.5 345 611.5 c 0
 389.5 610.5 416 643 427 674 c 1
 518 673.5 l 1
 501 594.5 440 530.5 341.5 530.5 c 0
 244 530.5 196 594 201 674.5 c 1
EndSplineSet
EndChar

StartChar: uni0123
Encoding: 291 291 391
Width: 553
VWidth: 0
Flags: HW
LayerCount: 2
Fore
SplineSet
-27 -32 m 1
 96.5 -32.5 l 1
 96.5 -89.5 125 -127.5 189.5 -128.5 c 0
 262.5 -129.5 324 -71 338 10 c 1
 416.5 460 l 1
 542.5 460 l 1
 465.5 10 l 2
 441.5 -143 329.5 -235.5 189 -236 c 0
 43.5 -236.5 -30 -155 -27 -32 c 1
10 234.5 m 0
 28 371 137 471 261 470 c 0
 384.5 469 435.5 360.5 420.5 234 c 0
 403.5 102.5 314.5 -0.5 193 -1 c 0
 69 -2 -6.5 102 10 234.5 c 0
144 234 m 0
 134 165 168 108 237 107 c 0
 300 106 365.5 162 377.5 235 c 0
 387.5 303 353 359.5 291 361.5 c 0
 221 363.5 156 307 144 234 c 0
330.5 543.5 m 1
 212 598 l 1
 401.5 822 l 1
 492 782.5 l 1
 330.5 543.5 l 1
EndSplineSet
EndChar

StartChar: Hbar
Encoding: 294 294 392
Width: 741
VWidth: 0
Flags: HW
LayerCount: 2
Fore
SplineSet
110.5 307.5 m 1
 132.5 438 l 1
 636.5 438 l 1
 614 307.5 l 1
 110.5 307.5 l 1
586.5 700 m 1
 732 700 l 1
 611 0 l 1
 468.5 0 l 1
 586.5 700 l 1
130.5 700 m 1
 276 700 l 1
 154.5 0 l 1
 12.5 0 l 1
 130.5 700 l 1
35.5 538 m 1
 52 634 l 1
 789 634 l 1
 772 538 l 1
 35.5 538 l 1
EndSplineSet
EndChar

StartChar: hbar
Encoding: 295 295 393
Width: 538
VWidth: 0
Flags: HW
LayerCount: 2
Fore
SplineSet
264 780 m 1
 130 0 l 1
 -0.5 0 l 1
 134 780 l 1
 264 780 l 1
339 280 m 1
 344.5 328 338 370.5 286 373 c 0
 231 376 191.5 330.5 179 281 c 1
 150 281.5 l 1
 168 382 230 473.5 339 474.5 c 0
 446.5 475.5 481.5 399 469.5 298 c 1
 418 0 l 1
 290 0 l 1
 339 280 l 1
47.5 606 m 1
 66.5 720 l 1
 386.5 720 l 1
 367 606 l 1
 47.5 606 l 1
EndSplineSet
EndChar

StartChar: uni0400
Encoding: 1024 1024 394
Width: 552
VWidth: 0
Flags: HW
LayerCount: 2
Fore
SplineSet
135 0 m 1
 155.5 122 l 1
 502.5 122 l 1
 482 0 l 1
 135 0 l 1
234 578.5 m 1
 254.5 700 l 1
 601.5 700 l 1
 580.5 578.5 l 1
 234 578.5 l 1
188.5 312 m 1
 209 431 l 1
 536 431 l 1
 516 312 l 1
 188.5 312 l 1
163.5 700 m 1
 304 700 l 1
 183 0 l 1
 45 0 l 1
 163.5 700 l 1
250.5 926 m 1
 355 974 l 1
 478 810.5 l 1
 404.5 774 l 1
 250.5 926 l 1
EndSplineSet
EndChar

StartChar: uni0401
Encoding: 1025 1025 395
Width: 552
VWidth: 0
Flags: HW
LayerCount: 2
Fore
SplineSet
135 0 m 1
 155.5 122 l 1
 502.5 122 l 1
 482 0 l 1
 135 0 l 1
234 578.5 m 1
 254.5 700 l 1
 601.5 700 l 1
 580.5 578.5 l 1
 234 578.5 l 1
188.5 312 m 1
 209 431 l 1
 536 431 l 1
 516 312 l 1
 188.5 312 l 1
163.5 700 m 1
 304 700 l 1
 183 0 l 1
 45 0 l 1
 163.5 700 l 1
449 849 m 0
 453 888 494 922.5 535 921.5 c 0
 577 920.5 607.5 887.5 603 846.5 c 0
 599 807.5 558 773.5 517 774.5 c 0
 475 775.5 444.5 808 449 849 c 0
226 849 m 0
 230 888 270 922.5 311 921.5 c 0
 353 920.5 384 887.5 379.5 846.5 c 0
 375.5 807.5 335 773.5 294 774.5 c 0
 252 775.5 221.5 808 226 849 c 0
EndSplineSet
EndChar

StartChar: uni0403
Encoding: 1027 1027 396
Width: 469
VWidth: 0
Flags: HW
LayerCount: 2
Fore
SplineSet
167 700 m 1
 556 700 l 1
 533 570 l 1
 289.5 570 l 1
 191.5 0 l 1
 49.5 0 l 1
 167 700 l 1
567 920.5 m 1
 371 774.5 l 1
 300 816 l 1
 468.5 972.5 l 1
 567 920.5 l 1
EndSplineSet
EndChar

StartChar: uni040C
Encoding: 1036 1036 397
Width: 595
VWidth: 0
Flags: HW
LayerCount: 2
Fore
SplineSet
163.5 700 m 1
 312.5 700 l 1
 191.5 0 l 1
 45 0 l 1
 163.5 700 l 1
546.5 699.5 m 1
 723 699.5 l 1
 379 367 l 1
 609 0 l 1
 445 0 l 1
 212.5 373 l 1
 546.5 699.5 l 1
630 916 m 1
 433.5 770.5 l 1
 362 813 l 1
 531 968.5 l 1
 630 916 l 1
EndSplineSet
EndChar

StartChar: uni040D
Encoding: 1037 1037 398
Width: 763
VWidth: 0
Flags: HW
LayerCount: 2
Fore
SplineSet
754 544.5 m 1
 34 -43 l 1
 76.5 155.5 l 1
 796 743.5 l 1
 754 544.5 l 1
304 700 m 1
 202 110 l 1
 34 -43 l 1
 164 700 l 1
 304 700 l 1
796 743.5 m 1
 665.5 0 l 1
 526.5 0 l 1
 627.5 585.5 l 1
 796 743.5 l 1
353.5 906.5 m 1
 458.5 953 l 1
 580 789 l 1
 507.5 754 l 1
 353.5 906.5 l 1
EndSplineSet
EndChar

StartChar: uni040E
Encoding: 1038 1038 399
Width: 575
VWidth: 0
Flags: HW
LayerCount: 2
Fore
SplineSet
679.5 700 m 1
 239.5 0 l 1
 90 0 l 1
 222 216.5 l 1
 87 700 l 1
 240 700 l 1
 333.5 267 l 1
 266 270.5 l 1
 527 700 l 1
 679.5 700 l 1
256 918.5 m 1
 343 918 l 1
 343 886.5 357.5 856 400 855 c 0
 444.5 853.5 471.5 886.5 482 917.5 c 1
 573 917 l 1
 556.5 838 495 774 397 774 c 0
 299.5 774 252 838 256 918.5 c 1
EndSplineSet
EndChar

StartChar: uni0410
Encoding: 1040 1040 400
Width: 690
VWidth: 0
Flags: HW
LayerCount: 2
Fore
SplineSet
166.5 158.5 m 1
 202 271.5 l 1
 532 272 l 1
 529 157.5 l 1
 166.5 158.5 l 1
403.5 472 m 1
 260 230.5 l 1
 258.5 198.5 l 1
 136 0 l 1
 -31.5 0 l 1
 444 745 l 1
 663 0 l 1
 506.5 0 l 1
 452 193 l 1
 460 229 l 1
 403.5 472 l 1
EndSplineSet
EndChar

StartChar: uni0411
Encoding: 1041 1041 401
Width: 615
VWidth: 0
Flags: HW
LayerCount: 2
Fore
SplineSet
148.5 312 m 1
 168.5 431 l 1
 387 431 l 1
 514.5 429.5 607.5 341.5 590 216 c 0
 572 88.5 458 1.5 326.5 0 c 1
 93.5 0 l 1
 115.5 122 l 1
 312 122 l 2
 379 123 432.5 154 444.5 217 c 0
 455.5 277.5 416.5 309.5 352.5 311 c 1
 148.5 312 l 1
167 700 m 1
 621 700 l 1
 600 578 l 1
 293.5 578 l 1
 193.5 0 l 1
 49.5 0 l 1
 167 700 l 1
EndSplineSet
EndChar

StartChar: uni0412
Encoding: 1042 1042 402
Width: 613
VWidth: 0
Flags: HW
LayerCount: 2
Fore
SplineSet
211 354.5 m 1
 222 420 l 1
 328.5 420 l 1
 386.5 421.5 435.5 451.5 445.5 504 c 0
 454.5 554 421 584 366.5 585.5 c 1
 290 586 l 1
 207 114 l 1
 290 114 l 1
 360 116 423.5 148 435.5 218 c 0
 446.5 283 400 313 335 315 c 1
 204 316 l 1
 218 394 l 1
 349 394 l 1
 474 392.5 596 334.5 578 199 c 0
 559.5 61.5 438 2 295 0 c 1
 45 0 l 1
 165 700 l 1
 387.5 700 l 1
 508.5 698 612 642.5 595 522.5 c 0
 578.5 410 465 356 341 354.5 c 2
 211 354.5 l 1
EndSplineSet
EndChar

StartChar: uni0413
Encoding: 1043 1043 403
Width: 469
VWidth: 0
Flags: HW
LayerCount: 2
Fore
SplineSet
167 700 m 1
 556 700 l 1
 533 570 l 1
 289.5 570 l 1
 191.5 0 l 1
 49.5 0 l 1
 167 700 l 1
EndSplineSet
EndChar

StartChar: uni0414
Encoding: 1044 1044 404
Width: 829
VWidth: 0
Flags: HW
LayerCount: 2
Fore
SplineSet
467 460.5 m 1
 240 30.5 l 1
 72 30.5 l 1
 511 738.5 l 1
 704.5 30 l 1
 548 30 l 1
 467 460.5 l 1
624.5 0 m 1
 151 0 l 1
 131.5 -110 l 1
 -9 -110 l 1
 32 126 l 1
 784.5 126 l 1
 743.5 -110 l 1
 603.5 -110 l 1
 624.5 0 l 1
EndSplineSet
EndChar

StartChar: uni0415
Encoding: 1045 1045 405
Width: 570
VWidth: 0
Flags: HW
LayerCount: 2
Fore
SplineSet
136 0 m 1
 156 122 l 1
 503 122 l 1
 482.5 0 l 1
 136 0 l 1
234 578.5 m 1
 255 700 l 1
 602 700 l 1
 581 578.5 l 1
 234 578.5 l 1
189 312 m 1
 209 431 l 1
 537 431 l 1
 516.5 312 l 1
 189 312 l 1
164 700 m 1
 305 700 l 1
 184 0 l 1
 46 0 l 1
 164 700 l 1
EndSplineSet
EndChar

StartChar: uni0416
Encoding: 1046 1046 406
Width: 997
VWidth: 0
Flags: HW
LayerCount: 2
Fore
SplineSet
270 700 m 1
 500 365 l 1
 145 0 l 1
 -32 0 l 1
 338 377 l 1
 110.5 700 l 1
 270 700 l 1
519.5 700 m 1
 668.5 700 l 1
 547.5 0 l 1
 401.5 0 l 1
 519.5 700 l 1
900 699.5 m 1
 1081.5 699.5 l 1
 732.5 367 l 1
 967.5 0 l 1
 803 0 l 1
 575.5 375.5 l 1
 900 699.5 l 1
EndSplineSet
EndChar

StartChar: uni0417
Encoding: 1047 1047 407
Width: 629
VWidth: 0
Flags: HW
LayerCount: 2
Fore
SplineSet
319.5 340.5 m 1
 328.5 410 l 1
 413.5 413.5 485 445 498 508.5 c 0
 507 559.5 472 593 410 594 c 0
 339 595 289 556 272 504 c 1
 138 505 l 1
 162 629 267.5 712 417.5 712 c 0
 555.5 712 659.5 636 641.5 520 c 0
 621 391 467.5 343 319.5 340.5 c 1
309 -14 m 0
 139.5 -14 44.5 78 56 211 c 1
 195 210.5 l 1
 194 143 233.5 106.5 311.5 105.5 c 0
 388.5 104.5 452 138 465 204.5 c 0
 482 281 403.5 309.5 315.5 312 c 1
 326 388 l 1
 476 386 625.5 336.5 604.5 188.5 c 0
 585.5 59.5 464.5 -14 309 -14 c 0
EndSplineSet
EndChar

StartChar: uni0418
Encoding: 1048 1048 408
Width: 763
VWidth: 0
Flags: HW
LayerCount: 2
Fore
SplineSet
754 544.5 m 1
 34 -43 l 1
 76.5 155.5 l 1
 796 743.5 l 1
 754 544.5 l 1
304 700 m 1
 202 110 l 1
 34 -43 l 1
 164 700 l 1
 304 700 l 1
796 743.5 m 1
 665.5 0 l 1
 526.5 0 l 1
 627.5 585.5 l 1
 796 743.5 l 1
EndSplineSet
EndChar

StartChar: uni0419
Encoding: 1049 1049 409
Width: 763
VWidth: 0
Flags: HW
LayerCount: 2
Fore
SplineSet
754 544.5 m 1
 34 -43 l 1
 76.5 155.5 l 1
 796 743.5 l 1
 754 544.5 l 1
304 700 m 1
 202 110 l 1
 34 -43 l 1
 164 700 l 1
 304 700 l 1
796 743.5 m 1
 665.5 0 l 1
 526.5 0 l 1
 627.5 585.5 l 1
 796 743.5 l 1
361.5 917 m 1
 449 917 l 1
 449 885 463.5 854.5 506.5 853.5 c 0
 551 852.5 577 885 587.5 916 c 1
 678 916 l 1
 661 837 600 772.5 501.5 772.5 c 0
 404 772.5 357 836.5 361.5 917 c 1
EndSplineSet
EndChar

StartChar: uni041A
Encoding: 1050 1050 410
Width: 640
VWidth: 0
Flags: HW
LayerCount: 2
Fore
SplineSet
163.5 700 m 1
 312.5 700 l 1
 191.5 0 l 1
 45 0 l 1
 163.5 700 l 1
546.5 699.5 m 1
 723 699.5 l 1
 379 367 l 1
 609 0 l 1
 445 0 l 1
 212.5 373 l 1
 546.5 699.5 l 1
EndSplineSet
EndChar

StartChar: uni041B
Encoding: 1051 1051 411
Width: 714
VWidth: 0
Flags: HW
LayerCount: 2
Fore
SplineSet
732 700 m 1
 611 0 l 1
 466 0 l 1
 563.5 570 l 1
 320 570 l 1
 270.5 279 l 2
 242.5 110 154.5 8.5 -16.5 1 c 1
 0 121.5 l 1
 71 132.5 112 195.5 126 278.5 c 1
 199 700 l 1
 732 700 l 1
EndSplineSet
EndChar

StartChar: uni041C
Encoding: 1052 1052 412
Width: 840
VWidth: 0
Flags: HW
LayerCount: 2
Fore
SplineSet
267 390 m 1
 156 0 l 1
 4 0 l 1
 232.5 736.5 l 1
 439 287 l 1
 806.5 742.5 l 1
 780.5 0 l 1
 632 0 l 1
 654 382 l 1
 407 62.5 l 1
 267 390 l 1
EndSplineSet
EndChar

StartChar: uni041D
Encoding: 1053 1053 413
Width: 741
VWidth: 0
Flags: HW
LayerCount: 2
Fore
SplineSet
143.5 307.5 m 1
 165.5 438 l 1
 669 438 l 1
 647 307.5 l 1
 143.5 307.5 l 1
619.5 700 m 1
 764.5 700 l 1
 643.5 0 l 1
 501.5 0 l 1
 619.5 700 l 1
163.5 700 m 1
 308.5 700 l 1
 187.5 0 l 1
 45 0 l 1
 163.5 700 l 1
EndSplineSet
EndChar

StartChar: uni041E
Encoding: 1054 1054 414
Width: 786
VWidth: 0
Flags: HW
LayerCount: 2
Fore
SplineSet
217 350 m 0
 198 233 252.5 121.5 381 120.5 c 0
 511.5 119.5 614.5 225 636.5 350 c 0
 655.5 467 602.5 578.5 472 579.5 c 0
 341.5 580.5 239 475 217 350 c 0
65 350 m 0
 95 554 272 714 482 714 c 0
 689.5 714 815.5 547 787.5 350 c 0
 757.5 146 583.5 -18 370 -18 c 0
 160.5 -18 37 153 65 350 c 0
EndSplineSet
EndChar

StartChar: uni041F
Encoding: 1055 1055 415
Width: 731
VWidth: 0
Flags: HW
LayerCount: 2
Fore
SplineSet
582 570 m 1
 292 570 l 1
 194 0 l 1
 48 0 l 1
 168 700 l 1
 749 700 l 1
 628.5 0 l 1
 484 0 l 1
 582 570 l 1
EndSplineSet
EndChar

StartChar: uni0420
Encoding: 1056 1056 416
Width: 584
VWidth: 0
Flags: HW
LayerCount: 2
Fore
SplineSet
164 700 m 1
 309 700 l 1
 188 0 l 1
 46 0 l 1
 164 700 l 1
230.5 578 m 1
 250.5 700 l 1
 380.5 700 l 1
 529 698 624.5 613.5 604.5 476 c 0
 584 337 470.5 256 317.5 254 c 1
 173.5 254 l 1
 195 375 l 1
 325.5 376 l 2
 395.5 377 453.5 411.5 466.5 477 c 0
 477.5 539.5 438 576.5 371.5 578 c 1
 230.5 578 l 1
EndSplineSet
EndChar

